<svg width="63" height="31" viewBox="0 0 63 31" fill="none" xmlns="http://www.w3.org/2000/svg">
<path d="M22.0845 7.87854H51.0019C53.9029 7.87854 56.3101 8.81266 58.3778 10.712C60.3838 12.5803 61.3714 14.8222 61.4023 17.5623H61.8035H61.4023C61.3714 20.2401 60.3838 22.4508 58.3778 24.3502C56.341 26.2496 53.9029 27.2148 51.0019 27.2148H22.0845C21.8685 27.2148 21.6833 27.4017 21.6833 27.6196C21.6833 27.8376 21.8685 28.0244 22.0845 28.0244H51.0019C54.0881 28.0244 56.7422 26.9969 58.9333 24.9418C61.0937 22.9179 62.2047 20.4269 62.2047 17.5311C62.1738 14.6042 61.0937 12.0821 58.9025 10.0893C56.7113 8.06536 54.0572 7.03783 50.971 7.03783H22.0845C21.8685 7.03783 21.6833 7.22465 21.6833 7.44261C21.6833 7.69171 21.8685 7.87854 22.0845 7.87854ZM22.0845 7.87854H51.0019C53.9029 7.87854 56.3101 8.81266 58.3778 10.712C60.3838 12.5803 61.3714 14.8222 61.4023 17.5623H61.8035H61.4023C61.3714 20.2401 60.3838 22.4508 58.3778 24.3502C56.341 26.2496 53.9029 27.2148 51.0019 27.2148H22.0845C21.8685 27.2148 21.6833 27.4017 21.6833 27.6196C21.6833 27.8376 21.8685 28.0244 22.0845 28.0244H51.0019C54.0881 28.0244 56.7422 26.9969 58.9333 24.9418C61.0937 22.9179 62.2047 20.4269 62.2047 17.5311C62.1738 14.6042 61.0937 12.0821 58.9025 10.0893C56.7113 8.06536 54.0572 7.03783 50.971 7.03783H22.0845C21.8685 7.03783 21.6833 7.22465 21.6833 7.44261C21.6833 7.69171 21.8685 7.87854 22.0845 7.87854Z" fill="#9B0033"/>
<path fill-rule="evenodd" clip-rule="evenodd" d="M19.523 7.66059C21.1895 8.62584 22.4857 9.96475 23.4424 11.5839C24.3991 13.2653 24.8929 15.1024 24.9238 17.1263C24.8929 19.2125 24.3991 21.0808 23.4424 22.6999C22.4857 24.3502 21.1895 25.6891 19.523 26.6855C17.8873 27.6508 16.0665 28.149 14.0296 28.1801C11.9928 28.149 10.1719 27.6508 8.53625 26.6855C6.86973 25.6891 5.57354 24.3502 4.64769 22.7311C3.62925 21.0808 3.16633 19.2437 3.13547 17.1575C3.16633 15.1336 3.62925 13.2653 4.64769 11.615C5.57354 9.96475 6.90059 8.65698 8.53625 7.69172C10.1719 6.72647 12.0236 6.19713 14.0296 6.16599C16.0356 6.16599 17.8873 6.69533 19.523 7.66059ZM13.9988 3.9241C11.5607 3.95524 9.33866 4.54685 7.36351 5.73007C5.41923 6.91329 3.87615 8.5013 2.67254 10.4629C1.4998 12.4557 0.91343 14.6976 0.882568 17.1575C0.91343 19.6173 1.4998 21.8592 2.67254 23.852C3.87615 25.8448 5.41923 27.4328 7.36351 28.6472C9.33866 29.7992 11.5607 30.3909 13.9988 30.4531C16.4677 30.422 18.6897 29.8304 20.6649 28.6472C22.64 27.4328 24.214 25.8448 25.3867 23.852C26.5286 21.8592 27.1458 19.6173 27.1767 17.1575C27.1458 14.6976 26.5595 12.4557 25.3867 10.4629C24.214 8.5013 22.64 6.91329 20.6649 5.73007C18.6897 4.54685 16.4677 3.95524 13.9988 3.9241Z" fill="#9B0033"/>
<path d="M30.5098 13.3276H31.4048L32.3923 16.0054L33.3799 13.3276H34.244L32.7627 17.1263H32.022L30.5098 13.3276Z" fill="#9B0033"/>
<path d="M40.9719 14.2306H41.8051V17.1263H40.9719V14.2306ZM40.941 13.1719H41.8051V13.8881H40.941V13.1719ZM38.3795 14.2306H39.1819V14.791C39.2745 14.6042 39.3979 14.4485 39.5214 14.324C39.6448 14.1994 39.83 14.1372 40.0769 14.1683V15.0401H40.046C39.7374 15.0401 39.5522 15.1336 39.3979 15.2892C39.2436 15.4449 39.151 15.7252 39.151 16.0677V17.1263H38.3486V14.2306H38.3795ZM36.6204 15.4449C36.5895 15.2581 36.5278 15.1336 36.4352 14.9779C36.3426 14.8845 36.1883 14.8222 36.034 14.8222C35.8488 14.8222 35.7254 14.8845 35.6019 14.9779C35.5093 15.1024 35.4168 15.2581 35.3859 15.4449H36.6204ZM36.0957 17.1886C35.9105 17.1886 35.6945 17.1263 35.5093 17.0641C35.3242 17.0018 35.1699 16.9084 35.0156 16.7527C34.8921 16.6282 34.7995 16.4725 34.7069 16.2856C34.6144 16.0988 34.5835 15.8809 34.5835 15.6629C34.5835 15.4449 34.6144 15.2581 34.6761 15.0713C34.7687 14.8845 34.8304 14.7288 34.9847 14.5731C35.1081 14.4485 35.2625 14.324 35.4476 14.2617C35.6328 14.1683 35.818 14.1683 36.034 14.1683C36.2809 14.1683 36.4661 14.2306 36.6512 14.2929C36.8364 14.3863 36.9598 14.4797 37.0833 14.6354C37.1759 14.7599 37.2685 14.9467 37.361 15.1336C37.4228 15.3204 37.4536 15.5383 37.4536 15.7252L37.4228 15.8186V15.912H35.4476C35.4785 16.0988 35.5402 16.2234 35.6945 16.3479C35.818 16.4413 35.9723 16.4725 36.1574 16.4725C36.2809 16.4725 36.4043 16.4413 36.5278 16.3791C36.6204 16.3479 36.713 16.2856 36.8364 16.1611L37.2993 16.5659C37.1759 16.7527 36.9907 16.8773 36.8055 16.9707C36.5895 17.1263 36.3735 17.1886 36.0957 17.1886Z" fill="#9B0033"/>
<path d="M44.305 17.1575C43.9964 17.1575 43.7495 17.0952 43.4409 17.0018C43.1631 16.9084 42.9471 16.7527 42.7002 16.5347L43.194 15.9743C43.3483 16.0988 43.5026 16.2234 43.6878 16.2856C43.8729 16.379 44.0581 16.4102 44.2741 16.4102C44.4593 16.4102 44.5828 16.379 44.6753 16.3168C44.7679 16.2545 44.7988 16.1922 44.7988 16.0677V15.912L44.6753 15.8186L44.4593 15.7252L44.0581 15.6006L43.5643 15.4761L43.1631 15.2581L42.9162 14.9467C42.8545 14.8222 42.8236 14.6665 42.8236 14.4797V14.4485L42.9162 13.9815C43.0088 13.8569 43.0705 13.7012 43.2248 13.639C43.3174 13.5455 43.4717 13.4521 43.626 13.3899C43.7804 13.3276 43.9655 13.2964 44.1507 13.2964C44.4284 13.2964 44.6445 13.3587 44.8914 13.421C45.1383 13.5144 45.3543 13.6078 45.5395 13.7635L45.1074 14.3863L44.6136 14.106C44.4593 14.0126 44.305 14.0126 44.1198 14.0126C43.9655 14.0126 43.8421 14.0437 43.7804 14.106C43.6878 14.1683 43.6569 14.2306 43.6569 14.324V14.3551L43.7186 14.5108L43.8112 14.6042L44.089 14.6976L44.4902 14.791L44.984 14.9779C45.1074 15.0401 45.2617 15.1024 45.3543 15.1958L45.5703 15.5072C45.6321 15.6317 45.6629 15.7874 45.6629 15.9431V15.9743C45.6629 16.1611 45.6321 16.3168 45.5703 16.4725C45.5086 16.597 45.4469 16.7527 45.2926 16.8461C45.1691 16.9395 45.0148 17.0018 44.8296 17.0641C44.6753 17.1263 44.4902 17.1575 44.305 17.1575Z" fill="#9B0033"/>
<path d="M46.712 14.2306H47.5453V17.1264H46.712V14.2306ZM46.6812 13.1719H47.5453V13.8881H46.6812V13.1719Z" fill="#9B0033"/>
<path d="M52.6992 14.2306H53.5016V14.6354L53.6559 14.4797L53.8411 14.324L54.0571 14.2306L54.3349 14.1994C54.6435 14.1994 54.8904 14.2928 55.0447 14.5108C55.2299 14.6976 55.3225 14.9467 55.3225 15.2892V17.1575H54.4892V15.4761C54.4892 15.2892 54.4583 15.1647 54.3966 15.0401C54.304 14.9467 54.1806 14.9156 54.0263 14.9156C53.872 14.9156 53.7177 14.9779 53.6559 15.0401C53.5633 15.1336 53.5325 15.2892 53.5325 15.4761V17.0952H52.7301V14.2306H52.6992ZM50.1377 16.1922L50.4463 16.1299C50.5389 16.0988 50.5698 16.0677 50.6624 16.0054C50.7241 15.9431 50.7549 15.8808 50.7858 15.7874C50.8167 15.694 50.8475 15.6317 50.8475 15.5072L50.7858 15.227C50.7549 15.1336 50.6932 15.0713 50.6624 15.009L50.4463 14.8845L50.1377 14.8222L49.86 14.8845L49.6439 15.009C49.5513 15.0713 49.5205 15.1336 49.4896 15.227L49.4279 15.5072C49.4279 15.7252 49.5205 15.8808 49.6439 16.0054C49.7674 16.1299 49.9525 16.1922 50.1377 16.1922ZM50.0451 17.9671L49.3662 17.8736C49.1193 17.8425 48.9341 17.7802 48.7489 17.6557L49.0576 17.0329L49.5205 17.2509L50.0143 17.3132C50.292 17.3132 50.508 17.2509 50.6315 17.1263C50.7549 17.0018 50.8167 16.815 50.8167 16.5347V16.4102C50.7241 16.5347 50.5698 16.6904 50.4463 16.7527C50.3229 16.8461 50.1377 16.8461 49.8908 16.8461C49.7365 16.8461 49.5822 16.815 49.397 16.7527C49.2736 16.6904 49.1193 16.6281 48.9958 16.4725C48.9032 16.379 48.8107 16.2234 48.7181 16.0677C48.6255 15.8808 48.6255 15.694 48.6255 15.4761C48.6255 15.2581 48.6564 15.0713 48.7181 14.9156C48.8107 14.7288 48.8724 14.6042 48.9958 14.4797C49.1193 14.3551 49.2736 14.2617 49.4279 14.1994L49.8908 14.106C50.1377 14.106 50.3229 14.1683 50.4463 14.2306C50.5698 14.324 50.7241 14.3863 50.8167 14.5419V14.2306H51.6191V16.4725C51.6191 16.9707 51.5265 17.3754 51.2796 17.5934C51.1561 17.718 50.971 17.8425 50.7858 17.9048L50.0451 17.9671Z" fill="#9B0033"/>
<path d="M32.5775 21.8904C32.2688 21.8904 32.022 21.8281 31.7133 21.7347C31.4356 21.6413 31.2195 21.4856 30.9727 21.2676L31.4664 20.7071C31.6208 20.8317 31.7751 20.9562 31.9602 21.0185C32.1454 21.1119 32.3306 21.1431 32.5466 21.1431C32.7318 21.1431 32.8552 21.1119 32.9478 21.0496C33.0404 20.9874 33.0713 20.9251 33.0713 20.8005V20.6449L32.9478 20.5515L32.7318 20.458L32.3306 20.3335L31.8368 20.2089L31.4356 19.991L31.1887 19.6796C31.127 19.5551 31.0961 19.3994 31.0961 19.2125V19.1814L31.1887 18.7143C31.2813 18.5898 31.343 18.4341 31.4973 18.3718C31.5899 18.2784 31.7442 18.185 31.8985 18.1227C32.0528 18.0605 32.238 18.0293 32.4232 18.0293C32.7009 18.0293 32.9169 18.0916 33.1638 18.1539C33.4107 18.2473 33.6268 18.3407 33.8119 18.4964L33.3799 19.1191L32.8861 18.8389C32.7318 18.7455 32.5775 18.7455 32.3923 18.7455C32.2071 18.7455 32.1145 18.7766 32.0528 18.8389C31.9602 18.9012 31.9294 18.9634 31.9294 19.0569V19.088L31.9911 19.2437L32.0837 19.3371L32.3614 19.4305L32.7626 19.5239L33.2564 19.7107C33.3799 19.773 33.5342 19.8353 33.6268 19.9287L33.8428 20.2401C33.9045 20.3646 33.9354 20.5203 33.9354 20.676V20.7071C33.9354 20.894 33.9045 21.0496 33.8428 21.2053C33.7811 21.3299 33.7193 21.4856 33.565 21.579C33.4416 21.6724 33.2873 21.7347 33.1021 21.7969C32.9787 21.8592 32.7935 21.8904 32.5775 21.8904Z" fill="#9B0033"/>
<path d="M40.1694 21.9215C39.9534 21.9215 39.7682 21.8592 39.5831 21.797C39.3979 21.7035 39.2436 21.6101 39.0893 21.4856C38.9658 21.361 38.8732 21.2053 38.7807 21.0185C38.6881 20.8317 38.6572 20.6137 38.6572 20.4269C38.6572 20.209 38.7189 20.0221 38.7807 19.8353C38.8732 19.6485 38.935 19.4928 39.0893 19.3371C39.2127 19.2126 39.3979 19.088 39.5831 19.0257C39.7682 18.9323 39.9534 18.9323 40.2003 18.9323C40.4781 18.9323 40.6941 18.9946 40.8793 19.0569C41.0644 19.1503 41.1879 19.2437 41.3422 19.3994L40.8484 19.9287C40.7558 19.8353 40.6632 19.7419 40.5398 19.6796C40.4472 19.6173 40.3237 19.5862 40.1694 19.5862L39.8917 19.6485L39.6756 19.8353L39.5213 20.0844L39.4596 20.3958V20.4269C39.4596 20.5203 39.4905 20.6449 39.5213 20.7383C39.5522 20.8317 39.6139 20.9251 39.6756 21.0185C39.7374 21.1119 39.7991 21.1431 39.8917 21.1742C39.9843 21.2053 40.0769 21.2365 40.2003 21.2365C40.3237 21.2365 40.4472 21.2053 40.5398 21.1431L40.8484 20.9251L41.3422 21.4233C41.2187 21.5479 41.0336 21.7035 40.8484 21.797C40.6632 21.8592 40.4472 21.9215 40.1694 21.9215ZM36.9598 20.1467C36.929 19.9599 36.8672 19.8353 36.7747 19.6796C36.6821 19.5862 36.5278 19.5239 36.3735 19.5239C36.1883 19.5239 36.0648 19.5862 35.9414 19.6796C35.8488 19.8042 35.7562 19.9599 35.7254 20.1467H36.9598ZM36.4043 21.9215C36.2191 21.9215 36.0031 21.8592 35.8179 21.797C35.6328 21.7347 35.4785 21.6413 35.3242 21.4856C35.2007 21.361 35.1081 21.2053 35.0155 21.0185C34.923 20.8317 34.8921 20.6137 34.8921 20.3958C34.8921 20.1778 34.923 19.991 34.9847 19.8042C35.0773 19.6173 35.139 19.4617 35.2933 19.306C35.4167 19.1814 35.571 19.0569 35.7562 18.9946C35.9414 18.9012 36.1266 18.9012 36.3426 18.9012C36.5895 18.9012 36.7747 18.9635 36.9598 19.0257C37.145 19.1191 37.2684 19.2126 37.3919 19.3682C37.4845 19.4928 37.5771 19.6796 37.6696 19.8664C37.7314 20.0533 37.7622 20.2712 37.7622 20.4581L37.7314 20.5515V20.6449H35.7562C35.7871 20.8317 35.8488 20.9562 36.0031 21.0808C36.1266 21.1742 36.2809 21.2053 36.466 21.2053C36.5895 21.2053 36.7129 21.1742 36.8364 21.1119C36.929 21.0808 37.0215 21.0185 37.145 20.894L37.6079 21.2988C37.4845 21.4856 37.2993 21.6101 37.1141 21.7035C36.929 21.8592 36.6821 21.9215 36.4043 21.9215Z" fill="#9B0033"/>
<path d="M43.2865 21.8904C42.9779 21.8904 42.7619 21.7969 42.5767 21.579C42.4224 21.3922 42.3298 21.1431 42.3298 20.8006V18.9323H43.1322V20.5515C43.1322 20.7383 43.194 20.8628 43.2557 20.9874C43.3483 21.0808 43.4717 21.1119 43.626 21.1119C43.7495 21.1119 43.9038 21.0497 43.9964 20.9874C44.0889 20.894 44.1198 20.7383 44.1198 20.5515V18.9323H44.9222V21.8281H44.1198V21.4233L43.9655 21.579L43.7803 21.7347L43.5643 21.8281L43.2865 21.8904Z" fill="#9B0033"/>
<path d="M54.0264 21.1742C54.1189 21.1742 54.2424 21.143 54.335 21.1119L54.551 20.9562C54.6127 20.8628 54.6436 20.8005 54.6745 20.7071L54.7362 20.3958V20.3646L54.6745 20.0532L54.551 19.8041L54.335 19.6485C54.2424 19.6173 54.1498 19.5862 54.0264 19.5862L53.7486 19.6485L53.5326 19.8041L53.3783 20.0532C53.3474 20.1467 53.3165 20.2401 53.3165 20.3646V20.3958L53.3783 20.7071C53.4091 20.8005 53.4708 20.8628 53.5326 20.9562L53.7486 21.1119L54.0264 21.1742ZM53.8412 21.8903C53.656 21.8903 53.5017 21.8592 53.3474 21.7969C53.224 21.7347 53.0696 21.6724 52.9462 21.5167C52.8228 21.3921 52.7302 21.2053 52.6376 21.0185C52.545 20.8317 52.545 20.6448 52.545 20.3958V20.3646C52.545 20.1155 52.5759 19.8976 52.6376 19.7107C52.7302 19.5239 52.7919 19.3994 52.9462 19.2437C53.0388 19.1191 53.1931 19.0257 53.3474 18.9634C53.5017 18.87 53.656 18.87 53.8412 18.87C54.0572 18.87 54.2424 18.9323 54.3658 18.9946C54.4893 19.088 54.6436 19.1503 54.7053 19.3059V17.8736H55.5077V21.7969H54.7053V21.3921C54.6127 21.5167 54.4893 21.6412 54.3658 21.7035C54.2424 21.8281 54.0572 21.8903 53.8412 21.8903ZM50.7859 20.1467C50.755 19.9598 50.6933 19.8353 50.6007 19.6796C50.5081 19.5862 50.3538 19.5239 50.1995 19.5239C50.0143 19.5239 49.8909 19.5862 49.7674 19.6796C49.6749 19.8041 49.5823 19.9598 49.5514 20.1467H50.7859ZM50.2612 21.9215C50.0761 21.9215 49.86 21.8592 49.6749 21.7969C49.4897 21.7347 49.3354 21.6412 49.1811 21.4856C49.0576 21.361 48.965 21.2053 48.8725 21.0185C48.7799 20.8317 48.749 20.6137 48.749 20.3958C48.749 20.1778 48.7799 19.991 48.8416 19.8041C48.9342 19.6173 48.9959 19.4616 49.1502 19.3059C49.2737 19.1814 49.428 19.0568 49.6131 18.9946C49.7983 18.9012 49.9835 18.9012 50.1995 18.9012C50.4464 18.9012 50.6316 18.9634 50.8167 19.0257C51.0019 19.1191 51.1254 19.2125 51.2488 19.3682C51.3414 19.4928 51.434 19.6796 51.5266 19.8664C51.5883 20.0532 51.6191 20.2712 51.6191 20.458L51.5883 20.5514V20.6448H49.6131C49.644 20.8317 49.7057 20.9562 49.86 21.0808C49.9835 21.1742 50.1378 21.2053 50.323 21.2053C50.4464 21.2053 50.5699 21.1742 50.6933 21.1119C50.7859 21.0808 50.8785 21.0185 51.0019 20.8939L51.4648 21.2987C51.3414 21.4856 51.1562 21.6101 50.9711 21.7035C50.7859 21.8592 50.539 21.9215 50.2612 21.9215ZM46.2184 18.9323H47.0208V19.4928C47.1133 19.3059 47.2368 19.1503 47.3602 19.0257C47.4837 18.9012 47.6689 18.8389 47.9157 18.87V19.7419H47.8849C47.5763 19.7419 47.3911 19.8353 47.2368 19.991C47.0825 20.1467 46.9899 20.4269 46.9899 20.7694V21.8281H46.1875V18.9323H46.2184Z" fill="#9B0033"/>
<path fill-rule="evenodd" clip-rule="evenodd" d="M56.9272 6.69533H58.0691V6.97556H57.6679V8.09651H57.3593V6.97556H56.9272V6.69533ZM59.7665 6.69533V8.06537H59.4579V7.16239L59.1184 7.754H59.0567L58.7172 7.16239V8.06537H58.4086V6.69533H58.7481L59.1184 7.28694L59.4579 6.69533H59.7665Z" fill="#9B0033"/>
<path fill-rule="evenodd" clip-rule="evenodd" d="M21.8068 10.7743H20.8192V11.8019H21.8068V10.7743ZM20.8192 8.18992H21.8068V9.18632H20.8192V8.18992ZM23.3807 5.54324H22.3623V4.54685H23.3807V5.54324ZM25.3868 3.45704H27.331V2.36723H25.3868V5.51211H23.4116V6.53964H21.7142V7.2558H20.8192V8.15878H19.7391V9.74679H18.7206V10.7432H18.0417V11.7707H17.301C15.7888 14.0126 14.616 16.2234 13.7828 18.4652C11.8694 15.7252 10.0794 14.1372 8.41285 13.5767C7.94992 13.4521 7.64131 13.5455 7.45614 13.9503C7.27097 14.3551 7.42527 14.8533 7.98078 15.4761C9.67817 17.3443 11.2213 19.991 12.6409 23.3538C12.8569 23.8832 13.3507 24.1945 14.1223 24.2568C14.8321 24.3191 15.3259 24.0388 15.5419 23.4472C16.5912 20.676 17.7948 18.3096 19.1836 16.2856V15.1336H19.986V14.1372H20.8501V12.9228H21.8377V11.8019H22.8561V10.7743H23.6585V9.52883H24.5535V8.68812H25.4176V6.57078H26.4052V5.54324H27.5471V4.51571H26.4052V5.54324H25.4176V6.57078H24.43V7.56717H23.4425V6.57078H24.43V3.45704H25.3868Z" fill="black"/>
<path d="M26.3743 3.45703H25.3867V4.5157H26.3743V3.45703Z" fill="#A10045"/>
<path d="M21.8067 8.18991H20.8191V9.18631H21.8067V8.18991Z" fill="white"/>
<path d="M29.5223 2.36723H28.4421V3.45704H29.5223V2.36723Z" fill="#9B0033"/>
<path d="M28.473 2.36723V1.30856H27.3928V2.36723" fill="black"/>
<path d="M29.5223 0.21875H28.4421V1.30856H29.5223V0.21875Z" fill="#9B0033"/>
</svg>
