<svg width="65" height="36" viewBox="0 0 65 36" fill="none" xmlns="http://www.w3.org/2000/svg">
<path d="M11.9199 5.63281C6.3424 5.63281 1.88037 10.1328 1.88037 15.6875C1.88037 21.2422 6.3424 25.8125 11.9199 25.8125H53.6121C59.1199 25.8125 63.6516 21.3125 63.6516 15.6875C63.6516 10.1328 59.1896 5.5625 53.6121 5.5625H11.9199V5.63281Z" fill="white"/>
<path d="M53.612 26.6563H11.9199C5.92405 26.6563 1.0437 21.7344 1.0437 15.6875C1.0437 9.64063 5.92405 4.71875 11.9199 4.71875H53.612C59.6079 4.71875 64.4882 9.64063 64.4882 15.6875C64.4882 21.7344 59.6079 26.6563 53.612 26.6563ZM11.9199 5.63281C6.34237 5.63281 1.88033 10.1328 1.88033 15.6875C1.88033 21.2422 6.34237 25.8125 11.9199 25.8125H53.612C59.1198 25.8125 63.6516 21.3125 63.6516 15.6875C63.6516 10.1328 59.1896 5.5625 53.612 5.5625H11.9199V5.63281Z" fill="#CFCFCF"/>
<path d="M48.5923 9.57031C46.9887 9.57031 45.6641 10.9062 45.6641 12.5234C45.6641 14.1406 46.9887 15.4766 48.5923 15.4766C50.1958 15.4766 51.5205 14.1406 51.5205 12.5234C51.5205 10.9062 50.1958 9.57031 48.5923 9.57031ZM48.5923 14.0703C47.7556 14.0703 47.0584 13.3672 47.0584 12.5234C47.0584 11.6797 47.7556 10.9766 48.5923 10.9766C49.4289 10.9766 50.1261 11.6797 50.1261 12.5234C50.1261 13.3672 49.4289 14.0703 48.5923 14.0703Z" fill="#1D1D1B"/>
<path d="M35.1365 9.57031C33.5329 9.57031 32.2083 10.9062 32.2083 12.5234C32.2083 14.1406 33.5329 15.4766 35.1365 15.4766C36.74 15.4766 38.0647 14.1406 38.0647 12.5234C38.0647 10.9062 36.74 9.57031 35.1365 9.57031ZM35.1365 14.0703C34.2998 14.0703 33.6026 13.3672 33.6026 12.5234C33.6026 11.6797 34.2998 10.9766 35.1365 10.9766C35.9731 10.9766 36.6703 11.6797 36.6703 12.5234C36.6703 13.3672 35.9731 14.0703 35.1365 14.0703Z" fill="#1D1D1B"/>
<path d="M45.455 14.1406C45.2458 14.2109 44.9669 14.2813 44.8972 14.2813C44.4092 14.2813 44.2698 14.1406 44.2698 13.6484V10.9063H45.455V9.78125H44.2698V8.16406H42.9451L42.6662 9.78125H41.7599H41.6204C40.8535 9.78125 40.2957 10.2734 39.8774 10.9766L39.3894 9.78125H38.4133V15.4766H40.0866V13.0156C40.0866 11.75 40.7838 10.9766 41.6901 10.9766H42.5965V13.7891C42.5965 15.125 43.2937 15.6172 44.3395 15.6172C44.8972 15.6172 45.3155 15.4766 45.5944 15.4063L45.455 14.1406Z" fill="#1D1D1B"/>
<path d="M53.5423 11.4687V15.3359H51.9387V9.71094H52.9148L53.1937 10.5547" fill="#1D1D1B"/>
<path d="M53.1938 10.5547C53.6819 9.99219 54.3791 9.57031 55.146 9.57031C56.4707 9.57031 57.0284 10.625 57.0284 11.6797V15.4062H55.3551V11.75C55.3551 11.2578 54.9368 10.9766 54.5185 10.9766C54.0305 10.9766 53.7516 11.2578 53.4727 11.5391" fill="#1D1D1B"/>
<path d="M25.7939 7.67188H27.6066L30.1165 12.5234V7.67188H31.6504V15.4063H29.9771L27.2581 10.0625V15.4063H25.7939V7.67188Z" fill="#1D1D1B"/>
<path d="M61.9087 4.71875V5H61.5601V6.40625H61.2115V5H60.7932V4.71875H61.9087Z" fill="#B1B1B1"/>
<path d="M62.1179 6.40625V4.71875H62.606L62.8848 5.84375L63.1637 4.71875H63.582V6.40625H63.3031V5.07031L62.9545 6.40625H62.7454L62.3968 5.07031V6.40625H62.1179Z" fill="#B1B1B1"/>
<path d="M25.3062 22.2266L25.6547 21.5938C25.9336 21.8047 26.4217 22.0156 26.9794 22.0156C27.5372 22.0156 27.8858 21.7344 27.8858 21.3125C27.8858 20.8203 27.4675 20.6797 26.7703 20.3984C26.1428 20.1875 25.5153 19.8359 25.5153 18.9219C25.5153 18.0781 26.2125 17.5859 27.0491 17.5859C27.6766 17.5859 28.0949 17.7266 28.4435 17.9375L28.1646 18.5703C27.8858 18.4297 27.5372 18.2891 27.1189 18.2891C26.6308 18.2891 26.3519 18.5 26.3519 18.8516C26.3519 19.3438 26.7005 19.4141 27.328 19.625C28.0252 19.8359 28.7224 20.1875 28.7224 21.1719C28.7224 22.0156 28.0949 22.5781 27.0491 22.5781C26.2125 22.7891 25.6547 22.5078 25.3062 22.2266Z" fill="#B1B1B1"/>
<path d="M30.1865 17.7969H33.045V18.5H31.0232V19.8359H32.6267V20.4687H31.0232V22.0156H33.1845V22.7187H30.1865V17.7969Z" fill="#B1B1B1"/>
<path d="M34.3696 20.2578C34.3696 18.8516 35.0668 17.7266 36.3915 17.7266C37.019 17.7266 37.507 17.9375 37.7859 18.2891L37.2978 18.8516C37.019 18.5703 36.7401 18.4297 36.3915 18.4297C35.6246 18.4297 35.2063 19.0625 35.2063 20.3281C35.2063 21.4531 35.6246 22.0156 36.3915 22.0156C36.8098 22.0156 37.1584 21.8047 37.3676 21.5234L37.8556 22.0859C37.507 22.5078 37.0887 22.7891 36.3218 22.7891C35.0668 22.7891 34.3696 21.6641 34.3696 20.2578Z" fill="#B1B1B1"/>
<path d="M39.25 20.8203V17.7969H40.0866V20.9609C40.0866 21.6641 40.2261 22.0859 40.993 22.0859C41.6902 22.0859 41.8993 21.6641 41.8993 20.9609V17.7969H42.736V20.8203C42.736 22.0156 42.2479 22.7891 40.993 22.7891C39.738 22.7891 39.25 22.0156 39.25 20.8203Z" fill="#B1B1B1"/>
<path d="M47.7556 22.7187H46.8492L45.9429 20.6094H45.176V22.7187H44.3394V17.7969H45.9429C46.919 17.7969 47.6859 18.1484 47.6859 19.2031C47.6859 19.9062 47.2676 20.3281 46.7795 20.4687L47.7556 22.7187ZM45.8732 19.9766C46.5007 19.9766 46.7795 19.7656 46.7795 19.2031C46.7795 18.6406 46.4309 18.4297 45.8732 18.4297H45.1063V19.9062H45.8732V19.9766Z" fill="#B1B1B1"/>
<path d="M49.1499 17.7969H52.0781V18.5H49.9865V19.8359H51.6598V20.4687H49.9865V22.0156H52.2175V22.7187H49.1499V17.7969Z" fill="#B1B1B1"/>
<path d="M53.6123 17.7969H54.7975C56.4011 17.7969 57.168 18.6406 57.168 20.2578C57.168 21.875 56.4011 22.7187 54.8673 22.7187H53.6123V17.7969ZM54.7975 22.0156C55.913 22.0156 56.3314 21.4531 56.3314 20.1875C56.3314 19.0625 56.0525 18.4297 54.937 18.4297H54.5187V22.0156H54.7975Z" fill="#B1B1B1"/>
<path d="M11.8503 27.5C5.3664 27.5 0.137451 22.2266 0.137451 15.6875C0.137451 9.14844 5.3664 3.875 11.8503 3.875C18.3342 3.875 23.5631 9.14844 23.5631 15.6875C23.5631 22.2266 18.3342 27.5 11.8503 27.5ZM11.8503 7.60156C9.68899 7.60156 7.66713 8.44531 6.20303 9.99219C4.6692 11.5391 3.83257 13.5781 3.83257 15.6875C3.83257 17.8672 4.6692 19.9063 6.20303 21.3828C7.73685 22.9297 9.75871 23.7734 11.8503 23.7734C14.0116 23.7734 16.0334 22.9297 17.4975 21.3828C19.0314 19.8359 19.868 17.7969 19.868 15.6875C19.868 13.5078 19.0314 11.4688 17.4975 9.99219C15.9637 8.44531 14.0116 7.60156 11.8503 7.60156Z" fill="#FCC200"/>
<path d="M25.5152 2.04688H24.6089V2.96094H25.5152V2.04688Z" fill="#FCC200"/>
<path d="M25.5152 0.21875H24.6089V1.13281H25.5152V0.21875Z" fill="#FCC200"/>
<path d="M22.8659 2.96094H22.0293V3.875H22.8659V2.96094Z" fill="#FCC200"/>
<path d="M21.1926 4.71875H20.356V5.5625H21.1926V4.71875Z" fill="#1D1D1B"/>
<path d="M23.842 3.875H22.866V4.71875H23.842V3.875Z" fill="#1D1D1B"/>
<path d="M20.3559 3.94531H19.5193V4.78906H20.3559V3.94531Z" fill="#1D1D1B"/>
<path d="M22.8659 4.71875H22.0293V5.5625H22.8659V4.71875Z" fill="#1D1D1B"/>
<path d="M24.6087 1.13281H23.7024V2.04688H24.6087V1.13281Z" fill="#1D1D1B"/>
<path d="M23.7026 2.04688H22.0293V2.96094H23.7026V2.04688Z" fill="#1D1D1B"/>
<path d="M22.0295 2.96094H21.1929V4.71875H22.0295V2.96094Z" fill="#1D1D1B"/>
<path d="M21.1925 5.63281V6.47656H20.3559V5.63281H18.9615V6.26562H18.1946V7.03906H19.0312V7.88281H18.1946V7.03906H17.2185V8.375H16.3819V9.21875H15.8242V10.0625H15.1967C14.4995 11.1172 12.7565 14.4219 12.1988 15.7578C10.2466 13.0859 8.78251 11.9609 7.59729 11.6094C6.96981 11.3984 6.2029 12.1016 7.24869 13.2266C9.68886 15.8984 10.4558 18.1484 11.153 19.9063C11.5713 20.8203 13.3143 20.9609 13.6629 20.0469C14.4298 18.0078 15.4756 15.7578 16.7305 13.9297V12.9453H17.4277V12.1016H18.1249V11.1172H18.9615V10.1328H18.1249V9.21875H18.9615V10.1328H19.7982V9.28906H20.4954V8.23438H21.2623V7.53125H22.0292V5.63281H21.1925Z" fill="#1D1D1B"/>
<path d="M4.66919 31.5781H5.29666V32.0703C5.50582 31.7891 5.7847 31.5078 6.27273 31.5078C6.96992 31.5078 7.5974 32.0703 7.5974 32.9844C7.5974 33.8984 6.96992 34.4609 6.27273 34.4609C5.7847 34.4609 5.50582 34.25 5.29666 33.9688V35.2344H4.66919V31.5781ZM6.90021 32.9844C6.90021 32.4219 6.55161 32.0703 6.13329 32.0703C5.71498 32.0703 5.29666 32.4219 5.29666 32.9844C5.29666 33.5469 5.64526 33.8984 6.13329 33.8984C6.55161 33.8984 6.90021 33.5469 6.90021 32.9844Z" fill="#B1B1B1"/>
<path d="M8.08545 32.9844C8.08545 32.1406 8.71292 31.5078 9.54955 31.5078C10.3862 31.5078 11.0137 32.1406 11.0137 32.9844C11.0137 33.7578 10.3862 34.4609 9.47983 34.4609C8.71292 34.4609 8.08545 33.7578 8.08545 32.9844ZM10.4559 32.9844C10.4559 32.4922 10.1073 32.0703 9.61927 32.0703C9.13124 32.0703 8.78264 32.4922 8.78264 32.9844C8.78264 33.4766 9.13124 33.8984 9.61927 33.8984C10.1073 33.8984 10.4559 33.4766 10.4559 32.9844Z" fill="#B1B1B1"/>
<path d="M11.3623 31.5781H12.0595L12.6173 33.4766L13.2447 31.5781H13.8025L14.43 33.4766L14.9877 31.5781H15.6152L14.7088 34.3906H14.1511L13.5236 32.4922L12.8961 34.3906H12.2687L11.3623 31.5781Z" fill="#B1B1B1"/>
<path d="M15.9639 32.9844C15.9639 32.1406 16.5216 31.5078 17.3583 31.5078C18.2646 31.5078 18.6829 32.2109 18.6829 33.0547C18.6829 33.125 18.6829 33.1953 18.6829 33.2656H16.5913C16.6611 33.7578 17.0097 33.9688 17.428 33.9688C17.7068 33.9688 17.9857 33.8281 18.1949 33.6172L18.5435 33.9688C18.2646 34.25 17.916 34.4609 17.3583 34.4609C16.5913 34.4609 15.9639 33.8281 15.9639 32.9844ZM17.9857 32.7734C17.916 32.3516 17.7068 32 17.2885 32C16.8702 32 16.5913 32.2813 16.5913 32.7734H17.9857Z" fill="#B1B1B1"/>
<path d="M19.3103 31.5781H19.9378V32.2109C20.1469 31.7891 20.4258 31.5078 20.9138 31.5078V32.2109H20.8441C20.2864 32.2109 19.8681 32.5625 19.8681 33.3359V34.3906H19.3103V31.5781Z" fill="#B1B1B1"/>
<path d="M21.332 32.9844C21.332 32.1406 21.8898 31.5078 22.7264 31.5078C23.6328 31.5078 24.0511 32.2109 24.0511 33.0547C24.0511 33.125 24.0511 33.1953 24.0511 33.2656H21.9595C22.0292 33.7578 22.3778 33.9688 22.7961 33.9688C23.075 33.9688 23.3539 33.8281 23.563 33.6172L23.9116 33.9688C23.6328 34.3203 23.2842 34.5312 22.7961 34.5312C21.9595 34.4609 21.332 33.8281 21.332 32.9844ZM23.4236 32.7734C23.3539 32.3516 23.1447 32 22.7264 32C22.3081 32 22.0292 32.2812 22.0292 32.7734H23.4236Z" fill="#B1B1B1"/>
<path d="M24.5393 32.9844C24.5393 32.0703 25.1668 31.5078 25.864 31.5078C26.352 31.5078 26.6309 31.7188 26.84 32V30.4531H27.4675V34.3906H26.84V33.8984C26.6309 34.1797 26.2823 34.4609 25.864 34.4609C25.1668 34.4609 24.5393 33.8984 24.5393 32.9844ZM26.84 32.9844C26.84 32.4219 26.4914 32.0703 26.0034 32.0703C25.5851 32.0703 25.1668 32.4219 25.1668 32.9844C25.1668 33.5469 25.5154 33.8984 26.0034 33.8984C26.4217 33.8984 26.84 33.5469 26.84 32.9844Z" fill="#B1B1B1"/>
<path d="M30.4654 33.9688V34.3906H29.8379V30.4531H30.4654V32C30.6745 31.7188 30.9534 31.4375 31.4414 31.4375C32.1386 31.4375 32.7661 32 32.7661 32.9141C32.7661 33.8281 32.1386 34.3906 31.4414 34.3906C30.9534 34.4609 30.6745 34.1797 30.4654 33.9688ZM32.0689 32.9844C32.0689 32.4219 31.7203 32.0703 31.302 32.0703C30.8837 32.0703 30.4654 32.4219 30.4654 32.9844C30.4654 33.5469 30.814 33.8984 31.302 33.8984C31.7203 33.8984 32.0689 33.5469 32.0689 32.9844Z" fill="#B1B1B1"/>
<path d="M33.1845 35.0938L33.3937 34.6016C33.5331 34.6719 33.6028 34.7422 33.7423 34.7422C33.9514 34.7422 34.0211 34.6719 34.1606 34.3906L32.9753 31.5781H33.6725L34.4394 33.6875L35.1366 31.5781H35.8338L34.7183 34.4609C34.5092 35.0234 34.2303 35.2344 33.812 35.2344C33.5331 35.2344 33.3937 35.1641 33.1845 35.0938Z" fill="#B1B1B1"/>
<path d="M37.7859 30.6641H38.4831L39.5986 33.5469L40.7141 30.6641H41.4113L39.8775 34.3906H39.3197L37.7859 30.6641Z" fill="#A40344"/>
<path d="M41.5505 32.9844C41.5505 32.1406 42.1083 31.5078 42.9449 31.5078C43.8513 31.5078 44.2696 32.2109 44.2696 33.0547C44.2696 33.125 44.2696 33.1953 44.2696 33.2656H42.2477C42.3174 33.7578 42.666 33.9688 43.0844 33.9688C43.3632 33.9688 43.6421 33.8281 43.8513 33.6172L44.1999 33.9688C43.8513 34.25 43.5027 34.4609 43.0146 34.4609C42.178 34.4609 41.5505 33.8281 41.5505 32.9844ZM43.6421 32.7734C43.5724 32.3516 43.3632 32 42.9449 32C42.5266 32 42.2477 32.2813 42.2477 32.7734H43.6421Z" fill="#A40344"/>
<path d="M44.8975 31.5781H45.5249V32.2109C45.7341 31.7891 46.013 31.5078 46.501 31.5078V32.2109C45.9433 32.2109 45.5249 32.5625 45.5249 33.3359V34.3906H44.8975V31.5781Z" fill="#A40344"/>
<path d="M47.0583 30.5234H47.7555V31.1562H47.0583V30.5234ZM47.1281 31.5781H47.7555V34.3906H47.1281V31.5781Z" fill="#A40344"/>
<path d="M48.3833 33.8281L48.8016 33.3359C49.1502 33.6172 49.4988 33.8281 49.9868 33.8281C50.4052 33.8281 50.6143 33.6172 50.6143 33.3359C50.6143 33.0547 50.4749 32.9141 49.7777 32.7734C49.0108 32.6328 48.5925 32.3516 48.5925 31.6484C48.5925 31.0156 49.1502 30.5938 49.8474 30.5938C50.4052 30.5938 50.8235 30.7344 51.1721 31.0859L50.8235 31.5781C50.4749 31.2969 50.1263 31.2266 49.8474 31.2266C49.4988 31.2266 49.2199 31.4375 49.2199 31.6484C49.2199 31.9297 49.3594 32.0703 50.1263 32.2109C50.8932 32.4219 51.3115 32.7031 51.3115 33.3359C51.3115 34.0391 50.7538 34.4609 49.9868 34.4609C49.4291 34.4609 48.8713 34.25 48.3833 33.8281Z" fill="#A40344"/>
<path d="M52.0085 30.5234H52.7057V31.1562H52.0085V30.5234ZM52.0085 31.5781H52.636V34.3906H52.0085V31.5781Z" fill="#A40344"/>
<path d="M53.4724 34.8828L53.6816 34.3906C53.9605 34.6016 54.3091 34.6719 54.6577 34.6719C55.2154 34.6719 55.564 34.3906 55.564 33.8281V33.6172C55.3549 33.8984 55.0063 34.1094 54.588 34.1094C53.9605 34.1094 53.333 33.6172 53.333 32.7734C53.333 31.9297 53.9605 31.4375 54.588 31.4375C55.076 31.4375 55.3549 31.6484 55.564 31.9297V31.5078H56.1915V33.7578C56.1915 34.25 56.0521 34.6016 55.8429 34.8125C55.564 35.0938 55.2154 35.1641 54.6577 35.1641C54.2394 35.2344 53.821 35.0938 53.4724 34.8828ZM55.564 32.8438C55.564 32.3516 55.2154 32.0703 54.7274 32.0703C54.3091 32.0703 53.9605 32.3516 53.9605 32.8438C53.9605 33.3359 54.3091 33.6172 54.7274 33.6172C55.2154 33.6172 55.564 33.2656 55.564 32.8438Z" fill="#A40344"/>
<path d="M57.0283 31.5781H57.6558V32C57.865 31.7188 58.0741 31.5078 58.5621 31.5078C59.1896 31.5078 59.5382 31.9297 59.5382 32.5625V34.3906H58.9107V32.7734C58.9107 32.3516 58.7016 32.0703 58.2833 32.0703C57.9347 32.0703 57.6558 32.3516 57.6558 32.7734V34.3906H57.0283V31.5781Z" fill="#A40344"/>
</svg>
