<svg width="54" height="30" viewBox="0 0 54 30" fill="none" xmlns="http://www.w3.org/2000/svg">
<path d="M45.906 27.1667C36.9259 27.1667 27.9452 27.1667 18.9762 27.1781C18.8393 27.1781 18.7023 27.1667 18.5647 27.1667C18.7478 26.8139 19.1022 26.5976 19.3073 26.2676C19.4787 26.0058 19.7072 25.9488 20.0045 25.9488C28.105 25.9603 36.1943 25.9488 44.2953 25.9488C44.6952 25.9488 45.1062 25.9603 45.5061 25.9488C46.0546 25.9261 46.5804 25.8464 47.0485 25.5391C47.0602 25.5391 47.0712 25.5391 47.0829 25.5277C47.1744 25.5277 47.2315 25.4936 47.277 25.4139C47.3802 25.3798 47.4828 25.3229 47.5626 25.2318C47.6314 25.2318 47.6769 25.1976 47.7113 25.1294C47.723 25.1294 47.734 25.118 47.7457 25.1066C48.6253 24.4351 49.1167 23.5587 49.1966 22.4547C49.231 22.2384 49.231 22.0336 49.1966 21.8173C49.231 21.658 49.2083 21.51 49.1278 21.3734C49.1167 21.3279 49.1051 21.2824 49.1051 21.2255C49.1167 21.1117 49.1051 21.0092 49.0252 20.9182C49.0136 20.884 49.0025 20.8499 48.9908 20.8044C49.0025 20.7019 48.9681 20.6222 48.8993 20.5539C48.7169 19.9962 48.3851 19.5296 47.9281 19.1654L47.9171 19.154C47.8483 19.0402 47.7684 18.9491 47.6314 18.915C47.6314 18.9036 47.6198 18.8922 47.6087 18.9036C46.9686 18.3345 46.1916 18.1069 45.3574 18.1069C38.1594 18.0955 30.9613 18.1069 23.7749 18.1069C23.0894 18.1069 22.3922 18.1069 21.7067 18.1069C21.5587 17.1963 21.3529 16.2972 20.9984 15.4436C20.507 14.2826 19.8786 13.2014 18.9879 12.2908C18.9763 12.0746 18.8847 11.8697 18.9879 11.6535C19.7988 11.6535 20.6213 11.6421 21.4327 11.6421C29.4078 11.6421 37.3829 11.6193 45.3463 11.6535C48.2709 11.6648 51.2415 13.4859 52.5217 16.5704C53.881 19.8597 52.3957 23.5132 50.4761 25.2204C49.7906 25.835 49.0025 26.2903 48.1566 26.6432C47.6996 26.7797 47.2543 26.9163 46.7973 27.0415C46.7401 27.0529 46.683 27.0529 46.6259 27.0643C46.3746 27.0984 46.1345 27.0871 45.906 27.1667ZM33.7151 15.2842C33.7378 15.2956 33.7722 15.307 33.795 15.3184C33.7378 15.8419 33.6697 16.3655 33.6125 16.889C33.6009 16.9687 33.5554 17.0598 33.6807 17.1167C34.0579 17.276 34.5603 17.0256 34.6175 16.6159C34.7434 15.7281 34.846 14.829 34.9602 13.9298C34.9719 13.8273 34.9719 13.7477 34.8349 13.7477C34.4694 13.7363 34.115 13.7249 33.8521 14.0664C33.5664 14.4419 33.2354 14.772 32.9153 15.1249C32.6751 15.3866 32.6751 15.398 32.47 15.0907C32.2415 14.7493 32.0357 14.3964 31.8072 14.0436C31.6358 13.7818 31.1444 13.6339 30.8587 13.7477C30.7899 13.7818 30.7789 13.8273 30.7672 13.8843C30.6419 14.8973 30.516 15.9102 30.3901 16.9118C30.379 17.0028 30.379 17.0825 30.5043 17.1053C31.0418 17.2305 31.3956 16.9915 31.4527 16.4451C31.4871 16.1151 31.5326 15.785 31.5787 15.4549C31.5897 15.398 31.567 15.307 31.6929 15.2842C31.8526 15.5802 32.0129 15.876 32.1727 16.172C32.4466 16.6842 32.5498 16.6955 32.9036 16.2516C33.1782 15.933 33.4411 15.6143 33.7151 15.2842ZM46.1916 17.185C46.363 17.1736 46.5233 17.1736 46.6947 17.1508C47.5399 17.0484 48.0313 16.6387 48.191 15.876C48.2482 15.5687 48.2942 15.2614 48.3053 14.9428C48.3397 14.3168 47.9852 13.8843 47.3685 13.7363C46.8089 13.5997 46.2487 13.6111 45.7002 13.759C45.2204 13.8956 44.8549 14.1688 44.6835 14.6582C44.5238 15.1363 44.455 15.637 44.4894 16.1378C44.5122 16.4451 44.6608 16.7069 44.9464 16.889C45.3347 17.128 45.7573 17.1963 46.1916 17.185ZM27.6596 17.185C27.8083 17.1736 27.9569 17.185 28.105 17.1622C28.745 17.0711 29.2936 16.8435 29.5448 16.1948C29.7279 15.7281 29.7733 15.2159 29.7389 14.7151C29.7045 14.2257 29.3734 13.8729 28.882 13.7477C28.3107 13.5997 27.7284 13.5997 27.1571 13.7477C26.6086 13.8956 26.2314 14.2257 26.0828 14.772C25.9802 15.1704 25.9231 15.5802 25.9231 15.9899C25.9231 16.3996 26.1055 16.6955 26.4599 16.9004C26.8371 17.1394 27.237 17.1963 27.6596 17.185ZM37.257 17.185C37.5082 17.185 37.7484 17.185 37.988 17.128C38.765 16.9573 39.1876 16.4907 39.2792 15.694C39.3019 15.4891 39.3363 15.2842 39.359 15.0793C39.4395 14.4078 39.0967 13.9184 38.4339 13.7477C37.8627 13.5997 37.2797 13.6225 36.7084 13.7818C36.217 13.9184 35.8632 14.2371 35.7146 14.7379C35.5886 15.159 35.5432 15.6029 35.5432 16.0468C35.5432 16.4338 35.7146 16.7183 36.0457 16.9232C36.4345 17.1394 36.8344 17.185 37.257 17.185ZM41.6558 13.7477C41.2332 13.7477 40.9359 13.759 40.6392 13.7477C40.4217 13.7363 40.3873 13.8388 40.4334 14.0208C40.4905 14.2257 40.6158 14.3395 40.8333 14.3395C41.1988 14.3395 41.5643 14.3282 41.9298 14.3509C42.5244 14.3964 42.81 14.6013 42.6958 15.2501C42.6614 15.4094 42.6386 15.5802 42.6153 15.7395C42.5471 16.1948 42.3757 16.3655 41.9298 16.4679C41.7012 16.5134 41.4844 16.5134 41.2559 16.5134C41.0845 16.5134 41.0391 16.4338 41.0618 16.2744C41.1072 15.9899 41.1189 15.7053 41.1644 15.4322C41.2786 14.8858 41.0845 14.6468 40.4444 14.6924C40.2964 14.7037 40.2503 14.772 40.2276 14.9086C40.1588 15.4891 40.0906 16.0809 40.0108 16.6614C39.9764 16.9345 40.1017 17.0939 40.3535 17.1053C41.0729 17.128 41.7928 17.1963 42.501 17.0484C43.0496 16.9345 43.404 16.6045 43.541 16.0468C43.6209 15.694 43.6552 15.3297 43.678 14.9655C43.7007 14.3964 43.4267 14.055 42.8899 13.8729C42.4556 13.7135 41.9869 13.759 41.6558 13.7477ZM24.6319 13.7477V13.759C24.3462 13.759 24.0606 13.7363 23.7749 13.759C23.2264 13.816 22.7467 14.0095 22.461 14.533C22.2552 14.9314 22.2442 15.3639 22.1981 15.785C22.1299 16.4793 22.461 16.9004 23.1465 17.0484C23.6951 17.1622 24.2436 17.1053 24.7916 17.1053C24.9746 17.1053 25.1005 17.0028 25.1915 16.8435C25.3401 16.5704 25.3174 16.5134 24.9973 16.5021C24.5403 16.4907 24.095 16.5362 23.638 16.4793C23.2608 16.4224 23.1011 16.2289 23.1349 15.8533C23.1466 15.6143 23.1809 15.3867 23.2264 15.159C23.3407 14.59 23.5919 14.3737 24.1748 14.3509C24.4721 14.3395 24.7688 14.3395 25.0545 14.3395C25.3174 14.3395 25.466 14.2029 25.5803 13.9753C25.6485 13.816 25.6374 13.7363 25.4433 13.7363C25.1804 13.7477 24.9058 13.7477 24.6319 13.7477Z" fill="#5FC503"/>
<path d="M4.27185 13.4632C4.43156 13.2924 4.63733 13.1672 4.73992 12.951C4.77432 12.9396 4.80873 12.9396 4.79706 12.8941C4.8204 12.8827 4.84312 12.8827 4.85417 12.8713C5.11708 12.6664 5.36833 12.4615 5.63124 12.2567C5.98567 12.0291 6.32843 11.8014 6.68225 11.5738C7.13927 11.3803 7.58523 11.1868 8.04224 10.9933C8.21362 10.9933 8.37334 10.9136 8.52199 10.8567C8.77323 10.7998 9.03614 10.7429 9.28738 10.6746C9.47043 10.595 9.6762 10.686 9.85864 10.6291C10.2929 10.595 10.7272 10.5494 11.1615 10.5153C11.2641 10.595 11.39 10.5608 11.4926 10.5722C11.9951 10.6291 12.4865 10.686 12.9896 10.7429C13.4005 10.8567 13.8004 10.9706 14.212 11.0844C14.3834 11.1868 14.5658 11.2551 14.7605 11.312C15.08 11.4827 15.3889 11.642 15.7084 11.8128C15.9369 12.0176 16.2114 12.1429 16.4627 12.3249C16.6457 12.473 16.8282 12.6095 17.0112 12.7575C17.6967 13.3949 18.3024 14.1005 18.8166 14.8858C19.0217 15.2728 19.2164 15.6712 19.4216 16.0582C19.4216 16.1265 19.445 16.1833 19.4904 16.2175C19.4904 16.2289 19.4904 16.2403 19.5021 16.2516C19.6618 16.7752 19.8104 17.2988 19.9702 17.8109C20.0046 18.0613 20.05 18.3231 20.0844 18.5735C20.1071 18.7898 20.1188 19.006 20.1415 19.2223C20.1188 19.7572 20.0961 20.2808 20.0734 20.8157C20.0046 20.9523 20.0046 21.0889 20.0046 21.2368C19.8676 21.271 19.913 21.3734 19.9247 21.4645C19.8903 21.5441 19.8215 21.601 19.8676 21.7035C19.8449 21.7831 19.8215 21.8628 19.8104 21.9425C19.5819 21.6807 19.4106 21.9311 19.2165 22.0108C19.4904 20.8726 19.6501 19.7231 19.4787 18.5508C19.1931 16.5817 18.3595 14.8858 16.897 13.4973C15.3201 11.9949 13.4349 11.2323 11.2758 11.1299C10.2131 11.0844 9.17311 11.2551 8.17922 11.6193C5.837 12.473 4.14592 14.0436 3.15203 16.3199C2.51196 17.7882 2.32953 19.3247 2.58076 20.9181C2.64956 21.362 2.78655 21.7946 2.84368 22.2384C2.74048 22.1019 2.61516 21.9994 2.43211 22.0904C2.31785 22.1474 2.3068 21.9994 2.21527 21.9994C2.2036 21.9653 2.20359 21.9311 2.19253 21.897C2.27239 21.8287 2.22632 21.7946 2.15813 21.7718C2.11206 21.6238 2.07829 21.4645 2.03222 21.3165C1.98676 21.0434 1.95235 20.7702 1.9069 20.497C1.9069 20.2922 1.91797 20.0987 1.86084 19.8938C1.88357 19.2905 1.91796 18.6874 1.98676 18.0841C2.08934 17.6744 2.19255 17.2646 2.29513 16.8549C2.37499 16.6387 2.45484 16.4224 2.5353 16.2061C2.70669 15.8533 2.88913 15.5004 3.06051 15.1476C3.20917 14.92 3.35781 14.681 3.50646 14.4534C3.62072 14.294 3.74604 14.1461 3.8603 13.9867C3.99728 13.7818 4.13486 13.6225 4.27185 13.4632Z" fill="#21291E"/>
<path d="M17.9596 27.3488C17.548 27.8382 16.9767 28.1228 16.4171 28.4073C16.3827 28.009 16.0173 27.8041 15.8797 27.4741C15.8569 27.4285 15.7543 27.383 15.6972 27.4285C15.5258 27.5309 15.3084 27.5878 15.1831 27.7586C14.9656 27.7927 14.7715 27.861 14.5891 27.9976C14.269 28.1114 13.9607 28.2252 13.6406 28.339C13.3894 28.3618 13.1609 28.4643 12.9324 28.5325C12.7377 28.487 12.5435 28.5667 12.3611 28.6008C12.0294 28.6691 11.6756 28.5781 11.3556 28.726C10.7616 28.6805 10.1669 28.635 9.57293 28.5894C9.08151 28.4756 8.56738 28.4187 8.0993 28.2366C7.85912 28.157 7.6306 28.0659 7.39104 27.9862C7.18525 27.861 6.97947 27.7358 6.73929 27.6903C6.55685 27.4171 6.20242 27.4171 5.97391 27.2236C5.82525 27.0187 5.60843 26.9163 5.37992 26.8139C5.37992 26.7114 5.31112 26.6659 5.23126 26.6204C5.17413 26.5863 5.09428 26.5407 5.117 26.4724C5.13973 26.37 5.24292 26.4156 5.32278 26.4041C5.44871 26.3814 5.57402 26.4497 5.68827 26.3473C5.72267 26.3473 5.76813 26.3473 5.80253 26.3473C5.88239 26.3928 5.95119 26.4383 6.03104 26.4838C8.24795 28.0204 10.6584 28.4643 13.2752 27.8041C14.0633 27.5992 14.7832 27.2464 15.5031 26.8708C15.5602 26.8708 15.6057 26.8594 15.6174 26.8025C15.6401 26.7797 15.6628 26.7684 15.6855 26.7456C15.8115 26.6204 15.9601 26.5294 16.1198 26.4497C16.1653 26.4383 16.1997 26.4269 16.2224 26.3814C16.2568 26.3586 16.2912 26.3245 16.3256 26.3017C16.4399 26.3928 16.5885 26.4041 16.7255 26.4156C16.954 26.4383 17.1365 26.5066 17.3078 26.7229C17.4565 26.9619 17.5707 27.3375 17.9596 27.3488Z" fill="#E7EAE5"/>
<path d="M3.5174 11.9038C3.40314 12.0518 3.32328 12.2339 3.14023 12.3136C3.07204 12.2453 3.09479 12.177 3.09479 12.1087C3.08312 10.925 3.09479 9.74127 3.09479 8.55761C3.09479 5.90566 5.1059 2.63912 7.90514 1.55786C7.90514 1.60339 7.90514 1.64892 7.90514 1.70582C7.5851 1.88793 7.21961 2.02451 6.93398 2.24076C6.14525 2.86675 5.37987 3.53828 4.82027 4.42605C4.55736 4.84717 4.30612 5.26829 4.12306 5.73494C3.8147 6.3154 3.70045 6.95279 3.5518 7.57877C3.44921 8.26167 3.41482 8.94457 3.44922 9.63883C3.46028 10.1738 3.46027 10.7088 3.483 11.2436C3.483 11.4599 3.44921 11.6762 3.5174 11.9038Z" fill="#696969"/>
<path d="M18.9645 11.6535C18.8619 11.8697 18.9534 12.0746 18.9645 12.2908C18.9645 12.3705 18.9534 12.4502 18.9534 12.5412C18.7133 12.4957 18.6217 12.3136 18.5308 12.1201C18.588 11.5852 18.5536 11.0502 18.5536 10.5153C18.5646 10.1397 18.5536 9.7527 18.588 9.37711C18.6334 8.91044 18.5763 8.44383 18.5075 7.97716C18.4049 7.20318 18.2562 6.45199 17.9135 5.74634C17.4454 4.73337 16.8852 3.78869 16.051 3.04888C15.6972 2.74158 15.3317 2.44565 14.9656 2.14972C14.9889 2.12696 15.0116 2.1042 15.0344 2.07005C16.4626 2.85539 17.4792 4.01632 18.142 5.48456C18.6451 6.58857 18.9307 7.7495 18.8846 8.97873C18.8619 9.76406 18.8846 10.5494 18.8846 11.3234C18.8963 11.4372 18.8619 11.5624 18.9645 11.6535Z" fill="#696969"/>
<path d="M1.9977 18.0499C1.92952 18.6532 1.88344 19.2564 1.87239 19.8596C1.31218 19.8824 0.763633 19.9051 0.204036 19.9279C0.14691 19.3588 0.226767 18.7898 0.249495 18.232C0.329964 18.2093 0.398155 18.1865 0.295573 18.1069C0.318301 18.0272 0.329964 17.9475 0.352692 17.8679C0.672725 17.8679 0.99215 17.8792 1.31218 17.9589C1.52963 18.0158 1.75814 18.0613 1.9977 18.0499Z" fill="#9C9C9C"/>
<path d="M3.5174 11.9039C3.44921 11.6876 3.49467 11.46 3.483 11.2323C3.47194 10.6974 3.46028 10.1625 3.44922 9.62751C3.66606 9.59337 3.8491 9.52508 3.83743 9.25191C3.8147 8.64873 3.89456 8.04548 4.02048 7.45365C4.00881 7.26014 4.16853 7.1122 4.1458 6.91869C4.19187 6.8959 4.20292 6.8504 4.20292 6.80489C4.35157 6.29272 4.60281 5.82605 4.79692 5.33663C4.93452 5.21143 4.99163 5.01794 5.09421 4.8586C5.15134 4.83583 5.22014 4.80169 5.20847 4.9155C5.13967 5.0407 5.08256 5.17728 5.01438 5.30248C4.69434 5.99677 4.4431 6.71382 4.31718 7.46501C4.1114 8.72838 4.2146 10.0031 4.2146 11.2665C4.13474 11.5511 3.80304 11.6079 3.66605 11.8356C3.60893 11.8697 3.56347 11.8811 3.5174 11.9039Z" fill="#9C9C9C"/>
<path d="M2.19227 21.8742C2.20333 21.9084 2.20334 21.9425 2.21501 21.9767C2.24941 22.3523 2.45458 22.6824 2.5461 23.0465C2.39745 23.1262 2.22606 23.1831 2.05468 23.24C1.67813 23.3766 1.3581 23.627 0.935484 23.6384C0.672577 23.2059 0.56938 22.7165 0.466797 22.227C0.61545 22.227 0.752432 22.2043 0.901085 22.1815C1.31203 22.0905 1.70086 21.8856 2.13515 21.8742H2.15787H2.19227Z" fill="#D9D9D9"/>
<path d="M1.99775 18.05C1.75818 18.0727 1.52967 18.0158 1.30116 17.9589C0.981127 17.8792 0.661099 17.8792 0.341064 17.8679C0.375464 17.4467 0.466977 17.037 0.603959 16.6386C0.764284 16.6159 0.752621 16.3086 0.98113 16.4223C1.22131 16.5476 1.49528 16.5362 1.74651 16.6614C1.90684 16.7411 2.08928 16.8435 2.29506 16.8094C2.20353 17.2305 2.10094 17.6402 1.99775 18.05Z" fill="#B1B1B1"/>
<path d="M3.65454 11.8584C3.79214 11.6194 4.12323 11.5738 4.20309 11.2893C4.38614 11.3006 4.47766 11.1413 4.60297 11.0616C4.70617 11.0503 4.79709 11.0503 4.90028 11.0389C5.3229 11.3348 5.58581 11.7332 5.6202 12.2567C5.3573 12.4616 5.10605 12.6665 4.84315 12.8713C4.83148 12.803 4.84315 12.7234 4.75163 12.712C4.7289 12.712 4.70617 12.7347 4.68283 12.7462C4.71723 12.7917 4.75162 12.8372 4.77435 12.8827C4.78602 12.9283 4.75163 12.9396 4.71723 12.9396C4.24916 12.712 3.9973 12.234 3.65454 11.8584Z" fill="#F1F1F1"/>
<path d="M3.07213 15.1135C2.90075 15.4663 2.71771 15.8192 2.54633 16.172C2.39768 16.1948 2.29509 16.081 2.16917 16.0355C1.78095 15.8989 1.39273 15.7281 1.00391 15.5802C1.11816 15.1249 1.34668 14.7266 1.60958 14.351C1.80369 14.3623 1.97507 14.442 2.14645 14.5559C2.43208 14.7493 2.7521 14.92 3.07213 15.1135Z" fill="#C9C9C9"/>
<path d="M9.573 28.5895C10.167 28.635 10.7616 28.6806 11.3556 28.7261C11.2985 29.0903 11.39 29.4431 11.4011 29.8073C10.7155 29.8415 10.0189 29.8415 9.34448 29.7276C9.42434 29.352 9.36722 28.9537 9.573 28.5895Z" fill="#888888"/>
<path d="M17.9596 27.3487C17.5597 27.3374 17.4565 26.9618 17.2741 26.7341C17.1027 26.5179 16.9197 26.4496 16.6912 26.4268C16.5425 26.4155 16.4055 26.4041 16.2913 26.313C16.4172 26.2106 16.5425 26.1082 16.6795 25.9944C17.1365 26.0285 17.5708 26.0171 17.9025 25.6301C18.1648 25.9602 18.5076 26.2106 18.7932 26.5179C18.8049 26.6431 18.725 26.7228 18.6452 26.8138C18.5647 26.9049 18.4394 26.9618 18.4277 27.1097C18.2219 27.087 18.1421 27.3032 17.9596 27.3487Z" fill="#E3E3E3"/>
<path d="M9.57295 28.5894C9.36717 28.9423 9.42429 29.352 9.34444 29.739C8.77316 29.7048 8.22462 29.5797 7.68774 29.4089C7.8364 29.0219 7.91626 28.6122 8.09932 28.2366C8.56739 28.4187 9.08153 28.4756 9.57295 28.5894Z" fill="#9C9C9C"/>
<path d="M3.01502 26.8252C2.80923 26.7114 2.69498 26.4952 2.44374 26.3927C2.16916 26.2789 2.20354 25.7667 2.45478 25.5847C2.56904 25.5049 2.67223 25.4139 2.77482 25.3229C2.95787 25.1521 2.95789 25.1521 3.63175 24.9928C3.66615 24.9928 3.68887 25.0042 3.72327 25.0042C3.7804 25.2773 4.03164 25.4025 4.19197 25.596C4.19197 25.6302 4.20303 25.6757 4.20303 25.7098C3.72327 25.8578 3.47203 26.3244 3.07214 26.5862C2.98061 26.6204 3.01502 26.7342 3.01502 26.8252Z" fill="#F1F1F1"/>
<path d="M11.4009 29.8187C11.4009 29.4544 11.2983 29.1016 11.3554 28.7374C11.6755 28.5895 12.0293 28.6691 12.361 28.6122C12.5434 28.578 12.7375 28.5097 12.9323 28.5439C12.9433 28.6008 12.955 28.6577 12.9661 28.7146C12.9777 29.0219 13.2062 29.3065 13.0576 29.6365C12.509 29.7504 11.9611 29.8187 11.4009 29.8187Z" fill="#9C9C9C"/>
<path d="M5.67747 26.3472C5.57427 26.4497 5.4373 26.3927 5.31137 26.4042C5.24319 26.4155 5.13998 26.37 5.1062 26.4724C5.08285 26.5407 5.16333 26.5862 5.22045 26.6204C5.30031 26.6659 5.36849 26.7115 5.36849 26.8139C5.27758 26.8139 5.17438 26.7911 5.11726 26.8708C4.85435 27.2009 4.61478 27.5423 4.35187 27.8838C4.0435 27.8383 3.88316 27.5651 3.6436 27.4057C3.63192 27.2805 3.68907 27.1895 3.78059 27.1326C4.05456 26.9391 4.22593 26.6545 4.45445 26.4155C4.58037 26.2789 4.59205 26.1537 4.53492 25.9944C4.92315 26.0171 5.31136 26.0171 5.64307 26.2789H5.66581C5.68854 26.3017 5.67747 26.3244 5.67747 26.3472Z" fill="#E3E3E3"/>
<path d="M5.96283 27.235C6.2024 27.4285 6.54516 27.4285 6.72822 27.7017C6.73927 27.8041 6.68215 27.8724 6.62502 27.9634C6.44258 28.2593 6.24848 28.5439 6.19135 28.8967C5.81419 28.817 5.48248 28.6463 5.18579 28.4187C5.24292 27.8837 5.65386 27.5878 5.96283 27.235Z" fill="#C9C9C9"/>
<path d="M4.54593 25.9944C4.60306 26.1537 4.592 26.2676 4.46607 26.4155C4.23756 26.6546 4.06617 26.9391 3.7922 27.1326C3.70068 27.2009 3.64355 27.292 3.65461 27.4057C3.44944 27.2009 3.17486 27.0643 3.00348 26.8139C3.00348 26.7228 2.98076 26.6204 3.06061 26.5635C3.47218 26.3131 3.71173 25.8464 4.1921 25.6871C4.31741 25.8009 4.43168 25.9034 4.54593 25.9944Z" fill="#E7EAE5"/>
<path d="M1.90628 20.4628C1.95235 20.736 1.98612 21.0092 2.03219 21.2823C1.72383 21.2709 1.42652 21.3279 1.12921 21.3847C0.866912 21.4303 0.626726 21.5441 0.352759 21.5213C0.215161 21.2027 0.238501 20.8498 0.204102 20.5198C0.306686 20.588 0.352757 20.736 0.535197 20.7018C0.992218 20.6108 1.44925 20.5425 1.90628 20.4628Z" fill="#BCBCBC"/>
<path d="M0.992857 15.5687C1.38108 15.7281 1.76929 15.8874 2.15812 16.024C2.28344 16.0695 2.38664 16.1947 2.5353 16.1606C2.45483 16.3768 2.37498 16.5931 2.29512 16.8093C2.08934 16.8435 1.9069 16.741 1.74657 16.6614C1.49533 16.5361 1.22136 16.5476 0.981178 16.4224C0.752667 16.2971 0.752659 16.6159 0.604004 16.6386C0.695531 16.2744 0.798131 15.8988 0.992857 15.5687Z" fill="#BCBCBC"/>
<path d="M5.96303 27.235C5.65405 27.5879 5.24311 27.8952 5.19704 28.4187C4.87762 28.3163 4.60302 28.1342 4.37451 27.8952C4.62575 27.5537 4.87761 27.2123 5.1399 26.8822C5.19703 26.8025 5.30023 26.8367 5.39176 26.8253C5.59693 26.9163 5.81438 27.0301 5.96303 27.235Z" fill="#D9D9D9"/>
<path d="M3.09471 24.162C2.78634 24.3555 2.46629 24.5376 2.16898 24.7538C1.66651 25.118 1.34648 24.9815 1.2439 24.3441C1.40361 24.3213 1.54058 24.2303 1.66651 24.162C2.02095 23.9457 2.43189 23.8319 2.74026 23.536C2.85451 23.7522 3.02591 23.923 3.09471 24.162Z" fill="#F1F1F1"/>
<path d="M4.27194 13.4632C4.13496 13.6225 3.99737 13.7819 3.86039 13.9412C3.51763 13.9071 3.25471 13.7022 3.01514 13.4746C2.83209 13.3039 2.62631 13.1786 2.36401 13.2128C2.44387 13.0079 2.60357 12.86 2.74055 12.7006C2.8892 12.5413 3.02619 12.4616 3.27804 12.6551C3.56368 12.8827 3.76885 13.1786 4.07783 13.3721C4.14601 13.4176 4.20315 13.4632 4.27194 13.4632Z" fill="#F1F1F1"/>
<path d="M13.6519 28.3505C13.9719 28.2366 14.2803 28.1228 14.6003 28.009C14.6003 28.1456 14.6464 28.2594 14.7035 28.3732C14.8288 28.6122 14.9431 28.8398 14.8976 29.1244C14.6003 29.2609 14.2919 29.3862 13.9492 29.4317C13.9037 29.0447 13.6635 28.7261 13.6519 28.3505Z" fill="#BCBCBC"/>
<path d="M3.07195 15.1135C2.76359 14.9315 2.44356 14.7607 2.14625 14.5559C1.97486 14.4421 1.81516 14.3624 1.60938 14.351C1.7009 14.1006 1.84955 13.8957 2.02093 13.7022C2.23777 13.8388 2.47796 13.9526 2.6948 14.0778C2.94604 14.2258 3.18621 14.4421 3.51731 14.4193C3.35759 14.6469 3.20894 14.8745 3.07195 15.1135Z" fill="#D9D9D9"/>
<path d="M1.90689 20.4629C1.44987 20.5426 0.992859 20.6108 0.535842 20.7019C0.352789 20.7361 0.318385 20.5881 0.20413 20.5198C0.169731 20.3263 0.169746 20.1214 0.193089 19.9279C0.752689 19.9052 1.30123 19.8824 1.86083 19.8596C1.91796 20.0645 1.90689 20.258 1.90689 20.4629Z" fill="#B1B1B1"/>
<path d="M0.352832 21.5215C0.626801 21.5442 0.878665 21.4304 1.12991 21.3849C1.4266 21.328 1.72391 21.271 2.03228 21.2824C2.07835 21.4304 2.11213 21.5898 2.1582 21.7377C2.1582 21.7832 2.14654 21.8173 2.14654 21.8629C1.71224 21.8743 1.32402 22.0905 0.912448 22.1702C0.764407 22.2044 0.626812 22.2157 0.47877 22.2157C0.398299 21.9995 0.341161 21.7718 0.352832 21.5215Z" fill="#C9C9C9"/>
<path d="M2.74045 23.536C2.43209 23.8319 2.02114 23.9571 1.66671 24.162C1.52972 24.2416 1.4038 24.3327 1.24409 24.3441C1.09544 24.1278 0.992848 23.9002 0.946777 23.6384C1.35834 23.627 1.68944 23.3766 2.0666 23.2401C2.22631 23.1831 2.39769 23.1263 2.55801 23.0465C2.61514 23.1604 2.68332 23.2856 2.74045 23.3994C2.74045 23.4449 2.74045 23.4904 2.74045 23.536Z" fill="#E7EAE5"/>
<path d="M3.5065 14.4078C3.17479 14.4305 2.93523 14.2143 2.68337 14.0663C2.45486 13.9297 2.22636 13.8273 2.00952 13.6907C2.08938 13.4973 2.20363 13.3379 2.36396 13.2241C2.62625 13.1785 2.82098 13.3151 3.01509 13.4858C3.26633 13.7021 3.51757 13.907 3.86034 13.9525C3.74608 14.1005 3.63181 14.2598 3.5065 14.4078Z" fill="#E7EAE5"/>
<path d="M6.20239 28.8854C6.27119 28.5325 6.45363 28.248 6.63668 27.9521C6.69381 27.8724 6.73926 27.7927 6.73926 27.6903C6.97944 27.7244 7.18522 27.8496 7.391 27.9862C7.3566 28.1683 7.23068 28.3163 7.17355 28.487C7.09369 28.7261 6.92231 28.9423 6.97943 29.204C6.70547 29.1357 6.4309 29.0675 6.20239 28.8854Z" fill="#BCBCBC"/>
<path d="M14.8858 29.113C14.9319 28.8398 14.806 28.6008 14.6917 28.3618C14.6346 28.248 14.5891 28.1341 14.5891 27.9976C14.7605 27.861 14.9657 27.7927 15.1831 27.7585C15.5032 28.0203 15.7317 28.3277 15.7655 28.7488C15.4798 28.874 15.2058 29.0561 14.8858 29.113Z" fill="#C9C9C9"/>
<path d="M6.97945 29.2154C6.92233 28.9423 7.09372 28.726 7.17357 28.4984C7.2307 28.3276 7.35663 28.1796 7.39103 27.9976C7.6306 28.0772 7.85912 28.1683 8.0993 28.2479C7.91624 28.6235 7.83638 29.0333 7.68772 29.4203C7.42481 29.3975 7.20797 29.3064 6.97945 29.2154Z" fill="#B1B1B1"/>
<path d="M13.6517 28.3504C13.6634 28.726 13.9035 29.0446 13.949 29.4202C13.6634 29.5227 13.3661 29.6137 13.0577 29.6365C13.218 29.3178 12.9895 29.0219 12.9662 28.7146C12.9662 28.6577 12.9434 28.6008 12.9324 28.5439C13.1719 28.4756 13.4004 28.3617 13.6517 28.3504Z" fill="#B1B1B1"/>
<path d="M15.7654 28.7601C15.72 28.339 15.5031 28.0203 15.1831 27.7699C15.3084 27.5878 15.5259 27.5423 15.6972 27.4398C15.7654 27.4057 15.857 27.4398 15.8797 27.4853C16.0283 27.8154 16.3828 28.0317 16.4172 28.4187C16.2224 28.5553 16.0283 28.7032 15.7654 28.7601Z" fill="#D9D9D9"/>
<path d="M2.74029 23.536C2.74029 23.4905 2.72925 23.4449 2.72925 23.4107C2.92336 23.5929 3.17459 23.5929 3.41476 23.5929C3.5972 23.8205 3.74585 24.0709 3.84905 24.3441C3.64327 24.4237 3.43749 24.2075 3.23171 24.3668C3.14019 24.3327 3.14018 24.2302 3.08306 24.1734C3.02593 23.9229 2.85454 23.7522 2.74029 23.536Z" fill="#888888"/>
<path d="M3.24365 24.3555C3.44943 24.2075 3.65462 24.4124 3.8604 24.3327C4.11164 24.5262 4.26029 24.7994 4.43167 25.0498C4.20316 24.9587 3.96358 24.9245 3.7234 25.0042C3.689 25.0042 3.66628 24.9928 3.63188 24.9928C3.51763 24.7652 3.32351 24.5945 3.24365 24.3555Z" fill="#9C9C9C"/>
<path d="M10.5784 0.943244C10.8296 0.818043 11.0925 0.874954 11.3554 0.886333C12.1552 0.943244 12.9323 1.13673 13.686 1.39851C13.7204 1.40989 13.7431 1.44403 13.7658 1.4668C13.7658 1.50094 13.7658 1.52371 13.7658 1.55786C12.7375 1.17087 11.6755 0.977389 10.5784 1.02291C10.5784 1.01153 10.5784 0.977389 10.5784 0.943244Z" fill="#9C9C9C"/>
<path d="M10.5786 0.943246C10.5786 0.977391 10.5786 1.01154 10.5786 1.04568C10.293 1.07983 9.99565 1.11397 9.71002 1.14812C9.23027 1.20503 8.79598 1.42128 8.33896 1.51233C8.30517 1.45542 8.24805 1.45542 8.19092 1.43266C8.70507 1.1595 9.27634 1.07983 9.84761 0.977391C10.0073 0.954632 10.1787 0.943246 10.3384 0.931866C10.3845 0.988777 10.4189 0.977391 10.4527 0.920486C10.4988 0.931866 10.5331 0.931866 10.5786 0.943246Z" fill="#888888"/>
<path d="M13.7659 1.56928C13.7659 1.53514 13.7659 1.51237 13.7659 1.47823C14.1547 1.58066 14.5085 1.74001 14.8402 1.96764C14.8175 2.00179 14.7831 2.02455 14.7604 2.05869C14.4287 1.88797 14.0976 1.72863 13.7659 1.56928Z" fill="#888888"/>
<path d="M14.7605 2.04729C14.7832 2.01315 14.8176 1.99038 14.8404 1.95624C14.8975 1.99038 14.9657 2.02453 15.0228 2.05867C15.0001 2.08144 14.9773 2.1042 14.9546 2.12696C14.8975 2.11558 14.8287 2.08144 14.7605 2.04729Z" fill="#696969"/>
<path d="M7.9165 1.69443C7.9165 1.64891 7.9165 1.60338 7.9165 1.54647C7.93924 1.50095 7.9853 1.48956 8.03077 1.50095C8.03077 1.54647 8.03078 1.592 8.04245 1.64891C8.00804 1.69443 7.96259 1.69443 7.9165 1.69443Z" fill="#888888"/>
<path d="M10.4526 0.920564C10.4189 0.977468 10.3845 0.988853 10.3384 0.931944C10.3728 0.886419 10.4189 0.886419 10.4526 0.920564Z" fill="#9C9C9C"/>
<path d="M8.03057 1.64897C8.03057 1.60344 8.03059 1.55791 8.01953 1.501C8.05332 1.48962 8.07665 1.47824 8.11043 1.46686C8.13378 1.48962 8.15651 1.52377 8.17924 1.54653C8.13378 1.58068 8.0877 1.61482 8.03057 1.64897Z" fill="#696969"/>
<path d="M0.283983 18.1069C0.387177 18.1865 0.318378 18.2093 0.238525 18.232C0.238525 18.1865 0.238529 18.141 0.283983 18.1069Z" fill="#B1B1B1"/>
<path d="M8.19091 1.43268C8.24805 1.45544 8.30518 1.45544 8.33896 1.51235C8.2935 1.52373 8.24805 1.53511 8.20197 1.54649C8.17924 1.52373 8.15652 1.48959 8.13379 1.46682C8.14485 1.45544 8.16757 1.44406 8.19091 1.43268Z" fill="#696969"/>
<path d="M33.7152 15.2842C33.4523 15.6029 33.1894 15.933 32.9271 16.2517C32.5727 16.6955 32.4701 16.6842 32.1955 16.172C32.0358 15.8761 31.8755 15.5688 31.7158 15.2842C31.5898 15.307 31.6132 15.398 31.6015 15.455C31.5561 15.7851 31.51 16.1151 31.4756 16.4452C31.4185 16.9915 31.0646 17.2305 30.5278 17.1053C30.4018 17.0711 30.4018 17.0029 30.4135 16.9118C30.5388 15.8988 30.6647 14.8859 30.7901 13.8843C30.8017 13.8274 30.8017 13.7819 30.8816 13.7477C31.1562 13.6339 31.6586 13.7819 31.83 14.0437C32.0585 14.3851 32.2643 14.7379 32.4928 15.0907C32.6986 15.398 32.6986 15.398 32.9382 15.1249C33.2465 14.7721 33.5783 14.4306 33.875 14.0664C34.1379 13.7249 34.4923 13.7363 34.8578 13.7477C34.9837 13.7477 34.9948 13.8274 34.9837 13.9298C34.8695 14.829 34.7663 15.7168 34.641 16.6159C34.5838 17.0256 34.0807 17.276 33.7036 17.1167C33.5783 17.0598 33.6237 16.9687 33.6354 16.8891C33.6925 16.3655 33.7607 15.8419 33.8178 15.3184C33.7607 15.307 33.738 15.2956 33.7152 15.2842Z" fill="#F6FCEC"/>
<path d="M46.1918 17.185C45.7464 17.1964 45.3348 17.1281 44.9466 16.8891C44.661 16.7184 44.5123 16.4566 44.4896 16.1379C44.4552 15.6371 44.524 15.1363 44.6837 14.6583C44.8551 14.1688 45.2206 13.8957 45.7003 13.7591C46.2489 13.6112 46.8091 13.5998 47.3687 13.7364C47.9854 13.8843 48.3398 14.3168 48.3054 14.9428C48.2944 15.2501 48.2483 15.5688 48.1912 15.8761C48.0426 16.6273 47.5517 17.037 46.6948 17.1509C46.5345 17.1736 46.3631 17.1736 46.1918 17.185ZM46.2489 16.5818C46.752 16.5818 47.0487 16.3883 47.1746 15.9785C47.2772 15.6257 47.3116 15.2501 47.3232 14.8745C47.3343 14.6697 47.2544 14.4876 47.0714 14.3737C46.626 14.055 45.8146 14.3054 45.6205 14.8176C45.5062 15.1249 45.4952 15.455 45.4608 15.7737C45.4264 16.3769 45.6321 16.5931 46.2489 16.5818Z" fill="#F6FCEC"/>
<path d="M27.6596 17.185C27.237 17.1963 26.8371 17.1394 26.46 16.9232C26.1055 16.7183 25.9231 16.411 25.9231 16.0126C25.9231 15.6029 25.9802 15.1931 26.0828 14.7948C26.2314 14.2485 26.6086 13.907 27.1572 13.7705C27.7284 13.6225 28.3107 13.6111 28.882 13.7705C29.3734 13.8956 29.7045 14.2485 29.7389 14.7379C29.7733 15.2387 29.7162 15.7394 29.5448 16.2175C29.3046 16.8662 28.745 17.0939 28.105 17.185C27.9569 17.185 27.8083 17.185 27.6596 17.185ZM27.694 16.5817C28.1965 16.5817 28.5049 16.3882 28.6191 15.9671C28.7106 15.6143 28.7567 15.2614 28.7678 14.8972C28.7794 14.7037 28.7223 14.5216 28.562 14.3964C28.0939 14.0208 27.2026 14.294 27.054 14.8745C26.9741 15.159 26.9514 15.4549 26.917 15.7394C26.8482 16.3768 27.054 16.5931 27.694 16.5817Z" fill="#F6FCEC"/>
<path d="M37.2568 17.185C36.8341 17.1964 36.4343 17.1394 36.0688 16.9232C35.7371 16.7183 35.5657 16.4338 35.5657 16.0468C35.5657 15.6029 35.6117 15.159 35.7371 14.7379C35.8857 14.2371 36.2401 13.9184 36.731 13.7819C37.3022 13.6225 37.8735 13.5998 38.4564 13.7477C39.1192 13.9184 39.462 14.4078 39.3821 15.0794C39.3588 15.2842 39.325 15.4891 39.3017 15.694C39.2108 16.4907 38.7875 16.9573 38.0111 17.1281C37.7482 17.1736 37.508 17.185 37.2568 17.185ZM37.3256 16.5931C37.828 16.5931 38.1253 16.3997 38.2507 15.9785C38.3649 15.6143 38.3876 15.2273 38.3876 14.8517C38.3876 14.6696 38.3305 14.5103 38.1708 14.3965C37.6911 14.055 36.8341 14.3282 36.6855 14.8973C36.6167 15.159 36.594 15.4322 36.5485 15.7053C36.457 16.3314 36.6855 16.5931 37.3256 16.5931Z" fill="#F6FCEC"/>
<path d="M41.6558 13.7477C41.9869 13.759 42.4556 13.7135 42.9009 13.8729C43.4384 14.055 43.7124 14.3964 43.6897 14.9655C43.678 15.3297 43.6436 15.6939 43.5527 16.0468C43.4151 16.6045 43.0612 16.9345 42.5127 17.0484C41.8044 17.1963 41.0845 17.128 40.3646 17.1053C40.1017 17.0939 39.9874 16.9345 40.0218 16.6614C40.1017 16.0809 40.1705 15.4891 40.2393 14.9086C40.2504 14.772 40.2964 14.7037 40.4561 14.6924C41.0962 14.6468 41.2786 14.8858 41.1761 15.4321C41.1189 15.7053 41.1073 16.0013 41.0729 16.2744C41.0501 16.4338 41.0962 16.5134 41.2676 16.5134C41.4961 16.5134 41.7246 16.5134 41.9414 16.4679C42.3868 16.3655 42.5471 16.1948 42.627 15.7395C42.6497 15.5802 42.6724 15.4094 42.7068 15.2501C42.8211 14.6013 42.5354 14.3964 41.9414 14.3509C41.5759 14.3281 41.2104 14.3395 40.8443 14.3395C40.6275 14.3395 40.5016 14.2257 40.4445 14.0208C40.399 13.8388 40.4334 13.7363 40.6502 13.7477C40.9359 13.759 41.2332 13.7477 41.6558 13.7477Z" fill="#F6FCEC"/>
<path d="M24.6319 13.7477C24.9059 13.7477 25.1804 13.7477 25.4544 13.7477C25.6485 13.7477 25.6719 13.8273 25.5914 13.9867C25.4888 14.2144 25.3291 14.3509 25.0662 14.3509C24.7689 14.3509 24.4722 14.3509 24.1866 14.3623C23.6153 14.3851 23.3524 14.6013 23.2381 15.1704C23.192 15.398 23.1693 15.637 23.1466 15.8647C23.1239 16.2403 23.2725 16.4338 23.6491 16.4906C24.095 16.5589 24.552 16.5134 25.0091 16.5134C25.3174 16.5134 25.3518 16.5704 25.2032 16.8549C25.1117 17.0142 24.9863 17.1167 24.8033 17.1167C24.2547 17.1167 23.7062 17.1736 23.1583 17.0598C22.4727 16.9118 22.141 16.4906 22.2098 15.7964C22.2553 15.3753 22.2553 14.9314 22.4727 14.5444C22.7584 14.0208 23.2381 13.8273 23.7867 13.7705C24.0723 13.7363 24.3579 13.7705 24.6436 13.7705C24.6319 13.759 24.6319 13.7477 24.6319 13.7477Z" fill="#F6FCEC"/>
<path d="M21.673 18.1183C21.5925 18.1183 21.5127 18.0841 21.5243 18.0045C21.5354 17.7541 21.4328 17.5378 21.3874 17.2988C21.2958 16.8436 21.2387 16.3655 21.0329 15.933C20.9985 15.8534 20.9414 15.8078 20.8499 15.8078C20.8044 15.7053 20.7356 15.6029 20.7018 15.4891C20.4733 14.8859 20.176 14.3282 19.7989 13.8046C19.6963 13.5998 19.582 13.4063 19.4334 13.2128C19.2737 12.9965 19.0335 12.8144 18.9536 12.5299C18.9536 12.4502 18.9647 12.3706 18.9647 12.2795C19.8449 13.2014 20.4844 14.2713 20.9758 15.4322C21.3186 16.3086 21.5243 17.2077 21.673 18.1183Z" fill="#EAF8D4"/>
<path d="M4.43153 25.0497C4.26015 24.7879 4.1115 24.5261 3.86026 24.3326C3.75768 24.0595 3.59735 23.8091 3.42597 23.5814C3.23186 23.1262 3.03775 22.6823 2.84364 22.227C2.78652 21.7831 2.64953 21.3506 2.58073 20.9068C2.34055 19.3133 2.5236 17.7768 3.152 16.3085C4.13483 14.0208 5.8253 12.4501 8.17918 11.6079C9.17307 11.2437 10.213 11.073 11.2757 11.1185C13.4349 11.2209 15.3201 11.9835 16.8969 13.4858C18.3595 14.8744 19.1931 16.5703 19.4787 18.5393C19.6501 19.7117 19.4904 20.8612 19.2164 21.9994C19.1931 22.079 19.1703 22.1587 19.1359 22.2498C19.0333 22.5343 18.8964 22.8075 18.8503 23.1148C18.6218 23.3993 18.4621 23.718 18.3251 24.0595C18.1764 24.2188 18.0395 24.3781 17.9596 24.583C17.7421 24.8562 17.5136 25.1293 17.2968 25.3911C17.0683 25.5732 16.8508 25.7554 16.6795 25.9944C16.5542 26.0968 16.4282 26.1992 16.2913 26.313C16.2569 26.3358 16.2224 26.37 16.1887 26.3927C16.1426 26.3927 16.1082 26.4155 16.0855 26.461C15.9257 26.5293 15.7771 26.6203 15.6512 26.7569C15.6284 26.7797 15.6057 26.7911 15.583 26.8139C15.5259 26.8139 15.4915 26.8366 15.4687 26.8821C14.7605 27.2577 14.0406 27.6106 13.2408 27.8154C10.624 28.4755 8.21359 28.0431 5.99669 26.4951C5.92851 26.4496 5.84865 26.4041 5.76818 26.3585C5.75712 26.313 5.72271 26.2903 5.67726 26.2903C5.40268 26.0399 5.11704 25.7895 4.84308 25.5391C4.79701 25.4025 4.68277 25.3342 4.58018 25.2545C4.56851 25.1976 4.54577 25.1521 4.47759 25.1407C4.46592 25.0952 4.45426 25.0725 4.43153 25.0497ZM7.74489 12.2908C7.67671 12.3022 7.60792 12.3022 7.53912 12.3249C6.68221 12.6892 5.90577 13.19 5.24297 13.8614C4.98006 14.1346 4.75157 14.4306 4.51139 14.7151C4.15757 15.1362 3.746 15.5801 3.58629 16.0809C3.40323 16.6386 3.02608 17.1167 3.02608 17.7654C3.02608 18.1524 2.86636 18.5735 2.8209 18.9832C2.68331 20.0076 2.87804 20.9978 3.12928 21.988C3.2208 22.3522 3.46037 22.6482 3.56357 23.0123C3.65448 23.3311 3.80312 23.6269 4.0089 23.9115C4.15755 24.1164 4.37439 24.2643 4.47759 24.4806C4.64897 24.8562 4.95733 25.118 5.20857 25.4253C5.41435 25.6643 5.69999 25.835 5.93955 26.0512C6.1914 26.2789 6.46537 26.5179 6.77373 26.6545C7.31061 26.8821 7.83642 27.1553 8.39602 27.3602C9.17307 27.6447 9.97286 27.7243 10.7726 27.7585C11.7555 27.8041 12.715 27.6675 13.6517 27.3146C14.2003 27.1097 14.7372 26.8821 15.2402 26.5976C15.9368 26.2106 16.497 25.6529 17.0566 25.0952C17.7077 24.4578 18.142 23.6725 18.5192 22.853C18.6218 22.614 18.8392 22.4205 18.8503 22.1473C18.862 21.7604 18.9879 21.3961 19.0905 21.0319C19.2275 20.5653 19.2391 20.0873 19.2502 19.632C19.2619 19.1539 19.2275 18.6645 19.0905 18.1865C19.0217 17.9247 19.045 17.6174 18.9074 17.4012C18.6679 17.0256 18.5419 16.6045 18.3595 16.2061C18.1992 15.8646 18.1076 15.5004 17.8564 15.1704C17.4909 14.6924 17.1365 14.2143 16.7139 13.7818C16.5081 13.5769 16.2114 13.4745 16.0283 13.2924C15.6285 12.894 15.1487 12.655 14.6917 12.3591C14.5774 12.2794 14.4632 12.2339 14.3489 12.3477C14.2347 12.2908 14.1087 12.2339 13.9945 12.1656C13.949 12.0632 13.9607 11.8697 13.7549 12.0062C13.2862 11.9152 12.8519 11.7103 12.3722 11.6193C11.4926 11.4486 10.6129 11.4258 9.72163 11.6079C9.18475 11.7217 8.6706 11.8925 8.14478 12.0632C7.939 11.9152 7.89355 12.0745 7.84809 12.2225C7.83642 12.268 7.79096 12.2908 7.74489 12.2908Z" fill="#44A903"/>
<path d="M4.61451 11.0616C4.47753 11.1413 4.39706 11.3006 4.21462 11.2892C4.22568 10.0259 4.12309 8.75115 4.3172 7.48778C4.44313 6.72517 4.69437 6.00812 5.0144 5.32524C5.07153 5.18866 5.1397 5.06346 5.2085 4.93826C5.26563 4.88135 5.32277 4.82444 5.3799 4.75615C5.40262 4.90411 5.35717 5.02931 5.30004 5.15452C4.92288 5.89433 4.75149 6.69102 4.60283 7.49915C4.59178 7.56744 4.55738 7.63573 4.63723 7.68123C4.72876 7.7268 4.78589 7.64709 4.82029 7.5788C4.90014 7.41949 4.96832 7.26013 5.02545 7.08941C5.2773 6.4065 5.66552 5.79189 6.08814 5.18866C6.37378 4.80168 6.72822 4.47161 7.03658 4.1074C7.07098 4.09602 7.11644 4.09602 7.15084 4.07325C7.67666 3.59522 8.29338 3.27654 8.95618 3.02613C9.98447 2.63916 11.0238 2.5481 12.0982 2.74159C13.2634 2.94646 14.3145 3.4245 15.1941 4.2326C15.2285 4.31227 15.2856 4.36918 15.3772 4.40332C15.4116 4.42608 15.457 4.44885 15.4914 4.46023C15.4914 4.5399 15.5258 4.58543 15.5829 4.64234C16.2341 5.2228 16.6112 5.97398 16.9651 6.74795C17.1254 7.0894 17.2968 7.43086 17.3649 7.79509C17.4221 8.12512 17.5253 8.43242 17.6051 8.73973C17.6395 8.86495 17.685 8.93324 17.822 8.92188C17.868 9.76408 17.8453 10.6063 17.8336 11.46C17.6506 11.4713 17.5824 11.3462 17.4909 11.221C17.4337 10.8112 17.3766 10.4015 17.3195 9.99174C17.2851 9.60478 17.1481 9.22918 17.0455 8.85359C17.0339 8.79666 17.0222 8.69422 16.9313 8.70558C16.817 8.71701 16.8508 8.81944 16.8508 8.89909C16.8508 9.21776 16.8508 9.54785 16.8508 9.86652C16.8508 10.0714 16.8508 10.2763 16.8508 10.4698C16.8508 10.5608 16.9079 10.686 16.7826 10.7316C16.6567 10.7771 16.634 10.6291 16.5652 10.5722C16.5541 9.75272 16.5885 8.92188 16.5314 8.1024C16.4282 6.74795 15.8686 5.60978 14.9201 4.6651C14.8747 4.60819 14.8286 4.56266 14.7832 4.50576C14.7488 4.46023 14.726 4.40332 14.6916 4.35779C13.7659 3.53831 12.6922 3.03752 11.4698 2.93508C10.1331 2.82126 8.89904 3.18548 7.81363 3.9822C7.44813 4.24398 7.09371 4.52852 6.85353 4.9155C6.17967 5.64393 5.79145 6.5203 5.57399 7.47636C5.37988 8.30727 5.45975 9.14947 5.44869 9.98038C5.43702 10.5267 5.44869 10.5267 5.91677 10.299C5.95116 10.2877 5.99662 10.2763 6.03102 10.2649C6.25953 10.686 6.37379 11.164 6.68215 11.551C6.32833 11.7786 5.98557 12.0063 5.63113 12.234C5.59673 11.7104 5.33444 11.312 4.91121 11.0161C4.91121 10.9819 4.9112 10.9137 4.93455 10.9023C5.24291 10.7316 5.23124 10.4356 5.22018 10.1397C5.20851 10.0031 5.22018 9.86652 5.22018 9.72994C5.22018 9.54785 5.20851 9.35434 5.23124 9.17225C5.25397 8.99017 5.30003 8.80802 5.28836 8.62593C5.2773 8.54628 5.25396 8.48935 5.1741 8.47799C5.10592 8.46657 5.08258 8.5235 5.08258 8.569C5.02546 8.97874 4.82029 9.36576 4.82029 9.78687C4.72876 10.2308 4.67164 10.6405 4.61451 11.0616Z" fill="#E3E3E3"/>
<path d="M18.9535 12.5413C19.0333 12.8258 19.2619 13.0079 19.4332 13.2242C19.5702 13.4176 19.6962 13.6111 19.7987 13.816C19.8104 14.1233 19.6734 14.2599 19.3534 14.3054C19.182 14.3282 18.9535 14.5217 19.0217 14.6583C19.182 14.9769 18.9308 14.8404 18.8276 14.8859C18.3134 14.1005 17.7077 13.3949 17.0222 12.7575C17.1481 12.2681 17.4338 11.8925 17.9135 11.6877C18.1193 11.8356 18.3362 11.9835 18.5419 12.1315C18.6218 12.3136 18.7133 12.5071 18.9535 12.5413Z" fill="#E3E3E3"/>
<path d="M13.0008 10.743C12.4983 10.686 12.0069 10.6292 11.5044 10.5722C11.3902 10.5609 11.2642 10.595 11.1727 10.5153C11.0701 10.2308 11.1844 9.94626 11.1727 9.66168C11.1617 9.47959 11.0585 9.28608 11.1727 9.104C11.6525 9.04707 12.1212 9.17229 12.5898 9.21779C12.6009 9.25194 12.6236 9.27472 12.647 9.22922C12.7495 9.20643 12.8411 9.21779 12.9326 9.25194C12.9553 9.32023 12.9897 9.35437 13.0579 9.28608C13.1378 9.27472 13.2182 9.29751 13.2981 9.33165C13.2754 9.42266 13.252 9.51374 13.241 9.61617C13.1611 9.99177 13.0235 10.356 13.0008 10.743Z" fill="#888888"/>
<path d="M18.8276 14.8858C18.9192 14.8403 19.1704 14.9769 19.0217 14.6582C18.9536 14.5102 19.1821 14.3168 19.3534 14.3053C19.6735 14.2712 19.8105 14.1233 19.7988 13.8159C20.176 14.3281 20.4733 14.8972 20.7018 15.5004C20.7472 15.6143 20.8044 15.7053 20.8498 15.8191C20.8732 15.8988 20.8842 15.9784 20.9069 16.0582C20.7589 16.0695 20.633 16.024 20.5304 15.9329C20.4162 15.8305 20.3246 15.785 20.3246 16.0012C20.3246 16.1833 20.2331 16.2402 20.0617 16.2402C19.8787 16.2402 19.6845 16.2175 19.5021 16.263C19.4904 16.2516 19.4904 16.2402 19.4904 16.2289C19.5592 16.1378 19.5248 16.0809 19.4216 16.0695C19.2275 15.6598 19.0217 15.2728 18.8276 14.8858Z" fill="#D9D9D9"/>
<path d="M6.67114 11.5737C6.36278 11.1868 6.24853 10.7087 6.02002 10.2876C6.04275 10.2421 6.06547 10.2079 6.0882 10.1624C6.1914 10.1738 6.27125 10.1396 6.36277 10.0941C6.81979 9.9234 7.25348 9.68438 7.73384 9.57059C7.60791 9.75267 7.65335 9.9234 7.71048 10.1169C7.79095 10.4128 7.91626 10.6974 8.03051 10.9819C7.58517 11.1868 7.12816 11.3803 6.67114 11.5737Z" fill="#D9D9D9"/>
<path d="M19.5129 16.2516C19.696 16.2061 19.8901 16.2289 20.0731 16.2289C20.2445 16.2289 20.3354 16.172 20.3354 15.9899C20.3354 15.7736 20.427 15.8192 20.5412 15.9216C20.6444 16.0241 20.7814 16.0582 20.9184 16.0468C21.0898 16.5704 21.2611 17.0826 21.3299 17.6289C20.884 17.6857 20.4497 17.8337 19.9927 17.811C19.8213 17.2988 19.6616 16.7752 19.5129 16.2516Z" fill="#C9C9C9"/>
<path d="M13.0005 10.7429C13.0232 10.3559 13.1608 9.99171 13.229 9.61611C13.2517 9.52504 13.2751 9.43402 13.2861 9.33159C13.6977 9.37709 14.0749 9.51367 14.4631 9.63889C14.4748 9.70718 14.4975 9.77547 14.5773 9.69576C14.6228 9.70718 14.6572 9.72991 14.7033 9.74133C14.6228 10.2194 14.3716 10.6291 14.2119 11.073C13.812 10.9706 13.4121 10.8567 13.0005 10.7429Z" fill="#9C9C9C"/>
<path d="M11.1724 9.11531C11.0581 9.29746 11.1724 9.49091 11.1724 9.67306C11.184 9.95758 11.0581 10.2421 11.1724 10.5267C10.7381 10.5608 10.3044 10.6063 9.87012 10.6405C9.87012 10.538 9.85845 10.4242 9.83573 10.3218C9.76693 9.94622 9.69873 9.57062 9.69873 9.19502C9.80131 9.1836 9.89284 9.1836 9.99542 9.17224C10.0525 9.25189 10.087 9.21775 10.1214 9.14946C10.4641 9.12673 10.8185 9.11531 11.1724 9.11531Z" fill="#9C9C9C"/>
<path d="M21.5016 19.1654C21.6613 19.4955 21.5127 19.8142 21.4783 20.1329C21.4783 20.167 21.4101 20.2239 21.3757 20.2125C21.1017 20.1898 20.8271 20.3719 20.5415 20.2011C20.45 20.1442 20.3247 20.1442 20.2331 20.2125C20.1877 20.2467 20.1877 20.3264 20.2215 20.3719C20.2903 20.4743 20.4162 20.5198 20.4961 20.4971C20.7473 20.4174 20.9531 20.6109 21.2043 20.5654C21.3874 20.5312 21.4556 20.793 21.4328 20.9979C20.9758 20.941 20.5188 20.884 20.0618 20.8158C20.0845 20.2808 20.1072 19.7573 20.1306 19.2223C20.5986 19.2337 21.0557 19.2337 21.5016 19.1654Z" fill="#F1F1F1"/>
<path d="M17.3078 9.99173C17.365 10.4015 17.4221 10.8112 17.4792 11.221C17.2507 11.1299 17.1481 11.2323 16.9995 11.4145C16.7826 11.699 16.6456 12.0063 16.4626 12.3136C16.2113 12.1429 15.9368 12.0177 15.7083 11.8014C15.8342 11.5966 15.9367 11.3803 16.0743 11.1755C16.2113 10.9819 16.371 10.7999 16.4171 10.5494C16.4626 10.5608 16.497 10.5608 16.5424 10.5722C16.6112 10.6291 16.634 10.7771 16.7599 10.7316C16.8741 10.686 16.8281 10.5608 16.8281 10.4698C16.8397 10.2649 16.8281 10.06 16.8281 9.86651C16.9884 9.79822 17.1708 9.67307 17.2507 9.96895C17.2624 9.98037 17.2851 9.98037 17.3078 9.99173Z" fill="#C9C9C9"/>
<path d="M16.4282 10.5608C16.3827 10.8112 16.2224 10.9933 16.0854 11.1868C15.9484 11.3803 15.8342 11.5965 15.7199 11.8128C15.3999 11.6421 15.0915 11.4827 14.7715 11.312C15.1032 10.9478 15.2629 10.4925 15.4226 10.0372C15.6057 10.0714 15.7543 10.208 15.9484 10.2194C16.051 10.4128 16.3029 10.3901 16.4282 10.5608Z" fill="#BCBCBC"/>
<path d="M20.0734 20.8158C20.5304 20.8727 20.9874 20.9296 21.4445 20.9979C21.3757 21.2711 21.3984 21.5556 21.2731 21.8174C20.8388 21.806 20.4272 21.5556 19.9702 21.6352C19.9702 21.5784 19.9702 21.5215 19.9702 21.4645C20.039 21.3962 20.0273 21.3166 20.0046 21.2369C20.0046 21.1004 20.0163 20.9523 20.0734 20.8158Z" fill="#E7EAE5"/>
<path d="M9.68725 9.18358C9.68725 9.5706 9.75604 9.93477 9.82422 10.3104C9.84756 10.4128 9.85862 10.5267 9.85862 10.6291C9.66451 10.6746 9.47041 10.5835 9.28737 10.6746C9.19584 10.5494 9.05886 10.4584 9.03614 10.2649C8.99068 9.94619 8.92187 9.63889 8.86475 9.33158C9.12765 9.24051 9.40162 9.18358 9.68725 9.18358Z" fill="#B1B1B1"/>
<path d="M15.4226 10.0372C15.2629 10.4925 15.1031 10.9478 14.7714 11.312C14.5773 11.2551 14.3943 11.1868 14.2229 11.0843C14.3832 10.6405 14.6345 10.2307 14.7143 9.75269C14.9772 9.78683 15.2057 9.90063 15.4226 10.0372Z" fill="#B1B1B1"/>
<path d="M16.4741 12.3136C16.6455 12.0177 16.7825 11.699 17.011 11.4145C17.1597 11.2324 17.2739 11.1299 17.4907 11.221C17.5706 11.3348 17.6505 11.4714 17.8335 11.46C17.8562 11.5397 17.8906 11.608 17.9134 11.6877C17.4336 11.8925 17.1597 12.2681 17.0221 12.7575C16.8396 12.6096 16.6566 12.4616 16.4741 12.3136Z" fill="#D9D9D9"/>
<path d="M21.5016 19.1654C21.0557 19.2337 20.5986 19.2337 20.1416 19.2223C20.1189 19.006 20.1072 18.7898 20.0845 18.5735C20.5188 18.4939 20.9531 18.4142 21.3757 18.3345C21.4783 18.6191 21.4445 18.9036 21.5016 19.1654Z" fill="#E3E3E3"/>
<path d="M8.8647 9.33158C8.92182 9.63888 9.00169 9.95755 9.03609 10.2649C9.05882 10.4469 9.1958 10.538 9.28732 10.6746C9.03609 10.7315 8.77318 10.7884 8.52194 10.8567C8.45315 10.3901 8.2363 9.96891 8.14478 9.51367C8.37328 9.42259 8.60179 9.30879 8.8647 9.33158Z" fill="#BCBCBC"/>
<path d="M21.3874 18.3459C20.9531 18.4256 20.5188 18.5052 20.0962 18.5849C20.0618 18.3345 20.0163 18.0728 19.9819 17.8223C20.4389 17.8451 20.8732 17.6972 21.3186 17.6402C21.4101 17.8679 21.3874 18.1069 21.3874 18.3459Z" fill="#D9D9D9"/>
<path d="M2.84366 22.2271C3.03777 22.6824 3.23188 23.1263 3.42598 23.5815C3.18642 23.5815 2.93517 23.5815 2.74044 23.3994C2.68332 23.2856 2.61514 23.1604 2.55801 23.0466C2.45481 22.6824 2.26072 22.3637 2.22632 21.9767C2.31784 21.9767 2.32952 22.1247 2.44377 22.0678C2.61515 21.9881 2.74046 22.0905 2.84366 22.2271Z" fill="#696969"/>
<path d="M19.9699 21.6352C20.427 21.5555 20.8269 21.7945 21.2728 21.8173C21.2728 22.0677 21.2728 22.3181 21.1015 22.5229C20.6899 22.4091 20.2673 22.2839 19.8557 22.1701C19.8557 22.1246 19.8446 22.0791 19.8446 22.0336C19.833 21.9994 19.8674 21.9653 19.8213 21.9425C19.8446 21.8628 19.8674 21.7831 19.8784 21.7035C19.9128 21.7035 19.9472 21.6807 19.9699 21.6352Z" fill="#E3E3E3"/>
<path d="M8.14481 9.50232C8.22467 9.95757 8.45319 10.3787 8.522 10.8453C8.36228 10.9023 8.21362 10.9819 8.04223 10.9819C7.92797 10.6974 7.80204 10.4242 7.72219 10.1169C7.67673 9.92342 7.63065 9.74134 7.74491 9.57061C7.88189 9.55919 8.00782 9.53646 8.14481 9.50232Z" fill="#C9C9C9"/>
<path d="M19.8104 21.9311C19.8559 21.9539 19.8215 21.988 19.8331 22.0222C19.7189 22.1246 19.6845 22.2498 19.7072 22.3978C19.6962 22.4547 19.6734 22.5116 19.6618 22.5685C19.5703 22.7734 19.4787 22.9669 19.3878 23.1717C19.2164 23.1034 19.0334 23.149 18.8503 23.1148C18.8964 22.8075 19.0451 22.5343 19.136 22.2498C19.1593 22.1702 19.1931 22.0905 19.2164 21.9994C19.4105 21.9197 19.5819 21.6807 19.8104 21.9311Z" fill="#696969"/>
<path d="M19.97 21.6352C19.9473 21.6807 19.9129 21.6921 19.8674 21.6921C19.8103 21.6011 19.8901 21.5328 19.9245 21.4531H19.9473H19.97C19.97 21.5214 19.97 21.5783 19.97 21.6352Z" fill="#D9D9D9"/>
<path d="M4.79697 12.8941C4.76318 12.8486 4.72878 12.803 4.70605 12.7575C4.72878 12.7462 4.7515 12.712 4.77423 12.7234C4.86575 12.7347 4.85409 12.8145 4.86576 12.8827C4.83136 12.8827 4.80864 12.8827 4.79697 12.8941Z" fill="#FEFEFE"/>
<path d="M19.97 21.4645H19.9473H19.9246C19.9129 21.3734 19.8675 21.271 20.0044 21.2368C20.0271 21.3166 20.0498 21.3962 19.97 21.4645Z" fill="#E3E3E3"/>
<path d="M19.4332 16.0582C19.5475 16.0696 19.5702 16.1265 19.502 16.2175C19.4559 16.172 19.4215 16.1265 19.4332 16.0582Z" fill="#C9C9C9"/>
<path d="M2.1355 21.8743C2.1355 21.8288 2.14656 21.7946 2.14656 21.7491C2.22641 21.7718 2.27248 21.806 2.18095 21.8743H2.15822H2.1355Z" fill="#696969"/>
<path d="M15.4685 26.8707C15.4912 26.8252 15.5367 26.8024 15.5827 26.8024C15.5711 26.8707 15.5256 26.8821 15.4685 26.8707Z" fill="#E3E3E3"/>
<path d="M16.0854 26.4724C16.0971 26.4268 16.1315 26.4041 16.1886 26.4041C16.1653 26.4496 16.1315 26.461 16.0854 26.4724Z" fill="#E3E3E3"/>
<path d="M5.68825 26.279C5.73433 26.279 5.76813 26.3017 5.77981 26.3473C5.7454 26.3473 5.69993 26.3473 5.66553 26.3473C5.6772 26.3245 5.68825 26.3017 5.68825 26.279Z" fill="#C9C9C9"/>
<path d="M15.583 26.8139C15.6057 26.7911 15.6285 26.7798 15.6512 26.757C15.6285 26.7798 15.6057 26.7911 15.583 26.8139Z" fill="#E3E3E3"/>
<path d="M8.19077 1.55785C8.23623 1.54647 8.28168 1.53509 8.32775 1.5237C8.79583 1.42127 9.23011 1.2164 9.6988 1.15949C9.98444 1.12535 10.2811 1.0912 10.5668 1.05706C11.6755 1.00015 12.7265 1.19364 13.7548 1.59199C14.0859 1.75134 14.4176 1.91068 14.7487 2.07002C14.8175 2.10417 14.8857 2.13831 14.9545 2.16108C15.32 2.457 15.6855 2.75292 16.0399 3.06023C16.8852 3.81142 17.4454 4.7561 17.9024 5.75769C17.7421 5.95121 17.5824 5.75769 17.422 5.75769C17.1597 5.22275 16.8624 4.68781 16.4742 4.23255C16.3366 4.05044 16.2568 3.82281 16.0055 3.7659C16.0055 3.72037 15.9939 3.67484 15.9484 3.65208C15.9367 3.50412 15.8458 3.46997 15.7199 3.48136C15.6628 3.44721 15.594 3.40168 15.5368 3.36754C15.3888 3.15128 15.1713 3.0147 14.9545 2.8895C14.9428 2.77569 14.8747 2.71878 14.7831 2.66187C14.3144 2.32042 13.812 2.04726 13.2862 1.81963C12.5325 1.48956 11.721 1.36436 10.9095 1.37574C10.0416 1.38712 9.18466 1.59199 8.39593 1.96759C8.15637 2.08141 7.87075 2.1497 7.73376 2.42286C7.71042 2.42286 7.69935 2.42286 7.67663 2.42286C7.45917 2.47976 7.27674 2.59358 7.15082 2.77569C7.09369 2.79845 7.04822 2.8326 7.02488 2.8895C6.87684 2.90089 6.80804 3.0147 6.72819 3.12852C6.61393 3.23095 6.48801 3.32201 6.37375 3.42445C6.24844 3.29924 6.20239 3.44721 6.14526 3.50412C5.90569 3.7659 5.6655 4.03906 5.43699 4.3236C5.30001 4.50571 5.10589 4.65367 5.05982 4.89268C4.9683 5.05203 4.91119 5.23413 4.76315 5.37071C4.56842 5.46177 4.37431 5.56421 4.249 5.74631C4.20293 5.82599 4.15747 5.84877 4.10034 5.75769C4.28278 5.29105 4.53463 4.86992 4.79693 4.4488C5.37987 3.53826 6.14524 2.86674 6.94502 2.22937C7.23066 2.00173 7.58511 1.86515 7.9162 1.69443C7.96227 1.69443 8.00771 1.69443 8.03044 1.6489C8.08757 1.61476 8.13365 1.58061 8.19077 1.55785Z" fill="#C9C9C9"/>
<path d="M4.12323 5.73501C4.18036 5.81469 4.22582 5.79192 4.27189 5.72363C4.3972 5.53014 4.59192 5.43909 4.78603 5.34804C4.59192 5.83744 4.34007 6.30411 4.19203 6.81628C4.1349 6.82764 4.0661 6.7935 4.04337 6.86179C4.02064 6.93008 4.08884 6.91872 4.13491 6.93008C4.16869 7.12359 3.9973 7.27153 4.00897 7.46504C3.83759 7.43089 3.70061 7.55611 3.54028 7.57883C3.70061 6.95286 3.81487 6.31547 4.12323 5.73501Z" fill="#BCBCBC"/>
<path d="M3.55201 7.57882C3.71173 7.5561 3.84933 7.43088 4.02071 7.46503C3.90645 8.05686 3.81492 8.66011 3.83765 9.26336C3.84932 9.53652 3.66627 9.60481 3.44943 9.63895C3.41503 8.94463 3.44943 8.26173 3.55201 7.57882Z" fill="#B1B1B1"/>
<path d="M16.4853 4.22119C16.8742 4.68784 17.1709 5.2114 17.4338 5.74633C17.4565 5.80324 17.4682 5.86016 17.4909 5.90567C17.8453 6.67964 18.0849 7.47634 18.1537 8.32997C18.2219 8.94458 18.2219 9.55919 18.1991 10.1738C18.1881 10.4584 18.3023 10.5494 18.5646 10.5153C18.5646 11.0502 18.599 11.5852 18.5419 12.1201C18.3361 11.9721 18.1193 11.8242 17.9135 11.6762C17.8908 11.5965 17.8564 11.5282 17.8337 11.4486C17.8453 10.6063 17.868 9.76406 17.822 8.91043C17.8564 8.37553 17.7765 7.85194 17.6739 7.3284C17.6739 7.26011 17.685 7.19182 17.6279 7.14631C17.6051 7.03245 17.5824 6.91866 17.5597 6.79344C17.5707 6.65686 17.5253 6.54306 17.4565 6.44063C17.274 5.79186 16.9884 5.18863 16.6223 4.60817C16.6223 4.49435 16.5885 4.4033 16.4626 4.36915C16.4055 4.34639 16.3938 4.31224 16.3938 4.25534C16.4055 4.25534 16.4399 4.24395 16.4853 4.22119Z" fill="#9C9C9C"/>
<path d="M18.1421 8.34142C18.0849 7.48779 17.8454 6.69103 17.4793 5.91712C17.4565 5.86019 17.4455 5.80329 17.4221 5.75775C17.5824 5.74638 17.7422 5.95126 17.9025 5.75775C18.2453 6.46344 18.3822 7.22599 18.4965 7.98855C18.3933 8.11377 18.4621 8.42107 18.1421 8.34142Z" fill="#BCBCBC"/>
<path d="M18.1421 8.34137C18.4621 8.42108 18.3933 8.11378 18.5076 7.98856C18.5881 8.45523 18.6335 8.9219 18.5881 9.37714C18.5537 9.7641 18.5647 10.1397 18.5537 10.5153C18.2907 10.5494 18.1882 10.4584 18.1882 10.1738C18.2109 9.57065 18.2109 8.95598 18.1421 8.34137Z" fill="#B1B1B1"/>
<path d="M5.08276 4.86999C5.12883 4.63097 5.32293 4.48301 5.45991 4.3009C5.68842 4.01636 5.91694 3.75458 6.16817 3.48142C6.21424 3.42451 6.27138 3.27655 6.39669 3.40175C6.39669 3.42451 6.39669 3.43589 6.39669 3.45866C6.16818 3.60662 6.00845 3.82287 5.8598 4.0505C5.72282 4.13017 5.65403 4.25537 5.62025 4.40333C5.53978 4.43748 5.50599 4.49439 5.50599 4.58545C5.42552 4.61959 5.39173 4.6765 5.39173 4.75617C5.33461 4.81308 5.27749 4.86999 5.22036 4.93828C5.20869 4.81308 5.13989 4.84722 5.08276 4.86999Z" fill="#B1B1B1"/>
<path d="M4.14606 6.93007C4.10061 6.91871 4.03181 6.93007 4.05453 6.86178C4.07787 6.79349 4.14605 6.81627 4.20317 6.81627C4.19212 6.86178 4.19213 6.90734 4.14606 6.93007Z" fill="#B1B1B1"/>
<path d="M5.19712 9.75273C5.19712 9.88931 5.19712 10.0259 5.19712 10.1625C5.20879 10.4584 5.23152 10.7543 4.91148 10.925C4.88875 10.9364 4.90041 10.9933 4.88874 11.0389C4.78616 11.0502 4.69463 11.0502 4.59204 11.0616C4.64917 10.6519 4.7063 10.2308 4.77448 9.82102C4.92314 9.77551 5.04908 9.66166 5.19712 9.75273Z" fill="#C9C9C9"/>
<path d="M20.3246 24.4693C20.1876 24.8676 19.902 25.175 19.6845 25.5278C19.6164 25.6416 19.5132 25.7326 19.4788 25.8692C19.2963 25.9489 19.2503 26.1424 19.1133 26.2676C19.0107 26.37 18.9419 26.5066 18.7822 26.5293C18.4966 26.222 18.1538 25.9716 17.8909 25.6416C17.9253 25.5391 17.9707 25.4481 18.0051 25.3457C18.2336 25.1408 18.4622 24.9587 18.542 24.64C18.6907 24.4806 18.8504 24.3327 18.8964 24.105C19.0218 24.0482 18.999 23.866 19.1133 23.7977C19.3879 23.866 19.6502 23.8888 19.902 24.0937C20.0617 24.2189 20.1532 24.3896 20.3246 24.4693Z" fill="#D9D9D9"/>
<path d="M18.0167 25.3456C17.9823 25.448 17.9363 25.5391 17.9025 25.6415C17.5708 26.0171 17.1254 26.0285 16.6794 26.0057C16.8508 25.7667 17.0683 25.5846 17.2968 25.4025C17.5364 25.4253 17.7538 25.0724 18.0167 25.3456Z" fill="#C9C9C9"/>
<path d="M4.43144 25.0497C4.45417 25.0725 4.46583 25.0952 4.48856 25.118C4.48856 25.1863 4.52296 25.2205 4.59176 25.2318C4.69434 25.3115 4.80859 25.3912 4.85405 25.5164C4.64888 25.6302 4.42038 25.5506 4.20293 25.5847C4.03155 25.4026 3.79199 25.2774 3.73486 24.9928C3.96337 24.9245 4.20294 24.9587 4.43144 25.0497Z" fill="#BCBCBC"/>
<path d="M4.19189 25.5847C4.40873 25.5619 4.63724 25.6302 4.84302 25.5164C5.11698 25.7668 5.40261 26.0172 5.67719 26.2676C5.66552 26.2676 5.65385 26.279 5.65385 26.2676C5.32276 26.0058 4.93455 26.0058 4.54572 25.983C4.43147 25.8806 4.3172 25.7896 4.19189 25.6871C4.19189 25.6644 4.19189 25.6302 4.19189 25.5847Z" fill="#C9C9C9"/>
<path d="M38.9255 21.9425C38.9255 21.2027 38.9366 20.4515 38.9255 19.7118C38.9255 19.5069 38.9827 19.4386 39.1878 19.45C39.7136 19.4613 40.2505 19.4386 40.7874 19.4613C41.7475 19.5069 42.3188 20.2694 42.1247 21.2141C42.0675 21.51 41.9189 21.7377 41.6787 21.9198C41.5761 21.9995 41.5073 22.0563 41.6676 22.1474C42.0675 22.3751 42.1701 22.7507 42.1928 23.1718C42.2045 23.5587 42.1584 23.9571 42.3531 24.3213C42.4103 24.4351 42.3298 24.4579 42.2389 24.4579C41.9871 24.4579 41.7475 24.4693 41.4962 24.4579C41.2788 24.4465 41.2561 24.2644 41.2444 24.1165C41.2106 23.8433 41.2106 23.5701 41.2106 23.297C41.1989 22.5799 40.6965 22.2385 39.9993 22.4775C39.8623 22.523 39.8967 22.6254 39.8967 22.7165C39.8967 23.2173 39.885 23.7181 39.8967 24.2189C39.8967 24.4124 39.8396 24.4693 39.6448 24.4693C38.9255 24.4806 38.9255 24.4806 38.9255 23.775C38.9255 23.1604 38.9255 22.5458 38.9255 21.9425ZM39.8967 20.9637C39.8967 21.7605 39.9194 21.7832 40.6394 21.6807C40.6848 21.6694 40.7303 21.658 40.7763 21.6466C41.0503 21.5556 41.1762 21.3279 41.1645 20.941C41.1535 20.5881 41.0048 20.3149 40.7536 20.2581C40.479 20.2011 40.1707 20.1556 39.9422 20.2694C39.7708 20.3605 39.9078 20.6678 39.8734 20.8727C39.885 20.8954 39.8967 20.9296 39.8967 20.9637Z" fill="#696969"/>
<path d="M37.2345 21.3279C37.2345 20.7816 37.2456 20.2353 37.2345 19.6776C37.2345 19.4841 37.2916 19.4272 37.4858 19.4272C38.2284 19.4158 38.2284 19.4158 38.2284 20.1442C38.2284 21.0206 38.2284 21.9084 38.2284 22.7848C38.2284 23.4449 38.0226 24.014 37.3832 24.3099C36.7204 24.6172 36.0459 24.5945 35.4175 24.1733C34.9949 23.8888 34.8125 23.4449 34.8125 22.9555C34.8008 21.8515 34.8125 20.7361 34.8008 19.632C34.8008 19.4613 34.8579 19.4158 35.0176 19.4044C35.7836 19.3703 35.7836 19.3703 35.7836 20.1328C35.7836 20.9865 35.7836 21.8401 35.7836 22.6937C35.7836 22.8417 35.7836 22.9897 35.8174 23.1263C35.8979 23.536 36.1602 23.7294 36.5834 23.6953C36.9716 23.6726 37.2001 23.4449 37.2228 23.0238C37.2456 22.5685 37.2345 22.1019 37.2345 21.6466C37.2345 21.5556 37.2345 21.4417 37.2345 21.3279Z" fill="#696969"/>
<path d="M26.5056 20.9068C26.4374 20.9068 26.3686 20.8954 26.3004 20.9068C26.1174 20.9295 26.0259 20.8726 25.9915 20.6678C25.9233 20.2808 25.6487 20.11 25.2605 20.1556C24.9521 20.1897 24.758 20.4173 24.7463 20.7361C24.7347 20.9864 24.8723 21.1344 25.0664 21.2596C25.352 21.4531 25.6948 21.5441 26.0031 21.6921C26.5173 21.9311 26.9288 22.2726 26.986 22.8758C27.0886 23.7863 26.6316 24.3554 25.7175 24.492C24.6892 24.64 23.7868 24.0709 23.6609 23.1945C23.6265 22.9555 23.6836 22.8416 23.9465 22.8758C24.0037 22.8872 24.0608 22.8872 24.1179 22.8758C24.438 22.8303 24.6437 22.8872 24.6775 23.2742C24.7119 23.5815 24.9976 23.7408 25.3631 23.7408C25.6376 23.7408 25.8662 23.6498 25.9687 23.3652C26.0719 23.0579 25.9687 22.7392 25.7292 22.5458C25.5916 22.4433 25.4435 22.375 25.2832 22.3181C25.0437 22.2157 24.7918 22.1132 24.5633 21.988C23.9121 21.6352 23.6726 21.1685 23.7752 20.5198C23.8667 19.9166 24.312 19.5068 24.9976 19.3703C25.8434 19.2109 26.6432 19.5979 26.8945 20.3035C27.0886 20.8612 27.0542 20.9068 26.5056 20.9068Z" fill="#696969"/>
<path d="M27.6143 21.9312C27.6143 21.18 27.6143 20.4174 27.6143 19.6662C27.6143 19.4955 27.6598 19.4272 27.8428 19.4272C28.6764 19.4386 29.5106 19.4386 30.3564 19.4272C30.5278 19.4272 30.596 19.4728 30.596 19.6548C30.6077 20.2239 30.6187 20.2239 30.0475 20.2239C29.6365 20.2239 29.2249 20.2239 28.8023 20.2239C28.6537 20.2239 28.5965 20.2695 28.5965 20.4288C28.6082 20.702 28.6082 20.9751 28.5965 21.2483C28.5855 21.419 28.6653 21.4645 28.8251 21.4645C29.2249 21.4532 29.6365 21.4759 30.0364 21.4532C30.2422 21.4417 30.3104 21.51 30.3104 21.7149C30.2876 22.3182 30.3902 22.2157 29.7962 22.2271C29.4762 22.2271 29.1678 22.2385 28.8478 22.2271C28.6764 22.2271 28.5965 22.2612 28.5965 22.4547C28.6082 22.7734 28.6082 23.1035 28.5965 23.4222C28.5855 23.6157 28.6764 23.6498 28.8478 23.6498C29.3509 23.6385 29.8533 23.6498 30.3564 23.6385C30.5505 23.6385 30.6077 23.6953 30.6077 23.8888C30.585 24.5376 30.6759 24.4238 30.0591 24.4352C29.3392 24.4465 28.6193 24.4238 27.9 24.4465C27.6825 24.4465 27.6143 24.3782 27.6143 24.162C27.6143 23.4222 27.6026 22.6824 27.6143 21.9312Z" fill="#696969"/>
<path d="M42.9354 21.9425C42.9354 21.2027 42.9354 20.4515 42.9354 19.7117C42.9354 19.5182 42.9698 19.4271 43.1866 19.4385C43.9981 19.4499 44.7978 19.4499 45.6093 19.4385C45.8489 19.4385 45.906 19.5182 45.906 19.7459C45.8949 20.2352 45.906 20.2352 45.4035 20.2352C45.0036 20.2352 44.5921 20.2466 44.1922 20.2352C43.9981 20.2239 43.9065 20.2808 43.9182 20.497C43.9293 20.7474 43.9293 21.0092 43.9182 21.2596C43.9182 21.419 43.9753 21.4872 44.1467 21.4872C44.5466 21.4758 44.9576 21.4986 45.3574 21.4758C45.5632 21.4645 45.632 21.5328 45.632 21.7376C45.6093 22.3522 45.7119 22.2384 45.1179 22.2498C44.7978 22.2612 44.4895 22.2612 44.1694 22.2498C43.9636 22.2384 43.9182 22.3295 43.9182 22.5116C43.9293 22.8189 43.9293 23.1148 43.9182 23.4221C43.9065 23.6156 43.9753 23.6839 44.1694 23.6725C44.6608 23.6611 45.1523 23.6725 45.6431 23.6611C45.8489 23.6611 45.906 23.7294 45.906 23.9343C45.8949 24.4579 45.906 24.4579 45.3691 24.4579C44.6492 24.4579 43.9293 24.4464 43.2099 24.4579C42.9925 24.4579 42.9243 24.4009 42.9243 24.1733C42.947 23.4335 42.9354 22.6823 42.9354 21.9425Z" fill="#696969"/>
<path d="M31.9667 21.9425C31.9667 22.2839 31.9557 22.6254 31.9667 22.9668C31.9784 23.24 32.0582 23.4904 32.3211 23.6384C32.7892 23.9115 33.2462 23.6611 33.2923 23.092C33.3034 22.8758 33.3722 22.7847 33.589 22.8189C33.6805 22.8302 33.7604 22.8189 33.8519 22.8189C34.2979 22.8189 34.2979 22.8189 34.2407 23.2628C34.1148 24.1505 33.4176 24.6286 32.4581 24.5034C31.5668 24.3896 31.0183 23.8091 30.9845 22.8872C30.9612 22.2498 30.9501 21.6124 30.9845 20.9751C31.0871 19.393 32.4698 19.1198 33.452 19.5182C33.9434 19.723 34.3089 20.3718 34.2635 20.9181C34.2518 21.0433 34.2064 21.0888 34.0804 21.0888C34.0006 21.0888 33.9207 21.0888 33.8409 21.0888C33.3838 21.0888 33.3838 21.0888 33.2806 20.6563C33.2125 20.3377 33.0521 20.1897 32.7438 20.1669C32.3893 20.1441 32.1842 20.258 32.0583 20.5539C31.9895 20.7133 31.9667 20.8953 31.9557 21.0661C31.9557 21.3506 31.9557 21.6465 31.9667 21.9425C31.9667 21.9425 31.9557 21.9425 31.9667 21.9425Z" fill="#696969"/>
<path d="M20.3244 24.4693C20.153 24.3896 20.0499 24.2189 19.9129 24.105C19.6733 23.9116 19.3987 23.8774 19.1248 23.8092C19.2046 23.5929 19.2961 23.388 19.376 23.1718C19.4675 22.9669 19.5591 22.7734 19.65 22.5685C19.9927 22.91 20.4614 23.0238 20.9068 23.1604C20.8042 23.6384 20.5529 24.0482 20.3244 24.4693Z" fill="#C9C9C9"/>
<path d="M20.9187 23.1718C20.4733 23.0352 20.0163 22.9213 19.6619 22.5799C19.6735 22.523 19.6962 22.4661 19.7073 22.4092C19.8332 22.375 19.7534 22.2157 19.8449 22.1701C20.2559 22.284 20.6785 22.4092 21.0901 22.523C21.1245 22.762 20.9985 22.9669 20.9187 23.1718Z" fill="#D9D9D9"/>
<path d="M46.2487 16.5817C45.632 16.5817 45.4145 16.3769 45.4717 15.7623C45.5061 15.4436 45.5177 15.1135 45.632 14.8062C45.8261 14.294 46.6259 14.0436 47.0829 14.3623C47.2543 14.4875 47.3341 14.6583 47.3341 14.8631C47.3231 15.2387 47.2887 15.6029 47.1855 15.9671C47.0485 16.3997 46.7629 16.5817 46.2487 16.5817Z" fill="#5FC503"/>
<path d="M27.694 16.5817C27.0539 16.5817 26.8481 16.3655 26.9169 15.7395C26.9513 15.4436 26.9857 15.1477 27.0539 14.8745C27.2142 14.294 28.0939 14.0209 28.562 14.3965C28.7223 14.5217 28.7794 14.7038 28.7677 14.8973C28.7567 15.2615 28.7106 15.6257 28.6191 15.9671C28.5048 16.3997 28.1965 16.5817 27.694 16.5817Z" fill="#5FC503"/>
<path d="M37.3258 16.5931C36.6741 16.5931 36.4573 16.3427 36.5488 15.694C36.5832 15.4208 36.617 15.1477 36.6858 14.8859C36.8344 14.3168 37.6913 14.0437 38.1711 14.3851C38.3308 14.4989 38.3879 14.6583 38.3879 14.8404C38.3879 15.2273 38.3541 15.6029 38.2509 15.9671C38.1256 16.3997 37.8283 16.5818 37.3258 16.5931Z" fill="#5FC503"/>
<path d="M14.0062 12.1656C14.1204 12.2225 14.2463 12.2794 14.3606 12.3477C14.7488 12.6437 15.1487 12.9396 15.5369 13.2241C15.5713 13.3038 15.6401 13.3607 15.72 13.3949C15.7427 13.4517 15.7771 13.4859 15.8342 13.5087C16.177 13.9298 16.5769 14.3168 16.8398 14.8062C16.8398 14.8858 16.8742 14.92 16.954 14.92C16.9651 14.9655 16.954 15.0224 16.9768 15.068C17.1598 15.4094 17.2851 15.7736 17.4221 16.1378C17.4792 16.2972 17.5026 16.4338 17.3195 16.5134C17.091 16.2061 16.9196 15.8533 16.6911 15.5346C16.1199 14.7265 15.4116 14.0778 14.5657 13.5883C13.8231 13.1559 13.0233 12.8485 12.1554 12.7233C11.0927 12.564 10.0416 12.6209 9.0244 12.9282C7.66502 13.3379 6.5452 14.1233 5.6539 15.2273C5.20855 15.7736 4.82034 16.3655 4.61456 17.0484C4.42045 16.946 4.37437 16.5931 4.5003 16.3199C4.73987 15.785 4.98004 15.2387 5.20855 14.7037C5.50585 14.3281 5.80256 13.9639 6.09987 13.5883C6.17972 13.5542 6.23685 13.4859 6.2823 13.4062C6.37383 13.2924 6.47702 13.2014 6.60234 13.1217C7.00223 12.8599 7.37939 12.5754 7.75655 12.2908C7.80201 12.2908 7.84808 12.2794 7.87081 12.2339C7.99612 12.2225 8.09932 12.177 8.1675 12.0746C8.69332 11.9038 9.20746 11.7331 9.74433 11.6193C10.6356 11.4258 11.5042 11.46 12.3949 11.6307C12.8636 11.7218 13.309 11.9266 13.7776 12.0176C13.7893 12.1315 13.8919 12.1542 14.0062 12.1656Z" fill="#8BE900"/>
<path d="M7.74484 12.2908C7.35662 12.564 6.97946 12.8599 6.59124 13.1217C6.46532 13.2014 6.36274 13.3038 6.27121 13.4063C6.13423 13.3949 6.0771 13.4518 6.08815 13.5883C5.99663 13.577 5.92845 13.6225 5.8486 13.6681C5.39158 13.9867 5.04881 14.4193 4.7171 14.8517C4.21463 15.5005 3.82579 16.2062 3.55182 16.9915C3.27786 17.7996 3.10648 18.6305 3.01495 19.4727C2.98056 19.78 3.07207 20.0873 3.10647 20.3832C3.19739 21.1913 3.33499 21.9653 3.73488 22.7051C4.13477 23.4335 4.45418 24.1961 5.05986 24.8107C5.48247 25.2432 5.91678 25.653 6.39653 26.0172C6.92235 26.4155 7.50529 26.6773 8.09929 26.9505C8.30508 27.0415 8.49917 27.1326 8.72768 27.1895C9.26456 27.3033 9.8131 27.4399 10.3616 27.4627C10.9213 27.4854 11.4925 27.5537 12.0411 27.4399C12.6805 27.2919 13.3206 27.1667 13.949 26.9277C14.7144 26.6204 15.3545 26.1424 15.9939 25.6643C16.0744 25.6643 16.1082 25.6188 16.1082 25.5505C16.1315 25.5505 16.1426 25.5505 16.1653 25.5505C16.3367 25.5164 16.5081 25.4823 16.5197 25.2546C17.2624 24.5376 17.8681 23.7294 18.1992 22.7392C18.268 22.5458 18.3251 22.3523 18.4393 22.1702C18.5419 22.0108 18.6334 21.8059 18.6334 21.6239C18.6451 21.2027 18.8276 20.8271 18.8503 20.406C18.9074 19.4613 18.8847 18.528 18.588 17.6175C18.4737 17.2419 18.3251 16.8891 18.1881 16.5248C18.005 16.0468 17.7421 15.6143 17.4792 15.1932C17.1825 14.7379 16.771 14.3623 16.4282 13.9298C16.2796 13.7477 16.0744 13.5656 15.7998 13.5315C15.7427 13.5087 15.7083 13.4745 15.6855 13.4176C15.6972 13.281 15.6401 13.2242 15.5031 13.2469C15.1143 12.951 14.7144 12.6551 14.3262 12.3705C14.4404 12.2567 14.5547 12.3023 14.6689 12.3819C15.1259 12.6892 15.6057 12.9282 16.0056 13.3152C16.1886 13.4973 16.4853 13.5998 16.6911 13.8046C17.1137 14.2257 17.4682 14.7151 17.8337 15.1932C18.0738 15.5119 18.1648 15.8761 18.3361 16.2289C18.5192 16.6273 18.6451 17.0484 18.8847 17.424C19.0217 17.6402 18.9879 17.9476 19.0677 18.2094C19.2047 18.6874 19.2275 19.1768 19.2275 19.6548C19.2164 20.1215 19.2047 20.5881 19.0677 21.0548C18.9645 21.419 18.8503 21.7832 18.8276 22.1702C18.8165 22.4433 18.6107 22.6368 18.4965 22.8758C18.131 23.6953 17.685 24.4806 17.0339 25.118C16.4743 25.6643 15.9141 26.2334 15.2175 26.6204C14.7144 26.9049 14.1775 27.1326 13.629 27.3375C12.6922 27.6903 11.7327 27.8155 10.7499 27.7813C9.95008 27.7472 9.1503 27.6561 8.37325 27.383C7.81365 27.1781 7.28784 26.9049 6.75096 26.6773C6.4426 26.5408 6.16802 26.3017 5.91678 26.0741C5.67721 25.8579 5.3799 25.6871 5.18579 25.4481C4.93455 25.1408 4.62557 24.879 4.45419 24.5034C4.3516 24.2872 4.13477 24.1392 3.98612 23.9343C3.78033 23.6498 3.63167 23.3538 3.54015 23.0352C3.43756 22.6709 3.19739 22.3751 3.10647 22.0108C2.85462 21.0206 2.66052 20.0418 2.7975 19.0061C2.85463 18.5963 3.00328 18.1752 3.00328 17.7882C3.01495 17.1394 3.39212 16.6614 3.5635 16.1037C3.72321 15.6029 4.13477 15.1704 4.48859 14.7379C4.72877 14.4534 4.95728 14.1575 5.22019 13.8843C5.88238 13.2127 6.64838 12.712 7.51635 12.3478C7.60787 12.3023 7.67666 12.3023 7.74484 12.2908Z" fill="#53BB01"/>
<path d="M19.3876 23.1717C19.3071 23.388 19.2162 23.5928 19.1357 23.8091C19.0104 23.8774 19.0448 24.0481 18.9189 24.1164C18.8163 24.0937 18.702 24.0367 18.5988 24.1278C18.4846 24.2075 18.4047 24.1506 18.3359 24.0595C18.4735 23.7294 18.6333 23.3994 18.8618 23.1148C19.0215 23.149 19.2162 23.1034 19.3876 23.1717Z" fill="#888888"/>
<path d="M18.0166 25.3456C17.7537 25.061 17.5362 25.4139 17.2966 25.3911C17.5135 25.118 17.742 24.8448 17.9594 24.583C18.1535 24.6513 18.3593 24.6399 18.5534 24.6513C18.4736 24.9586 18.2451 25.1521 18.0166 25.3456Z" fill="#B1B1B1"/>
<path d="M18.5535 24.6514C18.3594 24.64 18.1536 24.6628 17.9595 24.5831C18.0393 24.3782 18.1763 24.2189 18.325 24.0596C18.3931 24.1506 18.4736 24.2075 18.5879 24.1279C18.6905 24.0482 18.8047 24.0937 18.9073 24.1165C18.8618 24.3441 18.7021 24.4921 18.5535 24.6514Z" fill="#9C9C9C"/>
<path d="M8.15643 12.0632C8.08764 12.1656 7.97338 12.2112 7.85913 12.2225C7.9052 12.0746 7.95066 11.9152 8.15643 12.0632Z" fill="#53BB01"/>
<path d="M14.0061 12.1657C13.9035 12.1429 13.8003 12.1315 13.7659 12.0063C13.9606 11.8811 13.9606 12.0632 14.0061 12.1657Z" fill="#53BB01"/>
<path d="M4.59173 25.2319C4.52293 25.2205 4.48853 25.1863 4.48853 25.118C4.54566 25.1408 4.58006 25.175 4.59173 25.2319Z" fill="#9C9C9C"/>
<path d="M6.38561 3.45862C6.38561 3.43586 6.38561 3.42448 6.38561 3.40171C6.49987 3.29928 6.62517 3.20822 6.73942 3.10579C6.89975 3.10579 7.00234 3.0375 7.03674 2.86677C7.05947 2.80987 7.09386 2.76434 7.16266 2.75296C7.37949 2.69605 7.59634 2.63914 7.68787 2.40013C7.71059 2.40013 7.72226 2.40013 7.74499 2.40013C8.07669 2.36598 8.29354 2.11558 8.59085 2.01314C9.64187 1.64893 10.7156 1.44406 11.8354 1.63755C12.5898 1.76275 13.3091 1.95624 13.9946 2.33184C14.3146 2.51394 14.5892 2.77572 14.9547 2.86677C15.1715 2.99197 15.389 3.12855 15.537 3.3448C15.537 3.50415 15.6058 3.61796 15.7772 3.62935C15.7889 3.77731 15.8687 3.85698 16.0174 3.86836C16.0057 4.00494 16.0057 4.13015 16.1998 4.10738C16.2342 4.16429 16.2797 4.22119 16.3141 4.28948C16.0629 4.48298 15.7889 4.5285 15.4799 4.4716C15.4461 4.44883 15.4001 4.42607 15.3657 4.41469C15.3773 4.28948 15.3202 4.22119 15.1832 4.24396C14.3036 3.43586 13.2636 2.96921 12.0867 2.75296C11.0129 2.55947 9.97295 2.65052 8.94466 3.0375C8.28186 3.2879 7.66513 3.60658 7.13932 4.08461C7.11659 4.10738 7.07113 4.10738 7.02506 4.11876C6.95687 4.0277 6.88809 4.06186 6.8199 4.10738C6.62518 4.25534 6.44274 4.20982 6.24863 4.10738C6.06558 4.01632 5.99677 3.92527 6.20255 3.77731C6.30575 3.69764 6.40834 3.60658 6.38561 3.45862Z" fill="#FBFBFB"/>
<path d="M6.08832 10.1625C6.06559 10.208 6.04287 10.2421 6.02014 10.2876C5.98574 10.2991 5.93967 10.2991 5.90589 10.3218C5.42552 10.5494 5.42552 10.5494 5.4372 10.0031C5.44887 9.16086 5.38006 8.31866 5.56311 7.49918C5.77995 6.54311 6.16818 5.66671 6.84265 4.93828C6.8881 4.93828 6.94524 4.94966 6.96797 5.00657C7.00236 5.06348 7.01403 5.04072 7.02508 4.99519C7.03676 4.98381 7.04843 4.96105 7.07116 4.94966C7.17375 4.96105 7.23087 4.90414 7.27694 4.83585C7.29967 4.82447 7.31072 4.81308 7.31072 4.8017C7.34512 4.75618 7.3912 4.72203 7.36786 4.65374C7.56258 4.68789 7.63076 4.52854 7.74501 4.42611C7.76774 4.40334 7.79108 4.38058 7.81381 4.35782C7.87094 4.31229 7.84822 4.244 7.87095 4.17571C7.97353 4.30091 8.09945 4.23262 8.1793 4.16433C8.32796 4.03913 8.52207 3.98222 8.69345 3.90255C10.11 3.27655 11.5382 3.25379 12.9897 3.78873C13.5837 4.01637 14.0862 4.38058 14.612 4.72203C14.7035 4.81308 14.7717 4.9269 14.9087 4.94966C14.932 4.99519 14.9087 5.07486 14.9775 5.08624C14.9891 5.08624 15.0119 5.07486 15.0229 5.06348C15.0346 4.99519 14.9775 4.96105 14.932 4.9269C14.9087 4.85861 14.8749 4.79032 14.8515 4.71065C14.8632 4.69927 14.8749 4.68789 14.8976 4.66512C15.846 5.62118 16.4057 6.75934 16.5082 8.11379C16.257 8.091 15.9603 8.02271 16.0401 8.45524C16.0401 8.4666 15.983 8.50074 15.9603 8.52353C15.9259 7.86335 15.7201 7.24874 15.4462 6.65691C15.2631 6.25853 14.9547 5.93986 14.7606 5.55289C14.8632 5.39355 14.8177 5.25697 14.7035 5.13177C14.3263 4.71065 13.892 4.39196 13.3779 4.14157C12.8066 3.86841 12.2354 3.64077 11.607 3.58386C10.2015 3.45866 8.93364 3.82287 7.79109 4.65374C7.31073 5.00657 7.00236 5.4846 6.72839 5.99679C6.69399 6.06508 6.52262 6.21302 6.75113 6.29267C6.71673 6.38375 6.68233 6.47482 6.63687 6.56584C6.33956 7.21459 6.07727 7.86335 6.08832 8.59182C6.07727 9.10399 6.08832 9.63889 6.08832 10.1625ZM6.91083 5.16592C6.9225 5.16592 6.92251 5.16592 6.93419 5.15453V5.14315C6.93419 5.14315 6.9225 5.15453 6.91083 5.16592C6.91083 5.1773 6.89979 5.18868 6.89979 5.18868C6.89979 5.1773 6.91083 5.16592 6.91083 5.16592Z" fill="#888888"/>
<path d="M15.4795 4.46022C15.7885 4.51712 16.0624 4.48298 16.3137 4.27811C16.3364 4.27811 16.3481 4.27811 16.3708 4.27811C16.3708 4.32364 16.3935 4.36916 16.4396 4.39193C16.4623 4.49436 16.4851 4.58541 16.5993 4.63094C16.9537 5.20002 17.2504 5.80326 17.4335 6.46342C17.3647 6.61136 17.388 6.73658 17.5361 6.81623C17.5594 6.93002 17.5821 7.04388 17.6049 7.16904C17.5023 7.26011 17.525 7.31704 17.6503 7.35119C17.7535 7.87472 17.8334 8.39826 17.799 8.93322C17.662 8.94458 17.6049 8.87629 17.5822 8.75114C17.5023 8.43241 17.3991 8.1251 17.342 7.80643C17.2738 7.4422 17.0907 7.10075 16.9421 6.7593C16.5883 5.98538 16.2111 5.23417 15.56 4.6537C15.5139 4.58541 15.4795 4.52851 15.4795 4.46022Z" fill="#F1F1F1"/>
<path d="M6.38544 3.45863C6.40817 3.60659 6.31665 3.69765 6.21406 3.77732C6.00828 3.92528 6.08812 4.01633 6.2595 4.10739C6.45361 4.19844 6.63668 4.25535 6.83079 4.10739C6.89959 4.05048 6.96776 4.02771 7.03656 4.11877C6.7282 4.48299 6.37376 4.80167 6.08813 5.20003C5.66551 5.79188 5.27729 6.40648 5.02544 7.1008C4.96831 7.2601 4.90014 7.43083 4.82028 7.59019C4.78588 7.65848 4.72875 7.73814 4.63723 7.69263C4.55737 7.65848 4.59177 7.59019 4.60283 7.51054C4.75148 6.70242 4.93454 5.90572 5.30003 5.16589C5.35716 5.04069 5.40262 4.91549 5.37989 4.76753C5.50581 4.76753 5.5058 4.67647 5.49413 4.5968C5.62005 4.5968 5.62005 4.50575 5.60838 4.4147C5.74536 4.42608 5.74538 4.26673 5.84857 4.24397C5.91676 4.27812 5.92843 4.39193 6.03101 4.33502C6.07708 4.31226 6.08814 4.25535 6.06541 4.20983C6.03101 4.096 5.92843 4.14153 5.84857 4.13015C5.84857 4.10739 5.84857 4.08462 5.84857 4.06186C5.99661 3.82284 6.15693 3.60659 6.38544 3.45863Z" fill="#F1F1F1"/>
<path d="M7.32203 4.77897C7.31036 4.79035 7.2993 4.80173 7.27658 4.81312C7.11625 4.68792 7.1052 4.84726 7.0708 4.92693C7.05913 4.93831 7.04806 4.96108 7.02472 4.97246C7.00199 4.97246 6.97927 4.98384 6.9676 4.98384C6.94487 4.92693 6.88774 4.92693 6.84229 4.91555C7.08185 4.51719 7.43629 4.24403 7.80178 3.98225C8.8872 3.18553 10.1096 2.82132 11.4579 2.93514C12.692 3.03757 13.7657 3.52698 14.6798 4.35784C14.7258 4.39199 14.7486 4.4489 14.7713 4.50581C14.7369 4.53996 14.7031 4.5741 14.6798 4.60825C14.6226 4.56271 14.5655 4.52857 14.5201 4.48304C13.5606 3.56113 12.3947 3.14001 11.0924 3.11724C9.90443 3.09448 8.83007 3.45869 7.8933 4.17574C7.87057 4.23265 7.89331 4.30094 7.83618 4.35784C7.79073 4.35784 7.7336 4.35784 7.68753 4.35784C7.57327 4.43752 7.45902 4.51719 7.39083 4.65377C7.32203 4.66515 7.32203 4.72206 7.32203 4.77897Z" fill="#9C9C9C"/>
<path d="M15.9712 8.52348C16.0056 8.50069 16.0627 8.47791 16.0511 8.45519C15.9712 8.02266 16.2685 8.09095 16.5198 8.11373C16.5769 8.93322 16.5314 9.76406 16.5542 10.5835C16.5081 10.5722 16.4743 10.5722 16.4282 10.5608C16.3029 10.39 16.0511 10.4128 15.9485 10.2193C15.9485 9.65026 15.9601 9.09252 15.9712 8.52348Z" fill="#696969"/>
<path d="M5.19682 9.75267C5.04879 9.6616 4.92286 9.77546 4.78589 9.8096C4.78589 9.38844 4.99166 9.00148 5.04879 8.59174C5.04879 8.55759 5.08256 8.4893 5.13968 8.50067C5.22015 8.51209 5.25393 8.56895 5.25393 8.64867C5.2656 8.83075 5.22016 9.01284 5.19682 9.19499C5.18576 9.37708 5.19682 9.57059 5.19682 9.75267Z" fill="#D9D9D9"/>
<path d="M17.3078 9.99178C17.2851 9.99178 17.2624 9.98042 17.2507 9.98042C17.1709 9.68448 16.9995 9.80969 16.8281 9.87798C16.8281 9.55926 16.8281 9.22923 16.8281 8.9105C16.8281 8.84221 16.7937 8.73977 16.908 8.71705C16.9995 8.70563 17.0111 8.80806 17.0222 8.86499C17.1364 9.22923 17.2741 9.60482 17.3078 9.99178Z" fill="#D9D9D9"/>
<path d="M15.1831 4.22118C15.3084 4.2098 15.3772 4.2667 15.3655 4.3919C15.2746 4.35776 15.2175 4.30085 15.1831 4.22118Z" fill="#F1F1F1"/>
<path d="M14.6802 4.60819C14.7146 4.57404 14.749 4.5399 14.7717 4.50575C14.8178 4.56266 14.8632 4.60819 14.9087 4.6651C14.8976 4.67648 14.886 4.68786 14.8632 4.71062C14.8061 4.68786 14.749 4.6651 14.7035 4.64233C14.7035 4.63095 14.6918 4.61957 14.6802 4.60819Z" fill="#888888"/>
<path d="M15.9715 8.52352C15.9604 9.09263 15.9487 9.65031 15.9487 10.2194C15.7546 10.208 15.606 10.0714 15.4229 10.0373C15.2061 9.90068 14.9776 9.78689 14.7147 9.74138C14.6692 9.72996 14.6348 9.70724 14.5894 9.69581C14.566 9.65031 14.5206 9.63895 14.4751 9.63895C14.0863 9.50237 13.7091 9.36579 13.2982 9.33164C13.2183 9.2975 13.1378 9.27471 13.058 9.28607C13.0236 9.24057 12.9898 9.22921 12.9327 9.25193C12.8411 9.21778 12.7379 9.20642 12.647 9.22921C12.6237 9.22921 12.6126 9.21778 12.5899 9.21778C12.1212 9.17228 11.6525 9.04706 11.1728 9.10399C10.819 9.11535 10.4645 9.12677 10.1101 9.12677C10.0646 9.10399 10.0192 9.10399 9.98479 9.14949C9.88159 9.16092 9.79068 9.16092 9.68748 9.17228C9.40184 9.17228 9.12787 9.21778 8.8533 9.32022C8.591 9.2975 8.37354 9.41129 8.14503 9.49094C8.00805 9.51373 7.87108 9.53651 7.7341 9.55923C7.25374 9.66167 6.82005 9.90068 6.36303 10.0828C6.2715 10.117 6.17998 10.1511 6.08845 10.1511C6.08845 9.62752 6.07739 9.09263 6.07739 8.56903C6.07739 7.84062 6.32863 7.19186 6.62532 6.54311C6.67139 6.45203 6.70579 6.36102 6.73958 6.26995C6.80838 6.19029 6.87719 6.09922 6.93431 6.01957C7.67697 4.9269 8.67085 4.19847 9.99583 3.95946C11.276 3.73183 12.4867 3.92531 13.6065 4.59684C14.0408 4.85861 14.3946 5.21145 14.7608 5.54151C14.9549 5.92849 15.2632 6.24716 15.4463 6.64554C15.7319 7.24879 15.9371 7.8634 15.9715 8.52352Z" fill="#FDFDFD"/>
<path d="M12.9324 9.26335C12.9778 9.24057 13.0233 9.25193 13.0577 9.2975C12.9895 9.36572 12.9551 9.32022 12.9324 9.26335Z" fill="#9C9C9C"/>
<path d="M12.5896 9.22922C12.6123 9.22922 12.624 9.24076 12.6467 9.24076C12.6123 9.27541 12.6007 9.26386 12.5896 9.22922Z" fill="#9C9C9C"/>
<path d="M14.4749 9.65027C14.532 9.63891 14.5658 9.65027 14.5891 9.7072C14.5086 9.78685 14.4859 9.71856 14.4749 9.65027Z" fill="#B1B1B1"/>
<path d="M9.98462 9.16091C10.019 9.11534 10.0645 9.10398 10.1099 9.13813C10.0761 9.20642 10.0418 9.25192 9.98462 9.16091Z" fill="#B1B1B1"/>
<path d="M19.8558 22.1701C19.7532 22.2157 19.8447 22.375 19.7188 22.4092C19.696 22.2612 19.7304 22.1359 19.8447 22.0335C19.8447 22.0791 19.8447 22.1246 19.8558 22.1701Z" fill="#C9C9C9"/>
<path d="M14.9546 2.86684C14.5891 2.76441 14.3145 2.50263 13.9945 2.33191C13.3206 1.95631 12.5896 1.76282 11.8353 1.63762C10.7155 1.44413 9.64175 1.649 8.59073 2.01321C8.29343 2.11565 8.07658 2.36605 7.74487 2.4002C7.88186 2.13841 8.1675 2.05874 8.40768 1.94492C9.19579 1.56933 10.0527 1.36446 10.9213 1.35308C11.7327 1.3417 12.5325 1.46689 13.2979 1.79696C13.8231 2.0246 14.3372 2.29776 14.7943 2.63921C14.8631 2.69612 14.9429 2.75303 14.9546 2.86684Z" fill="#F1F1F1"/>
<path d="M16.3711 4.27811C16.3484 4.27811 16.3367 4.27811 16.314 4.27811C16.2796 4.22121 16.2341 4.1643 16.1997 4.09601C16.177 3.98219 16.1082 3.9139 16.0173 3.85699C16.0173 3.82285 16.0056 3.7887 16.0056 3.75456L16.0173 3.74318C16.2685 3.80009 16.3484 4.0391 16.4854 4.20982C16.4399 4.24397 16.4055 4.25536 16.3711 4.27811Z" fill="#B1B1B1"/>
<path d="M7.67694 2.40015C7.58541 2.63916 7.35691 2.69607 7.15112 2.75298C7.28811 2.57087 7.45948 2.45706 7.67694 2.40015Z" fill="#F1F1F1"/>
<path d="M15.7771 3.62936C15.6057 3.60659 15.5369 3.50416 15.5369 3.34482C15.594 3.37896 15.6628 3.42449 15.7199 3.45863C15.7427 3.51554 15.7543 3.57245 15.7771 3.62936Z" fill="#F1F1F1"/>
<path d="M7.03656 2.86681C7.01383 3.03753 6.91063 3.10582 6.73926 3.10582C6.80805 2.992 6.88791 2.88957 7.03656 2.86681Z" fill="#F1F1F1"/>
<path d="M15.7771 3.62936C15.7544 3.57245 15.7427 3.51554 15.72 3.45864C15.8459 3.44726 15.9368 3.4814 15.9485 3.62936C15.9368 3.64074 15.9368 3.64074 15.9258 3.65212C15.8797 3.65212 15.8226 3.64074 15.7771 3.62936Z" fill="#B1B1B1"/>
<path d="M15.9485 3.62936C15.994 3.65213 16.0056 3.69765 16.0056 3.74318L15.994 3.75456C15.9712 3.72042 15.9485 3.68627 15.9258 3.65213C15.9368 3.65213 15.9485 3.64074 15.9485 3.62936Z" fill="#B1B1B1"/>
<path d="M17.5365 6.81624C17.3768 6.73652 17.3651 6.61137 17.4339 6.46342C17.5027 6.56586 17.5482 6.67966 17.5365 6.81624Z" fill="#E3E3E3"/>
<path d="M16.5997 4.63094C16.4854 4.59679 16.4627 4.49436 16.4399 4.39192C16.5769 4.41469 16.6113 4.50574 16.5997 4.63094Z" fill="#B1B1B1"/>
<path d="M17.6624 7.3398C17.5364 7.30566 17.5026 7.24879 17.6169 7.15771C17.674 7.21464 17.6624 7.27151 17.6624 7.3398Z" fill="#E3E3E3"/>
<path d="M5.84858 4.03909C5.84858 4.06186 5.84858 4.08462 5.84858 4.10738C5.84858 4.14153 5.84858 4.18706 5.84858 4.2212C5.74539 4.24396 5.74538 4.41469 5.6084 4.39193C5.6428 4.24396 5.71099 4.11877 5.84858 4.03909Z" fill="#E3E3E3"/>
<path d="M5.49436 4.57402C5.49436 4.66507 5.50605 4.74475 5.38013 4.74475C5.38013 4.66507 5.41451 4.60817 5.49436 4.57402Z" fill="#E3E3E3"/>
<path d="M5.60839 4.39192C5.62006 4.48298 5.62006 4.56265 5.49414 4.57403C5.49414 4.49436 5.52854 4.42607 5.60839 4.39192Z" fill="#E3E3E3"/>
<path d="M39.8965 20.9637C39.8965 20.9296 39.8965 20.9068 39.8965 20.8727C39.9192 20.6678 39.7933 20.3605 39.9647 20.2694C40.1932 20.1442 40.5016 20.2012 40.7762 20.2581C41.0274 20.3149 41.1761 20.5767 41.1871 20.941C41.1988 21.3279 41.0729 21.5556 40.7989 21.6466C40.7534 21.658 40.7074 21.6808 40.6619 21.6808C39.9192 21.7832 39.8965 21.749 39.8965 20.9637Z" fill="#F1F1F1"/>
<path d="M17.3078 16.5248C17.5025 16.4452 17.4792 16.3086 17.411 16.1492C17.274 15.785 17.1481 15.4208 16.965 15.0793C16.9423 15.0452 16.954 14.9883 16.9423 14.9314C17.0455 14.9314 17.1027 14.9883 17.1598 15.068C17.4681 15.546 17.7421 16.024 17.9933 16.5362C18.3705 17.3329 18.5763 18.1638 18.6561 19.0174C18.7593 20.2011 18.5646 21.3734 18.0965 22.4774C17.822 23.1376 17.4909 23.7636 17.0338 24.3099C16.6112 24.8221 16.1542 25.3001 15.6173 25.687C15.1259 26.0513 14.6345 26.4155 14.0405 26.6204C13.6861 26.7455 13.3322 26.8821 12.9661 26.9732C12.5552 27.0756 12.1326 27.2009 11.7093 27.2122C10.681 27.2464 9.66444 27.2464 8.67054 26.8821C8.03047 26.6545 7.40207 26.4041 6.84246 26.0285C5.9057 25.4139 5.09426 24.6513 4.50026 23.6725C4.21462 23.2059 3.94003 22.7164 3.75759 22.2042C3.58621 21.7262 3.50636 21.2027 3.40316 20.6905C3.22072 19.7117 3.34604 18.767 3.51742 17.8223C3.6544 17.0598 3.99716 16.3769 4.37432 15.7167C4.59177 15.3297 4.82028 14.9428 5.2085 14.681C4.96832 15.2159 4.73982 15.7623 4.50026 16.2971C4.37433 16.5703 4.43146 16.9232 4.61451 17.0256C4.43146 17.6174 4.24902 18.1979 4.21462 18.8239C4.13477 20.1328 4.30615 21.3848 4.91121 22.5685C5.47142 23.6383 6.24847 24.5034 7.25342 25.1635C8.4193 25.9261 9.69884 26.3358 11.1043 26.3244C11.3666 26.3244 11.6295 26.2789 11.8924 26.2561C12.4753 26.1992 13.0466 26.0626 13.5835 25.835C14.3716 25.505 15.1032 25.0839 15.7199 24.4806C16.1769 24.0367 16.6223 23.5701 16.9313 23.0237C17.3539 22.2612 17.6966 21.4645 17.8336 20.5767C17.9933 19.6092 17.9024 18.6646 17.6966 17.7199C17.5934 17.3329 17.3649 16.9573 17.3078 16.5248Z" fill="#65DF00"/>
<path d="M17.3081 16.5249C17.3652 16.9574 17.5937 17.333 17.6969 17.7541C17.9137 18.6988 17.9936 19.6435 17.8339 20.6109C17.6969 21.4987 17.3541 22.2954 16.9315 23.058C16.6225 23.6043 16.1772 24.0709 15.7202 24.5148C15.0918 25.1181 14.3718 25.5392 13.5837 25.8692C13.0352 26.0969 12.4756 26.2335 11.8926 26.2903C11.6297 26.3131 11.3668 26.3586 11.1045 26.3586C9.69908 26.3701 8.41954 25.9603 7.25365 25.1977C6.2487 24.5376 5.47166 23.6726 4.91144 22.6027C4.29471 21.419 4.135 20.1557 4.21486 18.8581C4.24926 18.2435 4.4317 17.6516 4.61475 17.0598C4.82053 16.3769 5.20874 15.7851 5.65409 15.2388C6.5454 14.1347 7.65354 13.3494 9.0246 12.9396C10.0529 12.6323 11.0929 12.5754 12.1555 12.7347C13.0235 12.86 13.8233 13.1786 14.5659 13.5998C15.4118 14.0892 16.1201 14.7493 16.6913 15.5461C16.9082 15.8647 17.0795 16.2175 17.3081 16.5249ZM11.1954 25.7782C11.3902 25.8123 11.7096 25.744 12.0186 25.6872C13.6519 25.414 14.9892 24.6172 16.0175 23.3084C16.3031 22.9441 16.5771 22.5685 16.7601 22.1588C17.2282 21.1003 17.4567 19.9963 17.3081 18.824C17.1827 17.7769 16.8172 16.8208 16.2343 15.9558C15.8117 15.3412 15.2975 14.8176 14.6802 14.3851C13.0008 13.2242 11.1727 12.9283 9.23037 13.4859C8.05343 13.8274 7.05955 14.4876 6.24871 15.4208C5.70017 16.0468 5.31133 16.7639 5.04904 17.5151C4.75173 18.3801 4.62579 19.2906 4.77445 20.2239C4.8543 20.7247 4.9575 21.2142 5.13994 21.6922C5.35739 22.2612 5.7229 22.7734 5.81442 23.3994C5.82548 23.5132 5.91699 23.627 6.04292 23.6385C6.33961 23.6726 6.53433 23.8775 6.72844 24.0596C7.95084 25.2091 9.42448 25.6985 11.1954 25.7782Z" fill="#5CD200"/>
<path d="M5.19703 14.7038C4.80881 14.9656 4.58031 15.3526 4.36347 15.7395C3.99736 16.3997 3.64353 17.0826 3.50655 17.8452C3.33517 18.7899 3.20924 19.7459 3.39229 20.7133C3.49487 21.2255 3.57474 21.7491 3.74612 22.2271C3.92918 22.7393 4.20313 23.2173 4.48877 23.6953C5.08277 24.6742 5.89423 25.4254 6.831 26.0513C7.39121 26.4156 8.0196 26.6659 8.65906 26.905C9.65295 27.2692 10.6702 27.2692 11.6985 27.2351C12.1211 27.2237 12.5327 27.0985 12.9553 26.996C13.3324 26.905 13.6752 26.757 14.029 26.6432C14.623 26.4384 15.1144 26.0741 15.6059 25.7099C16.1427 25.3116 16.5997 24.8335 17.0224 24.3327C17.4794 23.7864 17.8111 23.149 18.0851 22.5002C18.5421 21.3962 18.7479 20.2353 18.6453 19.0402C18.5648 18.1866 18.3707 17.3558 17.9825 16.559C17.7423 16.0468 17.4567 15.5688 17.1483 15.0908C17.1028 15.0111 17.034 14.9542 16.9315 14.9542C16.9315 14.8745 16.8971 14.8404 16.8172 14.8404C16.5543 14.351 16.1544 13.9754 15.8116 13.5429C16.0856 13.577 16.2914 13.7477 16.44 13.9413C16.7828 14.3737 17.1937 14.738 17.4911 15.2046C17.754 15.6257 18.0169 16.0583 18.1993 16.5363C18.3363 16.9005 18.485 17.2647 18.5992 17.6289C18.8965 18.5394 18.9076 19.4728 18.8621 20.4174C18.8394 20.8386 18.6563 21.2142 18.6453 21.6353C18.6336 21.8173 18.5538 22.0222 18.4506 22.1816C18.3363 22.3637 18.2792 22.5572 18.211 22.7507C17.8793 23.7409 17.2742 24.549 16.5316 25.266C16.3258 25.266 16.2226 25.3799 16.1771 25.5619C16.1544 25.5619 16.1427 25.5619 16.12 25.5619C16.0401 25.5619 16.0057 25.6074 16.0057 25.6757C15.3657 26.1538 14.7262 26.6318 13.9608 26.9391C13.3324 27.1895 12.6924 27.3147 12.0523 27.4513C11.5044 27.5765 10.9331 27.4969 10.3729 27.4741C9.81328 27.4513 9.27641 27.3147 8.73892 27.2009C8.52208 27.1554 8.31629 27.0643 8.11051 26.9619C7.51651 26.6887 6.92251 26.4269 6.40837 26.0286C5.92862 25.6644 5.49433 25.2546 5.07172 24.8221C4.46604 24.2075 4.13496 23.4563 3.74612 22.7165C3.34623 21.9767 3.20924 21.2027 3.11772 20.3947C3.08332 20.0874 2.99241 19.7801 3.0262 19.4841C3.11773 18.6419 3.28911 17.811 3.56369 17.0029C3.82598 16.2176 4.22585 15.5119 4.72894 14.8632C5.06004 14.4306 5.4028 13.9981 5.85982 13.6795C5.93967 13.6225 6.00849 13.5884 6.10001 13.5998C5.79165 13.9526 5.49434 14.3282 5.19703 14.7038Z" fill="#5CD200"/>
<path d="M6.08801 13.5769C6.07695 13.4404 6.13407 13.3834 6.27104 13.3949C6.22497 13.4859 6.16785 13.5428 6.08801 13.5769Z" fill="#5CD200"/>
<path d="M15.5369 13.2241C15.6745 13.2127 15.7316 13.2696 15.7199 13.3948C15.6284 13.3607 15.5713 13.3038 15.5369 13.2241Z" fill="#5CD200"/>
<path d="M16.8398 14.8175C16.9197 14.8175 16.9541 14.8631 16.9541 14.9314C16.8742 14.9314 16.8398 14.8973 16.8398 14.8175Z" fill="#65DF00"/>
<path d="M16.1885 25.5277C16.2339 25.3456 16.3365 25.2318 16.5423 25.2318C16.5312 25.4594 16.3599 25.4935 16.1885 25.5277Z" fill="#5FC503"/>
<path d="M16.0056 25.6416C16.0056 25.5619 16.0511 25.5278 16.1199 25.5278C16.1316 25.6074 16.0855 25.6416 16.0056 25.6416Z" fill="#5FC503"/>
<path d="M15.926 3.65214C15.9487 3.68629 15.9714 3.72043 15.9941 3.75458C15.9941 3.78872 16.0058 3.82287 16.0058 3.85701C15.8571 3.84563 15.7773 3.76596 15.7656 3.618C15.8228 3.64076 15.8799 3.65214 15.926 3.65214Z" fill="#F1F1F1"/>
<path d="M16.0174 3.86836C16.1083 3.92527 16.1771 3.99356 16.1998 4.10738C15.994 4.13014 16.0057 3.99356 16.0174 3.86836Z" fill="#F1F1F1"/>
<path d="M14.7605 5.55287C14.3944 5.21142 14.0405 4.85858 13.6062 4.60819C12.4864 3.93666 11.2757 3.74318 9.99555 3.97081C8.67056 4.20983 7.67669 4.93826 6.93403 6.03091C6.87691 6.12198 6.8081 6.20163 6.7393 6.28128C6.51079 6.20163 6.68218 6.05369 6.71658 5.9854C6.99116 5.47319 7.31057 4.99516 7.77926 4.64233C8.91013 3.81147 10.1903 3.44725 11.5951 3.57245C12.2235 3.62936 12.7948 3.85699 13.3661 4.13016C13.8802 4.38055 14.3145 4.69924 14.6917 5.12036C14.8176 5.25694 14.863 5.39352 14.7605 5.55287Z" fill="#696969"/>
<path d="M14.6803 4.60825C14.6919 4.61963 14.7036 4.63101 14.7036 4.64239C14.6803 4.66516 14.6575 4.68792 14.6348 4.71068C14.109 4.36923 13.6065 4.00501 13.0125 3.77739C11.5616 3.24244 10.1334 3.2652 8.71632 3.8912C8.54494 3.97087 8.35083 4.02778 8.20217 4.15298C8.12232 4.22127 7.99638 4.28956 7.8938 4.16436C8.84223 3.44731 9.91599 3.0831 11.0929 3.10586C12.4069 3.12862 13.5721 3.54975 14.5206 4.47167C14.5777 4.52858 14.6348 4.56272 14.6803 4.60825Z" fill="#E3E3E3"/>
<path d="M14.6345 4.71069C14.6573 4.68793 14.68 4.66516 14.7033 4.6424C14.7604 4.66516 14.8176 4.68793 14.863 4.71069C14.8858 4.77898 14.9202 4.85865 14.9429 4.92694L14.9202 4.93832C14.7942 4.91556 14.7261 4.80174 14.6345 4.71069Z" fill="#C9C9C9"/>
<path d="M7.39111 4.63094C7.4593 4.49436 7.57355 4.41469 7.6878 4.33502C7.71053 4.35778 7.74493 4.38055 7.76766 4.41469C7.64235 4.50575 7.57355 4.66509 7.39111 4.63094Z" fill="#D9D9D9"/>
<path d="M7.07104 4.92689C7.1165 4.84722 7.11649 4.68788 7.27681 4.81307C7.23074 4.88136 7.17362 4.94965 7.07104 4.92689Z" fill="#B1B1B1"/>
<path d="M14.9546 4.92685C15.0001 4.96099 15.0572 4.98375 15.0461 5.06343C15.0461 5.07481 15.0117 5.09757 15.0001 5.08619C14.9202 5.06342 14.9429 4.99514 14.9319 4.94961C14.9319 4.93823 14.9546 4.92685 14.9546 4.92685Z" fill="#C9C9C9"/>
<path d="M7.32222 4.7789C7.31055 4.72199 7.31055 4.66508 7.37934 4.63094C7.41373 4.69923 7.36768 4.74476 7.32222 4.7789Z" fill="#D9D9D9"/>
<path d="M7.75663 4.41469C7.7339 4.39193 7.69949 4.36917 7.67676 4.33502C7.72222 4.33502 7.77935 4.33502 7.82482 4.33502C7.80209 4.36917 7.77936 4.39193 7.75663 4.41469Z" fill="#E3E3E3"/>
<path d="M6.9104 5.16623C6.92209 5.15468 6.9221 5.14313 6.93379 5.14313V5.15468C6.9221 5.15468 6.92209 5.15468 6.9104 5.16623Z" fill="#B1B1B1"/>
<path d="M6.96802 4.98378C6.99074 4.98378 7.01346 4.9724 7.02452 4.9724C7.02452 5.0293 7.00241 5.05207 6.96802 4.98378Z" fill="#B1B1B1"/>
<path d="M6.91047 5.16594C6.91047 5.17749 6.89941 5.17749 6.89941 5.18903C6.89941 5.17749 6.91047 5.17749 6.91047 5.16594Z" fill="#B1B1B1"/>
<path d="M5.84863 4.22119C5.84863 4.18705 5.84863 4.14152 5.84863 4.10738C5.92849 4.11876 6.03108 4.07323 6.06548 4.18705C6.07715 4.23258 6.07715 4.28948 6.03108 4.31225C5.93955 4.36915 5.91682 4.25534 5.84863 4.22119Z" fill="#FBFBFB"/>
<path d="M11.1955 25.7781C9.41352 25.7098 7.95094 25.209 6.73959 24.0708C6.54548 23.8887 6.35137 23.6839 6.05407 23.6497C5.91708 23.6384 5.83722 23.5245 5.82555 23.4107C5.73464 22.7847 5.36854 22.2726 5.15171 21.7035C4.96865 21.2368 4.87774 20.736 4.78621 20.2352C4.62589 19.3019 4.76347 18.3914 5.06017 17.5264C5.32308 16.7638 5.7113 16.0582 6.25984 15.4321C7.0713 14.4988 8.0652 13.8387 9.24214 13.4973C11.1845 12.9395 13.0125 13.2241 14.692 14.3964C15.3204 14.8289 15.8345 15.3525 16.2461 15.9671C16.8284 16.8321 17.1939 17.7881 17.3198 18.8353C17.4685 20.0076 17.2283 21.1116 16.7713 22.1701C16.5888 22.5799 16.3143 22.9555 16.0286 23.3196C15.0003 24.6286 13.6637 25.4253 12.0297 25.6984C11.7097 25.7439 11.3902 25.8009 11.1955 25.7781ZM6.03135 23.2628C6.15727 23.5473 6.35138 23.6839 6.67141 23.6497C6.86552 23.6269 7.05963 23.6497 7.25374 23.6497C7.26541 23.7294 7.31086 23.7863 7.37966 23.8432C8.12232 24.4464 8.94482 24.8562 9.88159 25.0383C10.9787 25.2659 12.0297 25.1521 13.0697 24.7879C13.6409 24.583 14.1207 24.2188 14.6348 23.9343C14.9549 23.8774 15.2516 23.7408 15.4574 23.479C15.5606 23.3424 15.7547 23.1831 15.5606 22.9782C15.5833 22.8644 15.606 22.7506 15.6287 22.6367C15.7086 22.6367 15.7774 22.6254 15.8228 22.5457C15.9715 22.2611 16.1773 21.9994 16.2799 21.6921C16.5888 20.8271 16.794 19.9507 16.7031 19.0174C16.6116 18.0499 16.3259 17.1394 15.7657 16.3427C15.0347 15.2955 14.0636 14.533 12.8412 14.1005C12.601 13.8273 12.327 13.7363 11.9842 13.8729C11.7557 13.8501 11.5383 13.8159 11.3098 13.8046C10.4529 13.7818 9.64202 13.9412 8.83057 14.2485C7.6309 14.7151 6.76293 15.5687 6.07741 16.6045C5.7801 17.0597 5.59704 17.5947 5.46006 18.141C5.18609 18.1865 5.12897 18.3572 5.16337 18.6076C5.36853 20.0076 5.57432 21.4189 5.76843 22.8189C5.82556 23.0123 5.88269 23.1603 6.03135 23.2628Z" fill="#53BB01"/>
<path d="M12.0067 13.8842C12.3495 13.7477 12.6351 13.8387 12.8636 14.1119C13.0694 14.6354 13.0694 15.1818 12.9551 15.7281C12.8636 16.1833 12.6922 16.6045 12.5663 17.0484C12.4637 17.4126 12.5663 17.5606 12.9324 17.6288C13.1038 17.663 13.2862 17.6516 13.4576 17.6402C14.0977 17.6174 14.7371 17.5833 15.3772 17.5833C15.7771 17.5833 16.1315 17.754 16.3367 18.1182C16.5314 18.471 16.5081 18.8125 16.2224 19.1198C16.1426 19.1995 16.1426 19.2792 16.1997 19.3816C16.5197 20.0076 16.4854 20.2124 15.9602 20.7133C15.8797 20.7929 15.8459 20.8498 15.903 20.9636C16.1543 21.4758 16.0971 21.7148 15.6284 22.0563C15.4687 22.1701 15.4227 22.2612 15.5369 22.4319C15.583 22.4888 15.594 22.5685 15.6284 22.6482C15.6057 22.762 15.583 22.8758 15.5603 22.9896C15.446 23.1262 15.3201 23.2628 15.1604 23.3652C15.137 23.3766 15.1143 23.3994 15.0916 23.4107C14.7144 23.5814 14.3145 23.5928 13.9036 23.5814C12.7948 23.5359 11.7094 23.4335 10.6357 23.1489C10.0871 23.001 9.52751 22.8872 8.95624 22.8644C8.72773 22.853 8.68167 22.762 8.68167 22.5571C8.65894 21.3392 8.64788 20.1328 8.60181 18.9149C8.59076 18.6191 8.67061 18.4938 8.9673 18.4028C9.5957 18.2207 10.167 17.9134 10.4188 17.2646C10.7954 16.263 11.3666 15.3525 11.7094 14.3395C11.7782 14.1574 11.8925 14.0095 12.0067 13.8842Z" fill="#FBFCF9"/>
<path d="M12.0068 13.8843C11.8926 14.0095 11.7783 14.1574 11.7212 14.3282C11.3784 15.3412 10.8072 16.2516 10.43 17.2533C10.1788 17.902 9.60749 18.2093 8.97909 18.3914C8.68178 18.4711 8.60193 18.6077 8.6136 18.9036C8.65905 20.1215 8.68179 21.3279 8.69346 22.5458C8.69346 22.7506 8.75059 22.8416 8.96743 22.8531C9.5387 22.8758 10.0989 22.9897 10.6475 23.1376C11.7212 23.4221 12.8066 23.5245 13.9148 23.5701C14.3147 23.5815 14.7262 23.5701 15.1034 23.3994C15.1144 23.5018 15.0346 23.536 14.9658 23.6043C14.8515 23.7067 14.6918 23.775 14.6347 23.9457C14.1089 24.2302 13.6408 24.5945 13.0695 24.7993C12.0296 25.1749 10.9785 25.2774 9.88145 25.0497C8.93363 24.8562 8.11051 24.4465 7.37953 23.8546C7.3224 23.8091 7.26528 23.7522 7.25361 23.6611C7.34513 23.6611 7.425 23.6611 7.51652 23.6498C7.83656 23.6384 7.96247 23.4335 7.84822 23.1262C7.85927 21.6352 7.85928 20.1328 7.85928 18.6418C7.85928 18.2435 7.7911 18.1866 7.3912 18.1866C6.75113 18.1752 6.12274 18.1752 5.48267 18.1752C5.62026 17.6402 5.8027 17.0939 6.10001 16.6387C6.78554 15.6029 7.6535 14.7493 8.85317 14.2827C9.65296 13.9639 10.4761 13.816 11.333 13.8388C11.5615 13.8273 11.79 13.8615 12.0068 13.8843Z" fill="#4AA502"/>
<path d="M5.49402 18.1524C6.13409 18.1524 6.7625 18.1638 7.40196 18.1638C7.80185 18.1638 7.87065 18.2207 7.87065 18.6191C7.87065 20.1101 7.85897 21.6125 7.85897 23.1035C7.81352 23.1376 7.77913 23.1831 7.73368 23.2173C7.69928 23.2287 7.67654 23.2514 7.64214 23.2628C7.10526 23.2628 6.56778 23.2628 6.03091 23.2514C5.88225 23.149 5.82512 23.001 5.80239 22.8303C5.59661 21.4304 5.4025 20.0191 5.19672 18.6191C5.16294 18.3687 5.22005 18.1979 5.49402 18.1524Z" fill="#FBFCF9"/>
<path d="M15.6511 22.6482C15.6174 22.58 15.6057 22.5002 15.5602 22.4319C15.446 22.2726 15.4914 22.1702 15.6511 22.0564C16.1198 21.7149 16.177 21.4759 15.9257 20.9637C15.8686 20.8499 15.8913 20.793 15.9828 20.7133C16.5081 20.2125 16.5425 19.9963 16.2224 19.3817C16.1653 19.2792 16.1653 19.1996 16.2458 19.1199C16.5197 18.8126 16.5541 18.4711 16.36 18.1183C16.1542 17.7541 15.8115 17.5833 15.3999 17.5833C14.7604 17.5833 14.1204 17.6289 13.4803 17.6403C13.3089 17.6403 13.1265 17.6516 12.9551 17.6289C12.5896 17.572 12.4864 17.4126 12.5896 17.0484C12.7149 16.6046 12.8863 16.1834 12.9778 15.7281C13.0804 15.1818 13.0804 14.6355 12.8863 14.112C14.1087 14.5444 15.0799 15.2956 15.8115 16.3541C16.36 17.1509 16.6456 18.05 16.7482 19.0289C16.8398 19.9621 16.634 20.8386 16.3256 21.7035C16.2224 21.9995 16.0172 22.2726 15.8686 22.5572C15.7998 22.6368 15.7316 22.6482 15.6511 22.6482Z" fill="#4AA502"/>
<path d="M7.73382 23.2287C7.77928 23.1945 7.81366 23.149 7.85912 23.1148C7.97337 23.4221 7.84806 23.627 7.52803 23.6384C7.4365 23.6384 7.35666 23.6384 7.26513 23.6498C7.07102 23.6498 6.87691 23.627 6.68219 23.6498C6.36277 23.6839 6.15698 23.5473 6.04272 23.2628C6.5796 23.2628 7.11647 23.2628 7.65334 23.2742C7.67669 23.2628 7.69942 23.24 7.73382 23.2287Z" fill="#44A903"/>
<path d="M14.6465 23.9343C14.7036 23.7636 14.8633 23.7067 14.9776 23.5929C15.0464 23.536 15.1262 23.5019 15.1146 23.388C15.1373 23.3766 15.1606 23.3538 15.1834 23.3425C15.3431 23.24 15.4573 23.1148 15.5832 22.9669C15.7773 23.1831 15.5832 23.3425 15.48 23.4677C15.2749 23.7409 14.9776 23.8774 14.6465 23.9343Z" fill="#44A903"/>
<path d="M15.1833 23.3538C15.1606 23.3652 15.1372 23.388 15.1145 23.3994C15.1372 23.388 15.1606 23.3766 15.1833 23.3538Z" fill="#4AA502"/>
<path d="M7.73362 23.2286C7.69922 23.24 7.67649 23.2628 7.64209 23.2741C7.67649 23.2628 7.69922 23.24 7.73362 23.2286Z" fill="#53BB01"/>
</svg>
