<svg width="67" height="25" viewBox="0 0 67 25" fill="none" xmlns="http://www.w3.org/2000/svg">
<path d="M11.9794 24.7249C11.9794 24.7249 -0.881029 20.3017 0.60573 2.38373C0.60573 2.38373 6.25541 0.734375 11.9794 0.734375C17.7035 0.734375 23.2045 2.30876 23.3531 2.38373C24.8399 20.3017 11.9794 24.7249 11.9794 24.7249Z" fill="url(#paint0_linear_918_928)"/>
<path d="M11.9794 24.7249C11.9794 24.7249 -0.881029 20.3017 0.60573 2.38373C0.60573 2.38373 6.25541 0.734375 11.9794 0.734375C17.7035 0.734375 23.2045 2.30876 23.3531 2.38373L22.1637 3.43331L11.9794 23.6004V24.7249Z" fill="url(#paint1_linear_918_928)"/>
<path d="M11.9794 23.6004C11.9794 23.6004 0.382687 19.6269 1.72077 3.35834C1.72077 3.35834 6.85009 1.85893 11.9794 1.85893C17.1831 1.85893 22.1637 3.28337 22.3124 3.35834C23.6505 19.6269 11.9794 23.6004 11.9794 23.6004Z" fill="white" stroke="#1A171B" stroke-width="0.450188" stroke-linecap="round"/>
<path d="M11.9794 23.6004C11.9794 23.6004 0.382687 19.6269 1.72077 3.35834C1.72077 3.35834 6.85009 1.85893 11.9794 1.85893C17.1831 1.85893 22.1637 3.28337 22.3124 3.35834C23.6505 19.6269 11.9794 23.6004 11.9794 23.6004Z" fill="white"/>
<path d="M1.64645 3.20839H1.57212V3.35834C0.903074 11.83 3.72792 16.928 6.25541 19.7019C9.00591 22.7007 11.9051 23.7503 11.9794 23.7503H12.0538H12.1281C12.1281 23.7503 15.1016 22.7007 17.8521 19.7019C20.3796 16.928 23.2788 11.83 22.5354 3.35834V3.28337H22.4611C22.3867 3.28337 17.3318 1.78395 12.0538 1.78395C6.85011 1.70898 1.64645 3.13342 1.64645 3.20839ZM12.1281 1.9339C16.9601 1.9339 21.4947 3.2084 22.1637 3.43331C22.2381 4.25798 22.2381 5.2326 22.2381 5.9823C22.2381 12.8046 19.7106 17.1529 17.4804 19.6269C14.9529 22.4008 12.3511 23.4504 11.9051 23.6004C11.5334 23.4504 8.7829 22.4008 6.32974 19.6269C4.09961 17.1529 1.64645 12.8796 1.64645 6.05727C1.64645 5.30757 1.72079 4.33295 1.79513 3.50828C2.61285 3.28337 7.44481 1.9339 12.1281 1.9339Z" fill="url(#paint2_linear_918_928)"/>
<path d="M11.9795 21.5762C11.9795 21.5762 2.2412 17.9776 3.35627 4.33295C3.35627 4.33295 7.66787 4.7078 11.9795 4.7078C16.2911 4.7078 20.5283 4.40792 20.6027 4.33295C21.7921 17.9776 11.9795 21.5762 11.9795 21.5762Z" fill="url(#paint3_linear_918_928)"/>
<path d="M11.9795 20.3766C11.9795 20.3766 3.57929 17.3028 4.54568 5.4575C4.54568 5.4575 8.26258 5.75739 11.9795 5.75739C15.6964 5.75739 19.3389 5.4575 19.4876 5.4575C20.454 17.3028 11.9795 20.3766 11.9795 20.3766Z" fill="url(#paint4_radial_918_928)"/>
<path d="M20.6026 4.33295C20.4539 4.33295 16.291 4.7078 11.9794 4.7078C7.6678 4.7078 3.3562 4.33295 3.3562 4.33295L4.54561 5.53247C4.54561 5.53247 8.26251 5.83236 11.9794 5.83236C15.6963 5.83236 19.3389 5.53247 19.4875 5.53247L20.6026 4.33295Z" fill="#8B1820"/>
<path d="M11.9795 21.5762C11.9795 21.5762 2.2412 17.9776 3.35627 4.33295L4.54568 5.53247C3.57929 17.3028 11.9795 20.4516 11.9795 20.4516V21.5762Z" fill="url(#paint5_linear_918_928)"/>
<path d="M6.77588 15.6535L8.11396 6.58206H10.4928L13.3176 15.6535H10.8645L9.60072 10.9304L8.93168 15.6535H6.77588Z" fill="white"/>
<path d="M13.6893 6.58206H15.9194L17.2575 15.6535H15.1017L14.284 10.9304L13.5406 14.6789L12.2769 10.9304L13.6893 6.58206Z" fill="white"/>
<path d="M31.8276 10.9304H30.0435L28.3338 6.50712L27.7391 10.9304H25.7319L26.9957 2.75859H28.9285L31.8276 10.9304ZM30.5639 6.73203L32.0507 2.75859H33.9834L35.0985 10.9304H33.1657L32.6454 6.50712L31.5303 9.13108L30.5639 6.73203Z" fill="#1A171B"/>
<path d="M42.5323 9.50594L42.0119 10.9304H40.0791L42.8296 2.75859H44.8367L47.5129 10.9304H45.5058L45.0597 9.50594H42.5323ZM43.796 5.30759L42.9783 7.93156H44.5394L43.796 5.30759Z" fill="#1A171B"/>
<path d="M57.3255 8.5313H53.5342C53.5342 9.35597 53.9059 9.8058 54.6493 9.8058C55.021 9.8058 55.3183 9.65586 55.5414 9.281H57.2511C57.1024 9.95574 56.7308 10.4056 56.2847 10.7054C55.8387 11.0053 55.244 11.1553 54.6493 11.1553C52.9395 11.1553 51.6758 10.1057 51.6758 8.15644C51.6758 6.28218 52.8652 5.15762 54.5006 5.15762C56.2847 5.15762 57.3255 6.35715 57.3255 8.23142V8.5313ZM55.69 7.33177C55.6157 6.80697 55.1697 6.43212 54.6493 6.43212C54.1289 6.43212 53.6829 6.732 53.6086 7.33177H55.69Z" fill="#1A171B"/>
<path d="M63.5699 8.5313H59.7786C59.7786 9.35597 60.1503 9.8058 60.8937 9.8058C61.2654 9.8058 61.5627 9.65586 61.7857 9.281H63.4955C63.3468 9.95574 62.9751 10.4056 62.5291 10.7054C62.0831 11.0053 61.4884 11.1553 60.8937 11.1553C59.1839 11.1553 57.9202 10.1057 57.9202 8.15644C57.9202 6.28218 59.1096 5.15762 60.745 5.15762C62.5291 5.15762 63.5699 6.35715 63.5699 8.23142V8.5313ZM61.9344 7.33177C61.8601 6.80697 61.4141 6.43212 60.8937 6.43212C60.3733 6.43212 59.9273 6.732 59.853 7.33177H61.9344Z" fill="#1A171B"/>
<path d="M63.8674 4.25798C63.8674 3.50828 64.4621 2.83354 65.2798 2.83354C66.0232 2.83354 66.6923 3.43331 66.6923 4.25798C66.6923 5.08266 66.0976 5.68242 65.2798 5.68242C64.4621 5.68242 63.8674 5.08266 63.8674 4.25798ZM64.0904 4.25798C64.0904 4.93272 64.6108 5.45751 65.2798 5.45751C65.9489 5.45751 66.4693 4.93272 66.4693 4.25798C66.4693 3.58325 65.9489 3.05845 65.2798 3.05845C64.6108 3.13342 64.0904 3.65822 64.0904 4.25798ZM65.8746 5.08266H65.6515L65.2798 4.33295H64.9825V5.08266H64.7595V3.50828H65.4285C65.7259 3.50828 65.9489 3.58325 65.9489 3.9581C65.9489 4.25798 65.7259 4.40792 65.5029 4.40792L65.8746 5.08266ZM64.9082 3.73319V4.10804H65.1312C65.3542 4.10804 65.6515 4.10804 65.6515 3.9581C65.6515 3.73319 65.5029 3.73319 65.2798 3.73319H64.9082Z" fill="#1A171B"/>
<path d="M48.1821 6.73201H47.1414V5.38254H48.2564V4.70781C48.2564 3.05846 48.9998 2.45869 50.4122 2.45869C50.7839 2.45869 51.0813 2.53366 51.3043 2.53366L51.2299 3.88313C51.0813 3.80816 50.9326 3.80816 50.6352 3.80816C50.1892 3.80816 49.9662 4.18301 49.9662 4.70781V5.38254H51.2299V6.73201H49.9662V10.9304H48.1821V6.73201Z" fill="#1A171B"/>
<path d="M29.7463 14.8288C29.1516 14.6039 28.8542 14.5289 28.2595 14.5289C27.5905 14.5289 26.8471 14.7538 26.8471 15.5785C26.8471 17.0779 30.2667 16.7031 30.2667 19.2521C30.2667 20.9014 29.0029 21.5762 27.3675 21.5762C26.8471 21.5762 26.2524 21.4262 25.7321 21.2763L25.8807 20.2267C26.2524 20.3766 26.9215 20.6015 27.5162 20.6015C28.1852 20.6015 29.0773 20.2267 29.0773 19.3271C29.0773 17.6027 25.6577 18.0526 25.6577 15.6535C25.6577 14.304 26.7728 13.5543 28.1852 13.5543C28.7056 13.5543 29.3003 13.6293 29.895 13.8542L29.7463 14.8288Z" fill="#1A171B"/>
<path d="M31.9021 13.7043H36.288V14.6789H33.0172V16.928H35.9907V17.9026H33.0172V20.4516H36.288V21.4262H31.9021V13.7043Z" fill="#1A171B"/>
<path d="M43.1271 14.9788C42.6067 14.6789 42.0864 14.529 41.4917 14.529C39.7075 14.529 38.4438 15.8035 38.4438 17.5278C38.4438 19.3271 39.7819 20.5266 41.4173 20.5266C42.012 20.5266 42.7554 20.3767 43.1271 20.1517L43.2014 21.2013C42.6067 21.4262 41.8633 21.5012 41.4173 21.5012C38.8898 21.5012 37.2544 19.9268 37.2544 17.4528C37.2544 15.0538 39.0385 13.4794 41.4173 13.4794C42.012 13.4794 42.6067 13.5543 43.2014 13.7793L43.1271 14.9788Z" fill="#1A171B"/>
<path d="M50.2634 18.2025C50.2634 20.3766 49.1484 21.5012 47.2156 21.5012C45.2828 21.5012 44.1677 20.3766 44.1677 18.2025V13.7043H45.2828V18.0525C45.2828 19.552 45.7288 20.5266 47.2156 20.5266C48.7023 20.5266 49.1484 19.477 49.1484 18.0525V13.7043H50.2634V18.2025Z" fill="#1A171B"/>
<path d="M52.0476 13.7043H53.9804C55.5415 13.7043 57.0283 13.9292 57.0283 15.8034C57.0283 16.778 56.2849 17.3778 55.3928 17.5278C55.7645 17.6777 55.9132 17.8276 56.1362 18.2775L57.623 21.3512H56.3592L55.1698 18.6523C54.7981 17.9026 54.4264 17.9026 53.8317 17.9026H53.1627V21.3512H52.0476V13.7043ZM53.1627 17.003H54.1291C55.1698 17.003 55.8388 16.5531 55.8388 15.8034C55.8388 15.1287 55.3185 14.6789 54.2777 14.6789H53.1627V17.003Z" fill="#1A171B"/>
<path d="M58.9609 13.7043H63.3469V14.6789H60.076V16.928H63.0495V17.9026H60.076V20.4516H63.3469V21.4262H58.9609V13.7043Z" fill="#1A171B"/>
<path d="M39.5588 7.10687C39.2614 6.88196 38.8898 6.80699 38.4437 6.80699C37.7003 6.80699 37.1056 7.40675 37.1056 8.30639C37.1056 9.20604 37.7747 9.73083 38.5924 9.73083C38.9641 9.73083 39.4101 9.65586 39.7075 9.43095L39.7818 10.8554C39.3358 11.0053 38.8154 11.0803 38.2951 11.0803C36.5853 11.0803 35.3215 10.0307 35.3215 8.15645C35.3215 6.28219 36.6596 5.2326 38.2951 5.2326C38.8154 5.2326 39.3358 5.30758 39.7075 5.53249L39.5588 7.10687Z" fill="#1A171B"/>
<defs>
<linearGradient id="paint0_linear_918_928" x1="5.24642" y1="19.7515" x2="17.6792" y2="-3.1959" gradientUnits="userSpaceOnUse">
<stop stop-color="#636466"/>
<stop offset="0.0367559" stop-color="#68696B"/>
<stop offset="0.2712" stop-color="#838486"/>
<stop offset="0.509" stop-color="#97989A"/>
<stop offset="0.7502" stop-color="#A2A3A5"/>
<stop offset="1" stop-color="#A6A7A9"/>
</linearGradient>
<linearGradient id="paint1_linear_918_928" x1="16.7764" y1="13.1473" x2="0.846485" y2="2.69666" gradientUnits="userSpaceOnUse">
<stop stop-color="#C5C6C8"/>
<stop offset="0.0948435" stop-color="#DCDDDE"/>
<stop offset="0.2048" stop-color="#F0F0F0"/>
<stop offset="0.3167" stop-color="#FBFBFB"/>
<stop offset="0.4326" stop-color="white"/>
<stop offset="0.5362" stop-color="#F6F7F7"/>
<stop offset="0.7022" stop-color="#DFDFE0"/>
<stop offset="0.9089" stop-color="#B9BABB"/>
<stop offset="1" stop-color="#A6A7A9"/>
</linearGradient>
<linearGradient id="paint2_linear_918_928" x1="20.7812" y1="16.1404" x2="3.97781" y2="4.86927" gradientUnits="userSpaceOnUse">
<stop stop-color="#4B4B4D"/>
<stop offset="0.2321" stop-color="#646466"/>
<stop offset="0.482" stop-color="#77787A"/>
<stop offset="0.7365" stop-color="#828385"/>
<stop offset="1" stop-color="#868789"/>
</linearGradient>
<linearGradient id="paint3_linear_918_928" x1="4.56917" y1="15.3577" x2="18.9436" y2="5.18337" gradientUnits="userSpaceOnUse">
<stop stop-color="#8B1820"/>
<stop offset="0.6067" stop-color="#CC1332"/>
<stop offset="0.7079" stop-color="#CA0233"/>
<stop offset="1" stop-color="#8B1E40"/>
</linearGradient>
<radialGradient id="paint4_radial_918_928" cx="0" cy="0" r="1" gradientUnits="userSpaceOnUse" gradientTransform="translate(9.65344 7.90379) scale(15.1921 15.3213)">
<stop stop-color="#CC1332"/>
<stop offset="0.4607" stop-color="#CA0233"/>
<stop offset="1" stop-color="#8B1E40"/>
</radialGradient>
<linearGradient id="paint5_linear_918_928" x1="0.438211" y1="5.4629" x2="13.1988" y2="20.057" gradientUnits="userSpaceOnUse">
<stop stop-color="#8B1820"/>
<stop offset="0.6067" stop-color="#CC1332"/>
<stop offset="0.7079" stop-color="#CA0233"/>
<stop offset="1" stop-color="#8B1E40"/>
</linearGradient>
</defs>
</svg>
