<svg width="183" height="39" viewBox="0 0 183 39" fill="none" xmlns="http://www.w3.org/2000/svg">
<path d="M29.3049 17.3823C28.8094 17.878 28.4301 18.4763 28.1938 19.1343C27.9574 19.7925 27.87 20.4944 27.9376 21.19L27.9141 21.1666C27.9836 21.9855 27.8725 22.8094 27.5887 23.5812C27.3049 24.3529 26.8553 25.0537 26.2711 25.6348C25.6868 26.2158 24.9821 26.6631 24.2061 26.9452C23.4302 27.2275 22.6016 27.338 21.7783 27.2688L21.8019 27.2922C20.8171 27.2011 19.8279 27.4141 18.9693 27.9026C18.1107 28.391 17.4245 29.1308 17.0042 30.0213C16.584 30.9118 16.45 31.9094 16.6207 32.8784C16.7916 33.8473 17.2586 34.7403 17.9583 35.4355C18.658 36.1308 19.5563 36.5945 20.5307 36.7634C21.5051 36.9324 22.5081 36.7982 23.4031 36.3795C24.2981 35.9606 25.0413 35.2776 25.5317 34.4232C26.022 33.5689 26.2354 32.585 26.1429 31.6056L26.1677 31.629C26.0982 30.8103 26.2091 29.9862 26.4929 29.2144C26.7767 28.4427 27.2265 27.7419 27.8107 27.1608C28.3949 26.5798 29.0996 26.1325 29.8756 25.8504C30.6516 25.5681 31.4801 25.4576 32.3034 25.5268L32.2786 25.5034C33.083 25.5753 33.8928 25.4441 34.6328 25.122C35.3726 24.7998 36.0189 24.2971 36.5114 23.6605C37.0039 23.0239 37.327 22.2738 37.4504 21.48C37.574 20.6861 37.494 19.8741 37.2179 19.1191C36.9418 18.3642 36.4786 17.6908 35.8712 17.1613C35.2637 16.6318 34.5317 16.2634 33.743 16.0902C32.9543 15.9171 32.1343 15.9446 31.3592 16.1704C30.584 16.3964 29.8788 16.8132 29.3088 17.3823H29.3049Z" fill="white"/>
<path d="M19.6621 24.2268L19.6373 24.2034C20.337 24.2735 21.0436 24.1881 21.7062 23.9533C22.3687 23.7185 22.9705 23.3403 23.468 22.8459C23.9653 22.3516 24.3462 21.7533 24.5827 21.0946C24.8193 20.4359 24.9057 19.7332 24.8358 19.0372L24.8606 19.0606C24.7911 18.2417 24.9022 17.4178 25.1858 16.646C25.4696 15.8743 25.9194 15.1735 26.5035 14.5924C27.0878 14.0114 27.7925 13.5641 28.5684 13.282C29.3445 12.9997 30.173 12.8893 30.9963 12.9584L30.9715 12.935C31.9564 13.0271 32.9458 12.8146 33.8049 12.3267C34.664 11.8389 35.3508 11.0994 35.7717 10.209C36.1926 9.31872 36.3271 8.32094 36.1569 7.35177C35.9867 6.38261 35.5201 5.48928 34.8205 4.79359C34.121 4.09793 33.2228 3.63377 32.2483 3.46449C31.2738 3.29519 30.2706 3.42897 29.3753 3.8476C28.4801 4.26621 27.7366 4.9493 27.246 5.80367C26.7554 6.65803 26.5418 7.64209 26.6344 8.62161L26.6109 8.59691C26.6805 9.41577 26.5697 10.2399 26.286 11.0117C26.0024 11.7836 25.5526 12.4845 24.9684 13.0657C24.3841 13.6466 23.6793 14.094 22.9033 14.3761C22.1271 14.6582 21.2985 14.7684 20.4751 14.6991L20.4987 14.7238C19.7989 14.6537 19.0922 14.7392 18.4297 14.9739C17.7673 15.2086 17.1654 15.5869 16.6679 16.0813C16.1704 16.5757 15.7897 17.1739 15.5531 17.8326C15.3166 18.4913 15.2302 19.194 15.3002 19.89L15.2766 19.8666C15.3459 20.6854 15.2347 21.5093 14.9509 22.281C14.667 23.0525 14.2173 23.7534 13.6332 24.3343C13.0489 24.9153 12.3443 25.3625 11.5685 25.6449C10.7926 25.9271 9.96414 26.0377 9.14089 25.9688L9.16442 25.9922C8.17951 25.9002 7.19005 26.1126 6.33098 26.6005C5.47192 27.0884 4.78509 27.8278 4.36417 28.7182C3.94325 29.6086 3.80872 30.6063 3.97895 31.5754C4.14917 32.5446 4.61588 33.438 5.31537 34.1336C6.01487 34.8293 6.91312 35.2934 7.8876 35.4627C8.86209 35.632 9.86536 35.4982 10.7606 35.0796C11.6558 34.661 12.3994 33.978 12.8899 33.1236C13.3805 32.2691 13.5941 31.2852 13.5015 30.3056L13.5264 30.329C13.4568 29.5101 13.5679 28.6862 13.8517 27.9144C14.1354 27.1427 14.5851 26.4419 15.1693 25.8608C15.7536 25.2798 16.4583 24.8325 17.2342 24.5504C18.0103 24.2682 18.8387 24.1576 19.6621 24.2268Z" fill="white"/>
<path d="M10.9015 21.6177C11.3969 21.1222 11.7762 20.5239 12.0123 19.8657C12.2485 19.2075 12.3356 18.5055 12.2674 17.81L12.2923 17.8334C12.2227 17.0144 12.3338 16.1901 12.6177 15.4181C12.9016 14.6462 13.3516 13.9452 13.9361 13.3641C14.5207 12.7831 15.2256 12.3359 16.0019 12.0539C16.7782 11.7718 17.6071 11.6617 18.4306 11.7312L18.4058 11.7078C19.3903 11.7996 20.3794 11.587 21.2381 11.0992C22.0968 10.6114 22.7831 9.87206 23.2039 8.98202C23.6245 8.09196 23.7589 7.09453 23.5887 6.12574C23.4185 5.15694 22.9519 4.26394 22.2527 3.56852C21.5535 2.8731 20.6555 2.4091 19.6814 2.23981C18.7073 2.07052 17.7044 2.20418 16.8095 2.62255C15.9145 3.04091 15.1711 3.72363 14.6807 4.5776C14.1901 5.43157 13.9764 6.41523 14.0687 7.39442L14.0451 7.37102C14.1147 8.18982 14.0036 9.01385 13.7198 9.78559C13.436 10.5573 12.9864 11.2582 12.4021 11.8392C11.8179 12.4203 11.1132 12.8675 10.3372 13.1496C9.56126 13.4319 8.73272 13.5424 7.90941 13.4732L7.93294 13.4966C7.12849 13.4249 6.31883 13.5563 5.57901 13.8786C4.8392 14.2008 4.19314 14.7037 3.70073 15.3404C3.20831 15.977 2.88548 16.7271 2.76211 17.5209C2.63875 18.3148 2.71887 19.1268 2.99503 19.8816C3.27119 20.6365 3.73448 21.3097 4.34195 21.8391C4.94942 22.3686 5.68142 22.7369 6.47012 22.91C7.25881 23.0831 8.07869 23.0554 8.85379 22.8296C9.62887 22.6036 10.3341 22.1869 10.9041 21.6177H10.9015Z" fill="white"/>
<path d="M51.3928 8.65149H55.275V27.4404H51.3928V8.65149Z" fill="white"/>
<path d="M57.4738 21.0067C57.4685 19.6565 57.8661 18.335 58.6164 17.2097C59.3667 16.0844 60.4359 15.2059 61.6887 14.6855C62.9415 14.1649 64.3213 14.026 65.6535 14.2861C66.9858 14.5462 68.2104 15.1936 69.1724 16.1465C70.1343 17.0993 70.7902 18.3147 71.0571 19.6386C71.324 20.9625 71.1898 22.3354 70.6715 23.5834C70.1532 24.8313 69.2742 25.8984 68.1457 26.649C67.0171 27.3997 65.6901 27.8005 64.3324 27.8005C63.4312 27.8108 62.537 27.6422 61.702 27.3047C60.867 26.9672 60.1081 26.4676 59.4696 25.8352C58.8309 25.2026 58.3256 24.4498 57.9829 23.6208C57.6402 22.7917 57.4672 21.9031 57.4738 21.0067ZM67.3088 21.0067C67.2926 20.4247 67.1042 19.8604 66.7673 19.3842C66.4304 18.9081 65.9598 18.5413 65.4144 18.3298C64.869 18.1181 64.273 18.0711 63.7009 18.1946C63.1288 18.3181 62.6059 18.6064 62.1977 19.0238C61.7896 19.4411 61.5141 19.9689 61.406 20.5412C61.2977 21.1133 61.3614 21.7046 61.5892 22.2409C61.8171 22.7773 62.1987 23.2349 62.6866 23.5567C63.1745 23.8784 63.7471 24.05 64.3324 24.05C64.7333 24.0607 65.1321 23.9885 65.5037 23.8382C65.8752 23.688 66.2114 23.4628 66.491 23.1769C66.7706 22.8909 66.9877 22.5505 67.1284 22.177C67.2692 21.8035 67.3306 21.405 67.3088 21.0067Z" fill="white"/>
<path d="M86.6636 14.5717V26.7917C86.6636 31.1155 83.2729 32.9433 79.8312 32.9433C78.6195 33.0335 77.4061 32.79 76.3241 32.2397C75.2423 31.6893 74.3338 30.8533 73.6981 29.8233L77.0104 27.9188C77.2776 28.4557 77.7033 28.8986 78.2305 29.1884C78.7578 29.478 79.3614 29.6007 79.9606 29.5399C80.3436 29.5927 80.7337 29.5591 81.1019 29.4418C81.47 29.3244 81.807 29.1261 82.0877 28.8618C82.3685 28.5974 82.5859 28.2737 82.7239 27.9144C82.8618 27.5552 82.9167 27.1697 82.8847 26.7865V25.61C82.4301 26.1632 81.8515 26.6027 81.1952 26.8932C80.5389 27.1838 79.8234 27.3173 79.1057 27.2831C77.3984 27.2295 75.7789 26.5174 74.5902 25.2972C73.4015 24.0772 72.7368 22.4449 72.7368 20.7461C72.7368 19.0472 73.4015 17.4149 74.5902 16.1949C75.7789 14.9747 77.3984 14.2626 79.1057 14.209C79.8234 14.1748 80.5389 14.3083 81.1952 14.5989C81.8515 14.8894 82.4301 15.329 82.8847 15.8821V14.5691L86.6636 14.5717ZM82.886 20.748C82.9121 20.1258 82.7503 19.51 82.4216 18.98C82.0928 18.4499 81.6121 18.0298 81.0412 17.7739C80.4704 17.5178 79.8356 17.4376 79.2185 17.5434C78.6014 17.6492 78.0304 17.9362 77.5786 18.3677C77.127 18.799 76.8155 19.3549 76.6841 19.9638C76.5529 20.5728 76.6078 21.2069 76.842 21.7845C77.0761 22.3621 77.4787 22.8569 77.9979 23.205C78.5171 23.5531 79.1293 23.7388 79.7554 23.738C80.1633 23.7663 80.5726 23.7094 80.957 23.5708C81.3415 23.4322 81.6924 23.215 81.9873 22.9334C82.2822 22.6517 82.5146 22.3118 82.6694 21.9353C82.8242 21.5589 82.898 21.1545 82.886 20.748Z" fill="white"/>
<path d="M88.8622 21.0067C88.8569 19.6565 89.2544 18.335 90.0048 17.2097C90.7551 16.0844 91.8244 15.2059 93.0771 14.6855C94.3299 14.1649 95.7097 14.026 97.0419 14.2861C98.3742 14.5462 99.5988 15.1936 100.561 16.1465C101.523 17.0993 102.179 18.3147 102.446 19.6386C102.712 20.9625 102.578 22.3354 102.06 23.5834C101.542 24.8313 100.663 25.8984 99.5341 26.649C98.4056 27.3997 97.0785 27.8005 95.7208 27.8005C94.8197 27.8108 93.9253 27.6422 93.0905 27.3047C92.2554 26.9672 91.4965 26.4676 90.858 25.8352C90.2193 25.2026 89.714 24.4498 89.3714 23.6208C89.0286 22.7917 88.8556 21.9031 88.8622 21.0067ZM98.6972 21.0067C98.681 20.4247 98.4926 19.8604 98.1558 19.3842C97.8188 18.9081 97.3482 18.5413 96.8029 18.3298C96.2574 18.1181 95.6613 18.0711 95.0893 18.1946C94.5172 18.3181 93.9943 18.6064 93.5861 19.0238C93.178 19.4411 92.9025 19.9689 92.7943 20.5412C92.686 21.1133 92.7498 21.7046 92.9777 22.2409C93.2055 22.7773 93.5872 23.2349 94.075 23.5567C94.563 23.8784 95.1353 24.05 95.7208 24.05C96.1217 24.0607 96.5205 23.9885 96.892 23.8382C97.2636 23.688 97.5998 23.4628 97.8794 23.1769C98.159 22.8909 98.3761 22.5505 98.5168 22.177C98.6576 21.8035 98.719 21.405 98.6972 21.0067Z" fill="white"/>
<path d="M104.39 11.1228C104.39 10.6646 104.526 10.2167 104.782 9.83576C105.038 9.45479 105.402 9.15786 105.828 8.98253C106.253 8.80719 106.722 8.76131 107.173 8.8507C107.625 8.94009 108.04 9.16072 108.366 9.48471C108.692 9.80868 108.914 10.2215 109.004 10.6708C109.093 11.1202 109.047 11.586 108.871 12.0093C108.695 12.4326 108.396 12.7944 108.013 13.049C107.63 13.3035 107.18 13.4394 106.719 13.4394C106.103 13.4333 105.514 13.1873 105.079 12.7541C104.643 12.321 104.396 11.7353 104.39 11.1228ZM104.782 14.5717H108.665V27.4417H104.777L104.782 14.5717Z" fill="white"/>
<path d="M125.428 21.0067C125.473 21.8573 125.349 22.7083 125.061 23.5108C124.775 24.3133 124.331 25.0514 123.756 25.6828C123.181 26.3141 122.487 26.8263 121.712 27.1898C120.937 27.5531 120.098 27.7607 119.243 27.8005C118.523 27.8395 117.804 27.7189 117.138 27.4473C116.471 27.1756 115.873 26.7599 115.388 26.2301V32.5884H111.506V14.5717H115.388V15.7807C115.873 15.2513 116.471 14.8359 117.138 14.5646C117.805 14.2931 118.524 14.1726 119.243 14.2116C120.099 14.2513 120.938 14.4587 121.713 14.8222C122.487 15.1857 123.182 15.6979 123.757 16.3294C124.332 16.961 124.775 17.6994 125.062 18.5021C125.349 19.3047 125.473 20.156 125.428 21.0067ZM121.546 21.0067C121.531 20.4044 121.337 19.8199 120.99 19.3263C120.642 18.8328 120.156 18.4522 119.592 18.2322C119.028 18.0122 118.412 17.9624 117.819 18.0892C117.227 18.216 116.686 18.5137 116.263 18.945C115.84 19.3765 115.554 19.9222 115.441 20.5144C115.329 21.1064 115.394 21.7182 115.63 22.2734C115.865 22.8287 116.26 23.3024 116.765 23.6356C117.27 23.9686 117.862 24.1463 118.468 24.1462C118.884 24.1647 119.299 24.0954 119.686 23.943C120.073 23.7908 120.423 23.5587 120.714 23.2623C121.005 22.9658 121.229 22.6117 121.372 22.223C121.516 21.8343 121.575 21.4197 121.546 21.0067Z" fill="white"/>
<path d="M137.408 23.5794C137.408 26.5395 134.821 27.8005 132.027 27.8005C130.897 27.9021 129.764 27.6648 128.772 27.1186C127.78 26.5726 126.975 25.7432 126.462 24.7377L129.825 22.8332C129.962 23.2979 130.254 23.7024 130.653 23.9786C131.053 24.255 131.536 24.3867 132.021 24.3516C132.952 24.3516 133.419 24.0682 133.419 23.5547C133.419 22.1377 127.052 22.8852 127.052 18.4327C127.052 15.626 129.433 14.2116 132.125 14.2116C133.136 14.1797 134.138 14.4184 135.025 14.9027C135.913 15.387 136.654 16.0992 137.17 16.965L133.858 18.7408C133.713 18.4037 133.471 18.1165 133.163 17.9152C132.854 17.7138 132.493 17.6072 132.125 17.6085C131.452 17.6085 131.037 17.8685 131.037 18.3287C131.042 19.7964 137.408 18.8175 137.408 23.5794Z" fill="white"/>
<path d="M151.589 14.5717V27.4417H147.707V26.2314C147.259 26.7655 146.69 27.1863 146.047 27.4593C145.404 27.7323 144.706 27.8497 144.008 27.8018C141.394 27.8018 139.171 25.9493 139.171 22.4718V14.5717H143.054V21.9063C143.021 22.2129 143.056 22.5228 143.157 22.8144C143.256 23.1061 143.42 23.3726 143.634 23.5953C143.848 23.818 144.108 23.9915 144.397 24.104C144.685 24.2164 144.995 24.265 145.305 24.2463C146.728 24.2463 147.711 23.4234 147.711 21.5956V14.5756L151.589 14.5717Z" fill="white"/>
<path d="M173.85 19.539V27.4404H169.968V19.8731C169.968 18.5861 169.347 17.7632 168.105 17.7632C166.811 17.7632 166.086 18.6641 166.086 20.1825V27.4404H162.205V19.8731C162.205 18.5861 161.584 17.7632 160.341 17.7632C159.047 17.7632 158.322 18.6641 158.322 20.1825V27.4404H154.44V14.5704H158.322V15.7534C158.725 15.2286 159.253 14.8123 159.858 14.5428C160.465 14.2732 161.129 14.159 161.79 14.2103C162.454 14.1779 163.116 14.3174 163.71 14.615C164.304 14.9124 164.81 15.3581 165.18 15.9081C165.61 15.3326 166.18 14.875 166.836 14.5781C167.492 14.2811 168.214 14.1547 168.932 14.2103C171.904 14.2116 173.85 16.3215 173.85 19.539Z" fill="white"/>
<path d="M177.134 14.4924C178.724 14.4924 180.015 13.2096 180.015 11.6272C180.015 10.0448 178.724 8.76199 177.134 8.76199C175.543 8.76199 174.253 10.0448 174.253 11.6272C174.253 13.2096 175.543 14.4924 177.134 14.4924Z" fill="white"/>
</svg>
